<?xml version="1.0" encoding="UTF-8" standalone="no"?>
<!-- Created with Inkscape (http://www.inkscape.org/) -->
<svg xmlns:inkscape="http://www.inkscape.org/namespaces/inkscape" xmlns:rdf="http://www.w3.org/1999/02/22-rdf-syntax-ns#" xmlns="http://www.w3.org/2000/svg" xmlns:sodipodi="http://sodipodi.sourceforge.net/DTD/sodipodi-0.dtd" xmlns:cc="http://creativecommons.org/ns#" xmlns:xlink="http://www.w3.org/1999/xlink" xmlns:dc="http://purl.org/dc/elements/1.1/" xmlns:svg="http://www.w3.org/2000/svg" xmlns:ns1="http://sozi.baierouge.fr" id="svg6244" sodipodi:docname="wheel.svg" viewBox="0 0 74.322 102.71" sodipodi:version="0.32" version="1.0" inkscape:output_extension="org.inkscape.output.svg.inkscape" inkscape:version="0.46">
  <defs id="defs6246">
    <linearGradient id="linearGradient7871" y2="287.07" xlink:href="#linearGradient5108" gradientUnits="userSpaceOnUse" x2="557.5" y1="375.55" x1="557.37" inkscape:collect="always"/>
    <linearGradient id="linearGradient7869" y2="319" xlink:href="#linearGradient5102" gradientUnits="userSpaceOnUse" x2="557.37" y1="375.55" x1="557.37" inkscape:collect="always"/>
    <filter id="filter5120" inkscape:collect="always">
      <feGaussianBlur id="feGaussianBlur5122" stdDeviation="0.493774" inkscape:collect="always"/>
    </filter>
    <linearGradient id="linearGradient5108" inkscape:collect="always">
      <stop id="stop5110" style="stop-color:#000000" offset="0"/>
      <stop id="stop5112" style="stop-color:#000000;stop-opacity:0" offset="1"/>
    </linearGradient>
    <linearGradient id="linearGradient5102" inkscape:collect="always">
      <stop id="stop5104" style="stop-color:#4d4d4d" offset="0"/>
      <stop id="stop5106" style="stop-color:#ffffff;stop-opacity:0" offset="1"/>
    </linearGradient>
    <radialGradient id="radialGradient5054" xlink:href="#linearGradient3736" gradientUnits="userSpaceOnUse" cy="342.64" cx="557" gradientTransform="matrix(.91243 -.73112 .43273 .54004 -96.839 561.68)" r="16.192" inkscape:collect="always"/>
    <linearGradient id="linearGradient5046" y2="332.07" gradientUnits="userSpaceOnUse" x2="552.88" y1="341.67" x1="561.64" inkscape:collect="always">
      <stop id="stop3977" style="stop-color:#000000" offset="0"/>
      <stop id="stop3979" style="stop-color:#ffffff" offset="1"/>
    </linearGradient>
    <linearGradient id="linearGradient3736" inkscape:collect="always">
      <stop id="stop3738" style="stop-color:#ffffff" offset="0"/>
      <stop id="stop3740" style="stop-color:#333333" offset="1"/>
    </linearGradient>
    <linearGradient id="linearGradient5042" y2="294.29" gradientUnits="userSpaceOnUse" x2="532.65" y1="362.74" x1="577.12" inkscape:collect="always">
      <stop id="stop3962" style="stop-color:#000000" offset="0"/>
      <stop id="stop3964" style="stop-color:#000000;stop-opacity:0" offset="1"/>
    </linearGradient>
    <radialGradient id="radialGradient5040" gradientUnits="userSpaceOnUse" cy="300.12" cx="526.48" gradientTransform="matrix(.22668 1.9111 -1.644 .19499 900.52 -764.59)" r="44.296" inkscape:collect="always">
      <stop id="stop3954" style="stop-color:#4d4d4d" offset="0"/>
      <stop id="stop3956" style="stop-color:#ffffff" offset="1"/>
    </radialGradient>
    <radialGradient id="radialGradient5038" gradientUnits="userSpaceOnUse" cy="326.37" cx="530.45" gradientTransform="matrix(-1.1108 -.92869 .64140 -.76720 958.16 1090)" r="39.578" inkscape:collect="always">
      <stop id="stop3829" style="stop-color:#ffffff" offset="0"/>
      <stop id="stop3831" style="stop-color:#1a1a1a" offset="1"/>
    </radialGradient>
  </defs>
  <sodipodi:namedview id="base" bordercolor="#666666" inkscape:pageshadow="2" guidetolerance="10" pagecolor="#ffffff" gridtolerance="10000" inkscape:window-height="728" inkscape:zoom="1.979899" objecttolerance="10" showgrid="false" borderopacity="1.0" inkscape:current-layer="layer1" inkscape:cx="79.649925" inkscape:cy="22.957055" inkscape:window-y="25" inkscape:window-x="0" inkscape:window-width="1280" inkscape:pageopacity="0.0" inkscape:document-units="px"/>
  <g id="layer1" inkscape:label="Layer 1" inkscape:groupmode="layer" transform="translate(-34.268 -35.294)">
    <g id="g6938" transform="translate(-486.08 -248.86)">
      <g id="g3992" transform="matrix(.84178 0 0 .84178 88.21 42.421)">
        <path id="path3824" style="fill-rule:evenodd;stroke:#000000;stroke-width:.5;fill:url(#radialGradient5038)" d="m557.5 292.25c-21.56 0-39.06 17.5-39.06 39.06s17.5 39.07 39.06 39.07 39.06-17.51 39.06-39.07-17.5-39.06-39.06-39.06zm0 4.81c18.9 0 34.25 15.35 34.25 34.25s-15.35 34.25-34.25 34.25-34.25-15.35-34.25-34.25 15.35-34.25 34.25-34.25z"/>
        <path id="path2922" style="fill-rule:evenodd;stroke:url(#linearGradient5042);stroke-width:.2;fill:url(#radialGradient5040)" d="m601.55 331.31c0 24.31-19.73 44.05-44.05 44.05-24.31 0-44.04-19.74-44.04-44.05s19.73-44.05 44.04-44.05c24.32 0 44.05 19.74 44.05 44.05zm-28.65-34.69c0.3 2.37-4.32 11.35-8.09 15.51-2.61 2.41-12.31 2.15-14.08 0.33-4-4.11-8.13-11.69-8.63-16.6-0.2-1.94 9.92-3.37 14.78-3.37 4.87 0 16.02 2.19 16.02 4.13zm-37.66 3.97c2.2 0.92 7.67 9.41 9.38 14.76 0.78 3.47-4.29 11.74-6.76 12.36-5.56 1.41-14.18 1.19-18.69-0.83-1.77-0.8 2.05-10.28 4.48-14.49s9.9-12.77 11.59-11.8zm-15.4 34.6c1.9-1.45 11.99-1.94 17.47-0.75 3.4 1.06 8.03 9.59 7.33 12.03-1.56 5.52-6.06 12.89-10.06 15.78-1.58 1.14-7.88-6.91-10.31-11.12-2.44-4.21-6.11-14.97-4.43-15.94zm22.27 30.63c-0.31-2.36 4.31-11.34 8.09-15.5 2.61-2.41 12.31-2.16 14.08-0.33 4 4.11 8.13 11.69 8.63 16.6 0.2 1.93-9.92 3.37-14.79 3.37-4.86 0-16.01-2.19-16.01-4.14zm37.66-3.97c-2.2-0.91-7.67-9.41-9.38-14.75-0.78-3.47 4.29-11.74 6.75-12.36 5.56-1.41 14.19-1.19 18.69 0.83 1.78 0.79-2.04 10.27-4.47 14.49-2.43 4.21-9.9 12.77-11.59 11.79zm15.39-34.6c-1.89 1.45-11.98 1.94-17.47 0.75-3.39-1.05-8.02-9.58-7.32-12.03 1.56-5.52 6.06-12.88 10.06-15.77 1.58-1.14 7.88 6.91 10.31 11.12s6.11 14.96 4.42 15.93z"/>
        <path id="path3702" sodipodi:rx="15.692107" sodipodi:ry="15.692107" style="fill:url(#radialGradient5054);fill-rule:evenodd" sodipodi:type="arc" d="m572.95 336.78a15.692 15.692 0 1 1 -31.38 0 15.692 15.692 0 1 1 31.38 0z" transform="translate(.24628 -5.4702)" sodipodi:cy="336.78043" sodipodi:cx="557.25739"/>
        <path id="path2920" sodipodi:rx="6.9695725" sodipodi:ry="6.9695725" style="fill-rule:evenodd;stroke:url(#linearGradient5046);stroke-width:.5;fill:#ffffff" sodipodi:type="arc" d="m564.23 336.78a6.9696 6.9696 0 1 1 -13.94 0 6.9696 6.9696 0 1 1 13.94 0z" transform="translate(.24628 -5.4702)" sodipodi:cy="336.78043" sodipodi:cx="557.25739"/>
        <path id="path3694" sodipodi:rx="3.3061082" sodipodi:ry="3.3061082" style="fill-rule:evenodd;fill:url(#radialGradient5054)" sodipodi:type="arc" d="m560.56 336.78a3.3061 3.3061 0 1 1 -6.61 0 3.3061 3.3061 0 1 1 6.61 0z" transform="translate(11.411 -5.4702)" sodipodi:cy="336.78043" sodipodi:cx="557.25739"/>
        <path id="path3696" sodipodi:rx="3.3061082" sodipodi:ry="3.3061082" style="fill-rule:evenodd;fill:url(#radialGradient5054)" sodipodi:type="arc" d="m560.56 336.78a3.3061 3.3061 0 1 1 -6.61 0 3.3061 3.3061 0 1 1 6.61 0z" transform="translate(.76963 -16.112)" sodipodi:cy="336.78043" sodipodi:cx="557.25739"/>
        <path id="path3698" sodipodi:rx="3.3061082" sodipodi:ry="3.3061082" style="fill-rule:evenodd;fill:url(#radialGradient5054)" sodipodi:type="arc" d="m560.56 336.78a3.3061 3.3061 0 1 1 -6.61 0 3.3061 3.3061 0 1 1 6.61 0z" transform="translate(-10.221 -5.4702)" sodipodi:cy="336.78043" sodipodi:cx="557.25739"/>
        <path id="path3700" sodipodi:rx="3.3061082" sodipodi:ry="3.3061082" style="fill-rule:evenodd;fill:url(#radialGradient5054)" sodipodi:type="arc" d="m560.56 336.78a3.3061 3.3061 0 1 1 -6.61 0 3.3061 3.3061 0 1 1 6.61 0z" transform="translate(.68240 5.1712)" sodipodi:cy="336.78043" sodipodi:cx="557.25739"/>
        <path id="path3704" sodipodi:rx="3.3061082" sodipodi:ry="3.3061082" style="fill-rule:evenodd;fill:#333333" sodipodi:type="arc" d="m560.56 336.78a3.3061 3.3061 0 1 1 -6.61 0 3.3061 3.3061 0 1 1 6.61 0z" transform="matrix(.58749 0 0 .58749 241.29 133.45)" sodipodi:cy="336.78043" sodipodi:cx="557.25739"/>
        <path id="path3706" sodipodi:rx="3.3061082" sodipodi:ry="3.3061082" style="fill-rule:evenodd;fill:#333333" sodipodi:type="arc" d="m560.56 336.78a3.3061 3.3061 0 1 1 -6.61 0 3.3061 3.3061 0 1 1 6.61 0z" transform="matrix(.58749 0 0 .58749 230.64 122.81)" sodipodi:cy="336.78043" sodipodi:cx="557.25739"/>
        <path id="path3708" sodipodi:rx="3.3061082" sodipodi:ry="3.3061082" style="fill-rule:evenodd;fill:#333333" sodipodi:type="arc" d="m560.56 336.78a3.3061 3.3061 0 1 1 -6.61 0 3.3061 3.3061 0 1 1 6.61 0z" transform="matrix(.58749 0 0 .58749 219.65 133.45)" sodipodi:cy="336.78043" sodipodi:cx="557.25739"/>
        <path id="path3714" sodipodi:rx="3.3061082" sodipodi:ry="3.3061082" style="fill-rule:evenodd;fill:#333333" sodipodi:type="arc" d="m560.56 336.78a3.3061 3.3061 0 1 1 -6.61 0 3.3061 3.3061 0 1 1 6.61 0z" transform="matrix(.58749 0 0 .58749 230.56 144.1)" sodipodi:cy="336.78043" sodipodi:cx="557.25739"/>
      </g>
      <g id="g5056" style="opacity:.5;filter:url(#filter5120);stroke:url(#linearGradient7871);fill:url(#linearGradient7869)" transform="matrix(.84178 0 0 -.32116 88.21 479.05)">
        <path id="path5058" style="fill-rule:evenodd;stroke:url(#linearGradient7871);stroke-width:.5;fill:url(#linearGradient7869)" d="m557.5 292.25c-21.56 0-39.06 17.5-39.06 39.06s17.5 39.07 39.06 39.07 39.06-17.51 39.06-39.07-17.5-39.06-39.06-39.06zm0 4.81c18.9 0 34.25 15.35 34.25 34.25s-15.35 34.25-34.25 34.25-34.25-15.35-34.25-34.25 15.35-34.25 34.25-34.25z"/>
        <path id="path5060" style="fill-rule:evenodd;stroke:url(#linearGradient7871);stroke-width:.2;fill:url(#linearGradient7869)" d="m601.55 331.31c0 24.31-19.73 44.05-44.05 44.05-24.31 0-44.04-19.74-44.04-44.05s19.73-44.05 44.04-44.05c24.32 0 44.05 19.74 44.05 44.05zm-28.65-34.69c0.3 2.37-4.32 11.35-8.09 15.51-2.61 2.41-12.31 2.15-14.08 0.33-4-4.11-8.13-11.69-8.63-16.6-0.2-1.94 9.92-3.37 14.78-3.37 4.87 0 16.02 2.19 16.02 4.13zm-37.66 3.97c2.2 0.92 7.67 9.41 9.38 14.76 0.78 3.47-4.29 11.74-6.76 12.36-5.56 1.41-14.18 1.19-18.69-0.83-1.77-0.8 2.05-10.28 4.48-14.49s9.9-12.77 11.59-11.8zm-15.4 34.6c1.9-1.45 11.99-1.94 17.47-0.75 3.4 1.06 8.03 9.59 7.33 12.03-1.56 5.52-6.06 12.89-10.06 15.78-1.58 1.14-7.88-6.91-10.31-11.12-2.44-4.21-6.11-14.97-4.43-15.94zm22.27 30.63c-0.31-2.36 4.31-11.34 8.09-15.5 2.61-2.41 12.31-2.16 14.08-0.33 4 4.11 8.13 11.69 8.63 16.6 0.2 1.93-9.92 3.37-14.79 3.37-4.86 0-16.01-2.19-16.01-4.14zm37.66-3.97c-2.2-0.91-7.67-9.41-9.38-14.75-0.78-3.47 4.29-11.74 6.75-12.36 5.56-1.41 14.19-1.19 18.69 0.83 1.78 0.79-2.04 10.27-4.47 14.49-2.43 4.21-9.9 12.77-11.59 11.79zm15.39-34.6c-1.89 1.45-11.98 1.94-17.47 0.75-3.39-1.05-8.02-9.58-7.32-12.03 1.56-5.52 6.06-12.88 10.06-15.77 1.58-1.14 7.88 6.91 10.31 11.12s6.11 14.96 4.42 15.93z"/>
        <path id="path5062" sodipodi:rx="15.692107" sodipodi:ry="15.692107" style="fill-rule:evenodd;stroke:url(#linearGradient7871);stroke-width:.5;fill:url(#linearGradient7869)" sodipodi:type="arc" d="m572.95 336.78a15.692 15.692 0 1 1 -31.38 0 15.692 15.692 0 1 1 31.38 0z" transform="translate(.24628 -5.4702)" sodipodi:cy="336.78043" sodipodi:cx="557.25739"/>
        <path id="path5064" sodipodi:rx="6.9695725" sodipodi:ry="6.9695725" style="fill-rule:evenodd;stroke:url(#linearGradient7871);stroke-width:.5;fill:url(#linearGradient7869)" sodipodi:type="arc" d="m564.23 336.78a6.9696 6.9696 0 1 1 -13.94 0 6.9696 6.9696 0 1 1 13.94 0z" transform="translate(.24628 -5.4702)" sodipodi:cy="336.78043" sodipodi:cx="557.25739"/>
        <path id="path5066" sodipodi:rx="3.3061082" sodipodi:ry="3.3061082" style="opacity:1;fill-rule:evenodd;stroke:url(#linearGradient7871);stroke-width:.5;fill:url(#linearGradient7869)" sodipodi:type="arc" d="m560.56 336.78a3.3061 3.3061 0 1 1 -6.61 0 3.3061 3.3061 0 1 1 6.61 0z" transform="translate(11.411 -5.4702)" sodipodi:cy="336.78043" sodipodi:cx="557.25739"/>
        <path id="path5068" sodipodi:rx="3.3061082" sodipodi:ry="3.3061082" style="opacity:1;fill-rule:evenodd;stroke:url(#linearGradient7871);stroke-width:.5;fill:url(#linearGradient7869)" sodipodi:type="arc" d="m560.56 336.78a3.3061 3.3061 0 1 1 -6.61 0 3.3061 3.3061 0 1 1 6.61 0z" transform="translate(.76963 -16.112)" sodipodi:cy="336.78043" sodipodi:cx="557.25739"/>
        <path id="path5070" sodipodi:rx="3.3061082" sodipodi:ry="3.3061082" style="opacity:1;fill-rule:evenodd;stroke:url(#linearGradient7871);stroke-width:.5;fill:url(#linearGradient7869)" sodipodi:type="arc" d="m560.56 336.78a3.3061 3.3061 0 1 1 -6.61 0 3.3061 3.3061 0 1 1 6.61 0z" transform="translate(-10.221 -5.4702)" sodipodi:cy="336.78043" sodipodi:cx="557.25739"/>
        <path id="path5072" sodipodi:rx="3.3061082" sodipodi:ry="3.3061082" style="opacity:1;fill-rule:evenodd;stroke:url(#linearGradient7871);stroke-width:.5;fill:url(#linearGradient7869)" sodipodi:type="arc" d="m560.56 336.78a3.3061 3.3061 0 1 1 -6.61 0 3.3061 3.3061 0 1 1 6.61 0z" transform="translate(.68240 5.1712)" sodipodi:cy="336.78043" sodipodi:cx="557.25739"/>
        <path id="path5074" sodipodi:rx="3.3061082" sodipodi:ry="3.3061082" style="fill-rule:evenodd;stroke:url(#linearGradient7871);stroke-width:.85108;fill:url(#linearGradient7869)" sodipodi:type="arc" d="m560.56 336.78a3.3061 3.3061 0 1 1 -6.61 0 3.3061 3.3061 0 1 1 6.61 0z" transform="matrix(.58749 0 0 .58749 241.29 133.45)" sodipodi:cy="336.78043" sodipodi:cx="557.25739"/>
        <path id="path5076" sodipodi:rx="3.3061082" sodipodi:ry="3.3061082" style="fill-rule:evenodd;stroke:url(#linearGradient7871);stroke-width:.85108;fill:url(#linearGradient7869)" sodipodi:type="arc" d="m560.56 336.78a3.3061 3.3061 0 1 1 -6.61 0 3.3061 3.3061 0 1 1 6.61 0z" transform="matrix(.58749 0 0 .58749 230.64 122.81)" sodipodi:cy="336.78043" sodipodi:cx="557.25739"/>
        <path id="path5078" sodipodi:rx="3.3061082" sodipodi:ry="3.3061082" style="fill-rule:evenodd;stroke:url(#linearGradient7871);stroke-width:.85108;fill:url(#linearGradient7869)" sodipodi:type="arc" d="m560.56 336.78a3.3061 3.3061 0 1 1 -6.61 0 3.3061 3.3061 0 1 1 6.61 0z" transform="matrix(.58749 0 0 .58749 219.65 133.45)" sodipodi:cy="336.78043" sodipodi:cx="557.25739"/>
        <path id="path5080" sodipodi:rx="3.3061082" sodipodi:ry="3.3061082" style="fill-rule:evenodd;stroke:url(#linearGradient7871);stroke-width:.85108;fill:url(#linearGradient7869)" sodipodi:type="arc" d="m560.56 336.78a3.3061 3.3061 0 1 1 -6.61 0 3.3061 3.3061 0 1 1 6.61 0z" transform="matrix(.58749 0 0 .58749 230.56 144.1)" sodipodi:cy="336.78043" sodipodi:cx="557.25739"/>
      </g>
    </g>
  </g>
  <metadata>
    <rdf:RDF>
      <cc:Work>
        <dc:format>image/svg+xml</dc:format>
        <dc:type rdf:resource="http://purl.org/dc/dcmitype/StillImage"/>
        <cc:license rdf:resource="http://creativecommons.org/licenses/publicdomain/"/>
        <dc:publisher>
          <cc:Agent rdf:about="http://openclipart.org/">
            <dc:title>Openclipart</dc:title>
          </cc:Agent>
        </dc:publisher>
        <dc:title>Alloy Wheel</dc:title>
        <dc:date>2009-06-06T06:49:57</dc:date>
        <dc:description>An alloy car wheel</dc:description>
        <dc:source>https://openclipart.org/detail/26472/alloy-wheel-by-khendraw</dc:source>
        <dc:creator>
          <cc:Agent>
            <dc:title>khendraw</dc:title>
          </cc:Agent>
        </dc:creator>
        <dc:subject>
          <rdf:Bag>
            <rdf:li>alloy wheel</rdf:li>
            <rdf:li>car wheel</rdf:li>
            <rdf:li>photorealistic</rdf:li>
          </rdf:Bag>
        </dc:subject>
      </cc:Work>
      <cc:License rdf:about="http://creativecommons.org/licenses/publicdomain/">
        <cc:permits rdf:resource="http://creativecommons.org/ns#Reproduction"/>
        <cc:permits rdf:resource="http://creativecommons.org/ns#Distribution"/>
        <cc:permits rdf:resource="http://creativecommons.org/ns#DerivativeWorks"/>
      </cc:License>
    </rdf:RDF>
  </metadata>
</svg>