<?xml version="1.0" encoding="UTF-8" standalone="no"?>
<!-- Created with Inkscape (http://www.inkscape.org/) -->
<svg xmlns:inkscape="http://www.inkscape.org/namespaces/inkscape" xmlns:rdf="http://www.w3.org/1999/02/22-rdf-syntax-ns#" xmlns="http://www.w3.org/2000/svg" xmlns:sodipodi="http://sodipodi.sourceforge.net/DTD/sodipodi-0.dtd" xmlns:cc="http://web.resource.org/cc/" xmlns:xlink="http://www.w3.org/1999/xlink" xmlns:dc="http://purl.org/dc/elements/1.1/" xmlns:svg="http://www.w3.org/2000/svg" xmlns:ns1="http://sozi.baierouge.fr" id="svg2" sodipodi:docname="endtable 1.svg" inkscape:export-filename="C:\Documents and Settings\Owner\Desktop\SVG\Paul's Images\endtable 1.png" viewBox="0 0 369.06 441" sodipodi:version="0.32" inkscape:export-xdpi="115.49691" version="1.0" inkscape:output_extension="org.inkscape.output.svg.inkscape" inkscape:export-ydpi="115.49691" inkscape:version="0.45.1" sodipodi:docbase="C:\Documents and Settings\Owner\Desktop\SVG\Paul's Images">
  <sodipodi:namedview id="base" bordercolor="#666666" inkscape:pageshadow="2" guidetolerance="10" pagecolor="#ffffff" gridtolerance="10000" inkscape:window-height="742" inkscape:zoom="1.4" objecttolerance="10" borderopacity="1.0" inkscape:current-layer="layer1" inkscape:cx="171.0068" inkscape:cy="275.2551" inkscape:window-y="-4" inkscape:window-x="-4" inkscape:window-width="1024" inkscape:pageopacity="0.0" inkscape:document-units="px"/>
  <g id="layer1" inkscape:label="Layer 1" inkscape:groupmode="layer" transform="translate(-188.56 -282.18)">
    <g id="g4200">
      <path id="path2170" sodipodi:nodetypes="ccccccccccccccccccc" style="fill-rule:evenodd;stroke:#63350d;stroke-width:1px;fill:#b3722e" d="m214.15 648.3l5.05 8.08c5.77 0.3 11.79 0.34 20.21-2.02l-1.01-41.41c8.15-0.77 17.58 2.59 36.36 36.36l-1.01 65.66c6.74 5.81 13.47 1.81 20.2 0l20.21-60.61c66.9-24.88 122.33-22.21 191.93-12.12l7.07 51.52c3.29 4.32 10.54 2.7 19.19-1.01l7.07-362.65 14.14-4.04v-5.05l-91.92-27.27-260.62 7.07v11.11l9.09 2.02 4.04 334.36z"/>
      <path id="path2172" sodipodi:nodetypes="ccccc" style="fill-rule:evenodd;stroke:#63350d;stroke-width:1px;fill:#ae7759" d="m225.26 574.56l46.47 41.42-2.02-243.45-45.46-24.24 1.01 226.27z"/>
      <path id="path2176" sodipodi:nodetypes="ccc" style="stroke:#63350d;stroke-width:1px;fill:none" d="m219.62 317.74l1.6 293.19 17.93 2.02"/>
      <path id="path2178" style="fill:#864c26" d="m422.24 576.58c0 3.9-4.07 7.07-9.09 7.07s-9.09-3.17-9.09-7.07 4.07-7.07 9.09-7.07 9.09 3.17 9.09 7.07z"/>
      <use id="use2181" xlink:href="#path2178" transform="translate(-2.0203 -92.934)" height="1052.3622" width="744.09448" y="0" x="0"/>
      <use id="use2183" xlink:href="#path2178" transform="translate(1.0101 -187.89)" height="1052.3622" width="744.09448" y="0" x="0"/>
      <path id="path2187" style="stroke:#000000;stroke-width:1px;fill:none" d="m300.02 622.04l211.12-15.16"/>
      <path id="path2174" sodipodi:nodetypes="ccccccccccccccc" style="stroke:#63350d;stroke-width:1px;fill:none" d="m270.25 341.85l271.21-11.9m-260.71 10.72l-1.95 320.76-3.03 52.53m-65.76-399.79l60.59 27.68m-70.66-41.29l72.79 31.78 281.79-11.68m-256.46 302.26l1.98-271.5m0.21-0.1l213.92-10.61-2.38 268.25"/>
      <path id="path2195" sodipodi:nodetypes="ccccc" style="fill-rule:evenodd;stroke:#63350d;stroke-width:1px;fill:#c28856" d="m513.13 432.57l-213.79 12.16 0.11-12.22 213.99-12.02-0.31 12.08z"/>
      <use id="use3173" style="stroke:#63350d" xlink:href="#path2195" transform="translate(-.71429 94.954)" height="1052.3622" width="744.09448" y="0" x="0"/>
      <path id="path3175" sodipodi:nodetypes="ccccc" style="fill-rule:evenodd;stroke:#63350d;stroke-width:1px;fill:#c28856" d="m513.77 644.11c-77.85-10.91-151.32-9.55-215.75 17.15l0.11-39.5 213.99-14.7 1.65 37.05z"/>
    </g>
  </g>
  <metadata>
    <rdf:RDF>
      <cc:Work>
        <dc:format>image/svg+xml</dc:format>
        <dc:type rdf:resource="http://purl.org/dc/dcmitype/StillImage"/>
        <cc:license rdf:resource="http://creativecommons.org/licenses/publicdomain/"/>
        <dc:publisher>
          <cc:Agent rdf:about="http://openclipart.org/">
            <dc:title>Openclipart</dc:title>
          </cc:Agent>
        </dc:publisher>
        <dc:title>Endtable 1</dc:title>
        <dc:date>2010-02-13T04:26:26</dc:date>
        <dc:description>A typical 3-drawer endtable, a type of small dresser, a piece of furniture found in a bedroom.</dc:description>
        <dc:source>https://openclipart.org/detail/29274/endtable-1-by-rfc1394</dc:source>
        <dc:creator>
          <cc:Agent>
            <dc:title>Rfc1394</dc:title>
          </cc:Agent>
        </dc:creator>
        <dc:subject>
          <rdf:Bag>
            <rdf:li>bedroom</rdf:li>
            <rdf:li>brown</rdf:li>
            <rdf:li>color</rdf:li>
            <rdf:li>contour</rdf:li>
            <rdf:li>dresser</rdf:li>
            <rdf:li>endtable</rdf:li>
            <rdf:li>furniture</rdf:li>
            <rdf:li>line art</rdf:li>
            <rdf:li>outline</rdf:li>
            <rdf:li>table</rdf:li>
          </rdf:Bag>
        </dc:subject>
      </cc:Work>
      <cc:License rdf:about="http://creativecommons.org/licenses/publicdomain/">
        <cc:permits rdf:resource="http://creativecommons.org/ns#Reproduction"/>
        <cc:permits rdf:resource="http://creativecommons.org/ns#Distribution"/>
        <cc:permits rdf:resource="http://creativecommons.org/ns#DerivativeWorks"/>
      </cc:License>
    </rdf:RDF>
  </metadata>
</svg>