<?xml version="1.0" encoding="UTF-8" standalone="no"?>
<!-- Generator: Adobe Illustrator 13.0.2, SVG Export Plug-In . SVG Version: 6.00 Build 14948)  -->
<svg xmlns:rdf="http://www.w3.org/1999/02/22-rdf-syntax-ns#" xmlns="http://www.w3.org/2000/svg" xmlns:cc="http://web.resource.org/cc/" xmlns:xlink="http://www.w3.org/1999/xlink" xmlns:dc="http://purl.org/dc/elements/1.1/" xmlns:svg="http://www.w3.org/2000/svg" xmlns:inkscape="http://www.inkscape.org/namespaces/inkscape" xmlns:sodipodi="http://sodipodi.sourceforge.net/DTD/sodipodi-0.dtd" xmlns:ns1="http://sozi.baierouge.fr" id="Layer_1" enable-background="new 0 0 62.432 403.015" xml:space="preserve" viewBox="0 0 62.432 403.015" version="1.1" y="0px" x="0px">
<g>
		<linearGradient id="SVGID_1_" y2="257.92" gradientUnits="userSpaceOnUse" x2="21.258" gradientTransform="matrix(1 0 0 -1 0 402.01)" y1="257.06" x1="11.402">
		<stop style="stop-color:#6C5635" offset="0"/>
		<stop style="stop-color:#735B38" offset=".1115"/>
		<stop style="stop-color:#866941" offset=".4515"/>
		<stop style="stop-color:#927146" offset=".758"/>
		<stop style="stop-color:#957348" offset="1"/>
	</linearGradient>
	<path stroke="#010101" stroke-width=".545" d="m0.295 5.966c-0.245-2.933 1.525-5.478 3.961-5.68 2.434-0.203 4.605 2.009 4.852 4.944l23.255 277.85c0.244 2.936-1.527 5.479-3.963 5.683-2.434 0.202-4.604-2.011-4.85-4.945l-23.255-277.85z" fill="url(#SVGID_1_)"/>
		<linearGradient id="SVGID_2_" y2="131.5" gradientUnits="userSpaceOnUse" x2="425.76" gradientTransform="matrix(-1 0 0 -1 427.71 471.01)" y1="131.5" x1="365.55">
		<stop style="stop-color:#464646" offset="0"/>
		<stop style="stop-color:#FFFFFF" offset="1"/>
	</linearGradient>
	<path stroke="#010101" stroke-width=".545" d="m60.99 319.14s2.868 21.041-0.384 48.2c-3.252 27.16-30.028 35.385-30.028 35.385s-27.927-10.52-28.5-34.618c-0.573-24.103 0.957-44.758 0.957-44.758l24.481-0.767s1.338-0.574 1.338-2.104c0-1.528-3.252-13.39-4.396-22.188-1.147-8.797-1.913-21.039-1.913-21.039l9.755-0.957s0.574 10.33 0.767 19.895c0.189 9.562-0.19 13.391-0.19 13.391s0.956 5.93 1.912 7.649c0.957 1.724 3.635 4.976 3.635 4.976s6.312-0.193 11.477-0.957c5.163-0.76 11.089-2.1 11.089-2.1z" fill="url(#SVGID_2_)"/>
	<path d="m24.648 275.76s0.573 16.833 3.062 34.237c2.485 17.406 1.722 11.478 1.722 11.478s0.384 1.528-1.339 1.528-1.723 0-1.723 0 0.573 3.443 3.825 9.564 4.781 7.076 4.781 7.076l-3.44-17.406s-1.913-12.049-2.298-17.404c-0.383-5.355-1.911-29.267-1.911-29.267l-2.679 0.19z" fill="#7F8082"/>
		<rect transform="matrix(-.9966 .0828 -.0828 -.9966 73.499 518.89)" height="32.743" width="10.005" stroke="#010101" y="244.6" x="20.991" stroke-width=".545" fill="#FDC217"/>
</g>
<metadata><rdf:RDF><cc:Work><dc:format>image/svg+xml</dc:format><dc:type rdf:resource="http://purl.org/dc/dcmitype/StillImage"/><cc:license rdf:resource="http://creativecommons.org/licenses/publicdomain/"/><dc:publisher><cc:Agent rdf:about="http://openclipart.org/"><dc:title>Openclipart</dc:title></cc:Agent></dc:publisher><dc:title>shovel</dc:title><dc:date>2007-10-30T04:14:26</dc:date><dc:description/><dc:source>https://openclipart.org/detail/7595/shovel-by-johnny_automatic</dc:source><dc:creator><cc:Agent><dc:title>johnny_automatic</dc:title></cc:Agent></dc:creator><dc:subject><rdf:Bag><rdf:li>digging</rdf:li><rdf:li>shovel</rdf:li><rdf:li>tool</rdf:li><rdf:li>work</rdf:li></rdf:Bag></dc:subject></cc:Work><cc:License rdf:about="http://creativecommons.org/licenses/publicdomain/"><cc:permits rdf:resource="http://creativecommons.org/ns#Reproduction"/><cc:permits rdf:resource="http://creativecommons.org/ns#Distribution"/><cc:permits rdf:resource="http://creativecommons.org/ns#DerivativeWorks"/></cc:License></rdf:RDF></metadata></svg>