<?xml version="1.0" encoding="UTF-8" standalone="no"?>
<!-- Created with Inkscape (http://www.inkscape.org/) -->
<svg xmlns:inkscape="http://www.inkscape.org/namespaces/inkscape" xmlns:rdf="http://www.w3.org/1999/02/22-rdf-syntax-ns#" xmlns="http://www.w3.org/2000/svg" xmlns:sodipodi="http://sodipodi.sourceforge.net/DTD/sodipodi-0.dtd" xmlns:cc="http://creativecommons.org/ns#" xmlns:xlink="http://www.w3.org/1999/xlink" xmlns:dc="http://purl.org/dc/elements/1.1/" xmlns:svg="http://www.w3.org/2000/svg" xmlns:ns1="http://sozi.baierouge.fr" id="svg2" sodipodi:docname="LCD_Plasma_TV.svg" viewBox="0 0 1052.4 744.09" version="1.1" inkscape:version="0.48.2 r9819">
  <title id="title5594">LCD, LED, Plasma TV. TV de plasma, LED, LCD.</title>
  <defs id="defs4">
    <linearGradient id="linearGradient5511">
      <stop id="stop5513" style="stop-color:#999999" offset="0"/>
      <stop id="stop5525" style="stop-color:#ffffff" offset=".28380"/>
      <stop id="stop5523" style="stop-color:#4d4d4d" offset=".50592"/>
      <stop id="stop5521" style="stop-color:#ffffff" offset=".75284"/>
      <stop id="stop5515" style="stop-color:#cccccc" offset="1"/>
    </linearGradient>
    <linearGradient id="linearGradient3007" y2="829.14" gradientUnits="userSpaceOnUse" x2="792.45" gradientTransform="translate(-7.6355 5.758)" y1="829.14" x1="45.29" inkscape:collect="always">
      <stop id="stop3021" style="stop-color:#000000" offset="0"/>
      <stop id="stop3023" style="stop-color:#808080" offset=".16836"/>
      <stop id="stop3025" style="stop-color:#1a1a1a" offset=".37623"/>
      <stop id="stop3027" style="stop-color:#808080" offset=".56544"/>
      <stop id="stop3029" style="stop-color:#333333" offset=".77198"/>
      <stop id="stop3031" style="stop-color:#ffffff;stop-opacity:0" offset="1"/>
    </linearGradient>
    <linearGradient id="linearGradient3017" y2="389.76" gradientUnits="userSpaceOnUse" x2="387.67" gradientTransform="translate(-7.0488)" y1="813.52" x1="387.67" inkscape:collect="always">
      <stop id="stop3003" style="stop-color:#333333" offset="0"/>
      <stop id="stop3015" style="stop-color:#999999;stop-opacity:0" offset=".13283"/>
      <stop id="stop3013" style="stop-color:#1a1a1a" offset=".37623"/>
      <stop id="stop3011" style="stop-color:#333333" offset=".62541"/>
      <stop id="stop3009" style="stop-color:#666666" offset=".77198"/>
      <stop id="stop3005" style="stop-color:#ffffff;stop-opacity:0" offset="1"/>
    </linearGradient>
    <linearGradient id="linearGradient3039" y2="357.44" gradientUnits="userSpaceOnUse" x2="42.007" gradientTransform="translate(-7.0489)" y1="861.39" x1="44.184" inkscape:collect="always">
      <stop id="stop3035" style="stop-color:#000000" offset="0"/>
      <stop id="stop3839" style="stop-color:#333333" offset=".27620"/>
      <stop id="stop3837" style="stop-color:#000000" offset=".55240"/>
      <stop id="stop3833" style="stop-color:#666666" offset=".81964"/>
      <stop id="stop3037" style="stop-color:#000000" offset="1"/>
    </linearGradient>
    <filter id="filter5448" height="3.16" width="3.16" y="-1.08" x="-1.08" inkscape:collect="always">
      <feGaussianBlur id="feGaussianBlur5450" stdDeviation="36" inkscape:collect="always"/>
    </filter>
    <linearGradient id="linearGradient5460" y2="882.11" gradientUnits="userSpaceOnUse" x2="468.2" gradientTransform="translate(-7.0489)" y1="882.11" x1="366.27" inkscape:collect="always">
      <stop id="stop5456" style="stop-color:#333333" offset="0"/>
      <stop id="stop5462" style="stop-color:#999999" offset=".19099"/>
      <stop id="stop5464" style="stop-color:#333333" offset=".31457"/>
      <stop id="stop5466" style="stop-color:#cccccc" offset=".47172"/>
      <stop id="stop5468" style="stop-color:#666666" offset=".61803"/>
      <stop id="stop5470" style="stop-color:#4d4d4d" offset=".76395"/>
      <stop id="stop5472" style="stop-color:#b3b3b3" offset=".91012"/>
      <stop id="stop5458" style="stop-color:#4d4d4d" offset="1"/>
    </linearGradient>
    <linearGradient id="linearGradient5482" y2="910.92" gradientUnits="userSpaceOnUse" x2="818.8" gradientTransform="matrix(.62577 0 0 1.2255 148.73 -204.88)" y1="910.92" x1="20.188" inkscape:collect="always">
      <stop id="stop5478" style="stop-color:#aaffee" offset="0"/>
      <stop id="stop5484" style="stop-color:#55ffdd" offset=".16795"/>
      <stop id="stop5486" style="stop-color:#aaffee" offset=".27033"/>
      <stop id="stop5488" style="stop-color:#00d4aa" offset=".41309"/>
      <stop id="stop5490" style="stop-color:#55ffdd" offset=".59767"/>
      <stop id="stop5492" style="stop-color:#aaffee" offset=".71880"/>
      <stop id="stop5494" style="stop-color:#00d4aa" offset=".83992"/>
      <stop id="stop5480" style="stop-color:#aaffee" offset="1"/>
    </linearGradient>
    <linearGradient id="linearGradient5517" y2="475.55" xlink:href="#linearGradient5511" gradientUnits="userSpaceOnUse" x2="561.9" y1="475.55" x1="308.19" inkscape:collect="always"/>
    <linearGradient id="linearGradient5566" y2="334.41" gradientUnits="userSpaceOnUse" x2="195.95" y1="785.87" x1="464.01" inkscape:collect="always">
      <stop id="stop5570" style="stop-color:#ffffff" offset="0"/>
      <stop id="stop5572" style="stop-color:#000000;stop-opacity:0" offset="1"/>
    </linearGradient>
    <filter id="filter5574" inkscape:collect="always">
      <feGaussianBlur id="feGaussianBlur5576" stdDeviation="1.3897203" inkscape:collect="always"/>
    </filter>
  </defs>
  <sodipodi:namedview id="base" inkscape:zoom="0.63792251" borderopacity="1.0" inkscape:current-layer="layer1" inkscape:cx="412.48409" inkscape:cy="431.0424" inkscape:object-paths="true" inkscape:window-maximized="1" inkscape:snap-bbox="true" showgrid="false" inkscape:snap-nodes="true" inkscape:snap-global="false" inkscape:document-units="px" bordercolor="#666666" inkscape:window-x="54" inkscape:window-y="-8" inkscape:snap-smooth-nodes="false" inkscape:object-nodes="false" inkscape:window-width="1304" inkscape:pageopacity="0.0" inkscape:pageshadow="2" pagecolor="#ffffff" inkscape:window-height="746"/>
  <g id="layer1" inkscape:label="Capa 1" inkscape:groupmode="layer" transform="translate(0 -308.27)">
    <g id="g5578">
      <rect id="rect5474" style="stroke:#d5fff6;stroke-width:.87573;fill:url(#linearGradient5482)" height="6.9327" width="499.12" y="908.02" x="161.67"/>
      <rect id="rect2987" style="fill:url(#linearGradient3039)" height="478.03" width="768" y="378.08" x="27.237"/>
      <rect id="rect2985" style="stroke:#000000;stroke-width:.67570;fill:url(#linearGradient3017)" height="417" width="741.34" y="385.58" x="40.568"/>
      <rect id="rect2989" style="fill:#000000" height="404.86" width="719.75" y="391.65" x="51.36"/>
      <rect id="rect2991" style="stroke:#000002;stroke-width:.63553;fill:url(#linearGradient3007)" height="24.733" width="746.53" y="822.53" x="37.972"/>
      <path id="path3890" sodipodi:rx="40" sodipodi:ry="40" style="opacity:.47737;filter:url(#filter5448);fill:#999999" sodipodi:type="arc" d="m654 312.09a40 40 0 1 1 -80 0 40 40 0 1 1 80 0z" transform="translate(12 332.27)" sodipodi:cy="312.09448" sodipodi:cx="614"/>
      <rect id="rect5452" style="stroke:#000000;stroke-width:.48315;fill:url(#linearGradient5460)" height="51.79" width="90.983" y="856.11" x="365.75"/>
      <g id="text5496" style="fill:url(#linearGradient5517)" transform="matrix(.25048 0 0 .25048 302.27 693.54)">
        <path id="path5501" d="m342.54 499.95h-23.401v-48.817h24.337c4.56 0.00005 8.3042 0.98442 11.232 2.9531 3.3588 2.2559 5.0383 5.5437 5.0383 9.8635-0.00004 4.6553-2.6397 8.1116-7.9189 10.369 6.3354 1.8238 9.5031 5.8316 9.5032 12.023-0.00004 4.8003-2.0398 8.376-6.1194 10.727-3.312 1.9204-7.5359 2.8806-12.672 2.8806zm0.79102-45.433h-20.52v18.36h20.448c3.5522 0.00003 6.4804-0.69577 8.7847-2.0874 2.688-1.6318 4.0319-4.032 4.032-7.2004-0.00004-3.1684-1.3916-5.5444-4.1748-7.1279-2.2574-1.2963-5.1138-1.9445-8.5693-1.9446zm-0.21533 21.744h-20.305v20.305h20.593c3.9843 0.00001 7.248-0.7683 9.791-2.3049 3.0249-1.7754 4.5373-4.3909 4.5374-7.8464-0.00004-3.6972-1.6084-6.4094-4.8252-8.1365-2.4961-1.3447-5.7598-2.0171-9.791-2.0171z" style="fill:url(#linearGradient5517)" inkscape:connector-curvature="0"/>
        <path id="path5503" d="m398.38 476.12c5.039 1.9673 7.5586 5.7832 7.5586 11.448v12.384h-3.6716v-12.241c-0.00004-6.3838-4.4642-9.5757-13.392-9.5757h-19.224v21.817h-3.6716v-48.817h23.544c11.424 0.00005 17.136 4.2723 17.136 12.817-0.00004 5.9517-2.7598 10.008-8.2793 12.168zm-8.7122-21.601h-20.017v20.09h18.866c4.1279 0.00003 7.4399-0.76828 9.936-2.3049 3.0234-1.8237 4.5351-4.5359 4.5352-8.1365-0.00004-6.4321-4.44-9.6481-13.32-9.6482z" style="fill:url(#linearGradient5517)" inkscape:connector-curvature="0"/>
        <path id="path5505" d="m452.28 499.95-6.9829-15.337h-26.064l-7.1279 15.337h-4.177l22.896-48.817h3.3838l22.104 48.817zm-19.727-43.488-11.736 24.697h22.968z" style="fill:url(#linearGradient5517)" inkscape:connector-curvature="0"/>
        <path id="path5507" d="m497.19 499.95-35.424-43.343v43.343h-3.6716v-48.817h3.8166c4.1279 5.2325 10.032 12.456 17.712 21.672 8.3042 9.8892 14.208 17.041 17.712 21.456v-43.128h3.6716v48.817z" style="fill:url(#linearGradient5517)" inkscape:connector-curvature="0"/>
        <path id="path5509" d="m523.95 499.95h-16.921v-48.817h19.657c8.0156 0.00005 14.112 2.1841 18.288 6.5522 3.9843 4.2246 5.9765 10.2 5.9766 17.927-0.00005 7.9688-2.5445 14.089-7.6333 18.36-4.752 3.9844-11.208 5.9766-19.367 5.9766zm18.36-39.817c-3.5039-3.7441-8.7364-5.6162-15.697-5.6162h-15.913v42.049h13.465c7.2964 0.00001 12.973-1.7761 17.029-5.3284 4.0561-3.5522 6.0842-8.7605 6.0842-15.625-0.00004-6.8159-1.656-11.976-4.968-15.48z" style="fill:url(#linearGradient5517)" inkscape:connector-curvature="0"/>
      </g>
      <path id="path5555" d="m52.943 393.21v114.83c40.855 12.232 87.719 19.18 137.53 19.18 144.05 0 263.34-58.145 284.34-134.01h-421.88z" style="filter:url(#filter5574);opacity:.54733;fill:url(#linearGradient5566)" inkscape:connector-curvature="0"/>
    </g>
  </g>
  <metadata>
    <rdf:RDF>
      <cc:Work>
        <dc:format>image/svg+xml</dc:format>
        <dc:type rdf:resource="http://purl.org/dc/dcmitype/StillImage"/>
        <cc:license rdf:resource="http://creativecommons.org/licenses/publicdomain/"/>
        <dc:publisher>
          <cc:Agent rdf:about="http://openclipart.org/">
            <dc:title>Openclipart</dc:title>
          </cc:Agent>
        </dc:publisher>
        <dc:title>LCD, LED, Plasma TV. TV de plasma, LED, LCD.</dc:title>
        <dc:date>2012-05-24T13:04:38</dc:date>
        <dc:description>LCD, LED, Plasma TV with glass base. TV de plasma, LED, LCD con base de vidrio.</dc:description>
        <dc:source>https://openclipart.org/detail/170186/lcd-led-plasma-tv.-tv-de-plasma-led-lcd.-by-ehecatl1138</dc:source>
        <dc:creator>
          <cc:Agent>
            <dc:title>Ehecatl1138</dc:title>
          </cc:Agent>
        </dc:creator>
        <dc:subject>
          <rdf:Bag>
            <rdf:li>Full-HD base</rdf:li>
            <rdf:li>HD</rdf:li>
            <rdf:li>Hi-Definition</rdf:li>
            <rdf:li>alta-definicion</rdf:li>
            <rdf:li>glass</rdf:li>
            <rdf:li>lcd</rdf:li>
            <rdf:li>led</rdf:li>
            <rdf:li>monitor</rdf:li>
            <rdf:li>set</rdf:li>
            <rdf:li>television</rdf:li>
            <rdf:li>tv</rdf:li>
            <rdf:li>vidrio</rdf:li>
          </rdf:Bag>
        </dc:subject>
      </cc:Work>
      <cc:License rdf:about="http://creativecommons.org/licenses/publicdomain/">
        <cc:permits rdf:resource="http://creativecommons.org/ns#Reproduction"/>
        <cc:permits rdf:resource="http://creativecommons.org/ns#Distribution"/>
        <cc:permits rdf:resource="http://creativecommons.org/ns#DerivativeWorks"/>
      </cc:License>
    </rdf:RDF>
  </metadata>
</svg>