<?xml version="1.0" encoding="UTF-8" standalone="no"?>
<!-- Created with Inkscape (http://www.inkscape.org/) -->
<svg width="281.20078mm" height="271.41214mm" viewBox="0 0 281.20078 271.41214" version="1.1" id="svg88815" inkscape:version="1.2 (dc2aedaf03, 2022-05-15)" sodipodi:docname="Engine.svg" xmlns:inkscape="http://www.inkscape.org/namespaces/inkscape" xmlns:sodipodi="http://sodipodi.sourceforge.net/DTD/sodipodi-0.dtd" xmlns="http://www.w3.org/2000/svg" xmlns:svg="http://www.w3.org/2000/svg" xmlns:rdf="http://www.w3.org/1999/02/22-rdf-syntax-ns#" xmlns:cc="http://creativecommons.org/ns#" xmlns:dc="http://purl.org/dc/elements/1.1/">
  <title id="title93633">Old car engine</title>
  <sodipodi:namedview id="namedview88817" pagecolor="#505050" bordercolor="#eeeeee" borderopacity="1" inkscape:showpageshadow="0" inkscape:pageopacity="0" inkscape:pagecheckerboard="0" inkscape:deskcolor="#505050" inkscape:document-units="mm" showgrid="false" inkscape:zoom="0.5946522" inkscape:cx="563.35451" inkscape:cy="443.95699" inkscape:window-width="1920" inkscape:window-height="1057" inkscape:window-x="1912" inkscape:window-y="-8" inkscape:window-maximized="1" inkscape:current-layer="layer1"/>
  <defs id="defs88812"/>
  <g inkscape:label="Calque 1" inkscape:groupmode="layer" id="layer1" transform="translate(40.489353,13.793077)">
    <g id="g88799" transform="translate(120.65451,563.9842)">
      <path id="path88284" style="fill:#b4c9cc;fill-opacity:1;stroke-width:21.861;paint-order:markers fill stroke;stop-color:#000000" d="m -24.952813,-547.36273 c -1.31499,0 -2.37349,1.05868 -2.37349,2.3735 v 1.07487 h -28.58741 c -2.37239,0 -4.35691,1.59927 -4.9413,3.7822 h -1.39888 c -5.11478,0 -9.23251,4.11797 -9.23251,9.23251 v 11.23446 c 0,3.15619 1.56958,5.93139 3.97237,7.59488 -4.84039,-2.71351 -10.51013,-5.53202 -17.10852,-8.23412 -3.45308,-1.41413 -9.27044,-2.27632 -15.22233,-2.27531 h -5.1e-4 c -0.396687,8e-5 -0.793227,0.004 -1.190627,0.0119 -2.11879,0.0418 -4.23568,0.19504 -6.25078,0.47439 -3.84149,0.53254 -7.30953,1.46085 -9.67073,3.57343 -3.52469,1.13111 -6.55114,2.67117 -8.62634,4.85448 -1.31648,1.38498 -2.23952,3.11479 -2.3766,5.04879 -0.1341,1.89207 0.48788,3.85263 1.74718,5.7428 l -0.0961,0.0553 c -0.9073,0.52378 -1.21523,1.6761 -0.69143,2.58331 l 1.17202,2.03088 c -8.95297,7.84614 -12.38718,19.03375 -7.61969,27.29084 l 27.23451,47.17128 c -0.5428,3.50646 -0.37993,7.14661 0.57155,10.70323 2.80019,10.42601 11.746177,18.04183 22.485447,19.14198 l 11.43341,9.9658 v 16.14527 c 0,3.12722 2.51742,5.64462 5.64461,5.64462 h 1.33222 l 1.36581,11.81943 c 0.8613,7.45243 6.03984,13.54233 13.54232,13.54233 H 8.7474562 c 7.5024808,0 12.6810308,-6.0899 13.5423308,-13.54233 l 1.36581,-11.81943 h 1.33222 c 3.12718,0 5.64461,-2.5174 5.64461,-5.64462 v -12.35429 l 9.34413,-6.55877 c 6.18639,0.171 12.1789,-2.54705 16.12408,-7.46983 4.39459,-5.48345 5.56575,-12.85021 3.14865,-19.39416 l 33.11167,-57.35051 c 4.76749,-8.25709 1.33623,-19.4447 -7.61969,-27.29084 l 1.17254,-2.03088 c 0.52379,-0.90721 0.21525,-2.05953 -0.69195,-2.58331 l -0.0956,-0.0553 c 1.25919,-1.89017 1.88542,-3.85073 1.75132,-5.7428 -0.1371,-1.934 -1.06382,-3.66381 -2.38022,-5.04879 -2.07529,-2.18331 -5.10011,-3.72337 -8.6248,-4.85448 -2.36119,-2.11258 -5.82929,-3.04089 -9.66969,-3.57343 -2.01509,-0.27935 -4.13188,-0.43255 -6.25078,-0.47439 -0.3972,-0.008 -0.79713,-0.0118 -1.19373,-0.0119 -5.94998,-10e-4 -11.76674,0.86118 -15.21974,2.27531 -6.59417,2.70037 -12.26103,5.51696 -17.09921,8.22895 2.39859,-1.66412 3.96461,-4.43676 3.96461,-7.58971 v -11.23446 c 0,-5.11454 -4.11772,-9.23251 -9.23251,-9.23251 h -1.40095 c -0.5845,-2.18293 -2.56891,-3.7822 -4.9413,-3.7822 h -28.58533 v -1.07487 c 0,-1.31482 -1.06067,-2.3735 -2.37557,-2.3735 z m -75.118407,30.45344 c 5.276567,0.0153 10.252377,0.73338 13.457057,2.13631 10.02175,4.38793 17.96705,8.54335 23.93653,11.98014 -2.72159,2.34595 -4.65887,5.07918 -5.56246,8.05016 l -5.98361,-10.36423 c -3.37279,-5.84158 -10.0667,-8.86472 -17.68626,-8.77621 -5.21336,0.0606 -10.860487,1.57804 -16.173167,4.6452 l -2.18126,1.25935 -0.95188,-1.64899 c -0.5238,-0.9072 -1.67611,-1.21622 -2.58331,-0.69247 l -0.0951,0.0548 c -0.032,-0.0465 -0.0529,-0.0778 -0.0847,-0.12506 -0.9854,-1.44389 -1.29135,-2.51799 -1.29295,-3.22461 0,-0.54909 0.12594,-0.94925 0.45424,-1.37149 0.56857,-0.1708 1.15301,-0.33185 1.75441,-0.48007 3.816,-0.94062 8.23313,-1.41818 12.4809,-1.44229 0.1708,-9.7e-4 0.34139,-10e-4 0.51159,-5.2e-4 z m 159.060057,0 c 0.1702,-4.8e-4 0.3408,-4.5e-4 0.5116,5.2e-4 h 5.1e-4 c 4.25059,0.024 8.66619,0.49726 12.48038,1.42937 0.6013,0.14687 1.18581,0.30615 1.75441,0.47542 0.3283,0.41844 0.45424,0.81495 0.45424,1.35909 0,0.70027 -0.30756,1.76477 -1.29294,3.19567 -0.032,0.0468 -0.05275,0.0779 -0.08475,0.12403 l -0.09509,-0.0543 c -0.90719,-0.51901 -2.0595,-0.21276 -2.5833,0.68626 l -0.95137,1.63401 c -6.34107,-2.84395 -12.6332,-5.75963 -18.35443,-5.85133 -7.61897,-0.1221 -14.314,2.90826 -17.68678,8.69715 l -5.98361,10.27069 c -0.9036,-2.94416 -2.84035,-5.65253 -5.56194,-7.97729 5.96958,-3.40582 13.91328,-7.52378 23.93653,-11.87215 3.20447,-1.3902 8.18008,-2.10198 13.45654,-2.11718 z m 19.19056,3.61632 h 5.2e-4 c 1.4679,0.72634 2.64713,1.52061 3.42253,2.32906 0.8429,0.87867 1.22474,1.68671 1.28674,2.55281 0.062,0.8661 -0.19483,1.92141 -1.14412,3.30006 -0.032,0.047 -0.05274,0.0781 -0.08474,0.12454 l -0.09406,-0.0538 c -0.9073,-0.51903 -2.05898,-0.21271 -2.58278,0.68627 l -0.83148,1.42678 -2.03347,-1.16375 0.95188,-1.63401 c 0.5238,-0.89898 0.21526,-2.04097 -0.69194,-2.56005 l -0.09612,-0.0548 c 1.1455,-1.69498 1.81404,-3.33586 1.89704,-4.95318 z m -197.441687,0.0331 c 0.083,1.63208 0.75207,3.28774 1.89755,4.99815 l -0.0956,0.0553 c -0.9072,0.5238 -1.21626,1.67613 -0.69246,2.5833 l 0.95188,1.649 -2.03347,1.17409 -0.83096,-1.43971 c -0.5238,-0.90719 -1.6755,-1.21621 -2.58278,-0.69246 l -0.0941,0.0543 c -0.032,-0.0467 -0.0533,-0.0781 -0.0853,-0.12558 -0.9493,-1.39119 -1.20612,-2.45604 -1.14412,-3.33002 0.062,-0.87398 0.44395,-1.6894 1.28675,-2.57607 0.77548,-0.81581 1.95463,-1.6173 3.42253,-2.35025 z m 144.163287,1.99523 c -3.08909,1.76589 -5.80167,3.47367 -8.14886,5.05809 -3.74357,-2.0297 -8.2570108,-3.51872 -13.2364008,-4.28398 H 21.172027 c 1.3289,0 2.58938,-0.27745 3.72897,-0.77411 z m -90.89161,0.047 c 1.1416,0.50335 2.40472,0.78497 3.73672,0.78497 h 17.65474 c -4.97939,0.77223 -9.49283,2.27507 -13.2364,4.32325 -2.3487,-1.5999 -5.06606,-3.32498 -8.15506,-5.10822 z"/>
      <path id="path5060-7" style="fill:#1b2427;fill-opacity:1;stroke-width:21.861;paint-order:markers fill stroke;stop-color:#000000" d="m -24.952884,-547.3627 c -1.315,0 -2.3735,1.05868 -2.3735,2.3735 v 1.07487 h -28.5874 c -2.3724,0 -4.3569,1.59927 -4.9413,3.7822 h -1.3989 c -5.1148,0 -9.2325,4.11795 -9.2325,9.23251 v 11.23446 c 0,3.15619 1.5696,5.93137 3.9724,7.59488 -4.8404,-2.71354 -10.5101,-5.53202 -17.1085,-8.23412 -3.4531,-1.41413 -9.2705,-2.27632 -15.2224,-2.27531 h -5e-4 c -0.396696,8e-5 -0.793196,0.004 -1.190596,0.0119 -2.1188,0.0418 -4.2357,0.19504 -6.2508,0.47439 -3.8415,0.53254 -7.3095,1.46084 -9.6707,3.57342 -3.5247,1.13111 -6.5512,2.67118 -8.6264,4.85449 -1.3165,1.38498 -2.2395,3.11478 -2.3766,5.04878 -0.1341,1.89207 0.4879,3.85263 1.7472,5.7428 l -0.096,0.0553 c -0.9073,0.5238 -1.2157,1.6761 -0.6919,2.58331 l 1.1725,2.03088 c -8.953,7.84614 -12.3872,19.03372 -7.6197,27.29084 l 27.6417,47.87665 c 0.3878,-0.84486 0.9391,-2.01029 1.4671,-3.12849 l -25.6754,-43.95441 c 0.3285,-2.36557 17.7334,26.83828 23.5045,36.60242 0.1826,-0.37858 0.3951,-0.79792 0.586,-1.18907 -1.1862,-2.04551 -19.0417,-32.84563 -21.624,-37.79511 -2.6697,-5.11664 -5.0228,-9.48223 1.9833,-15.71119 0.5651,-0.50229 1.206,-1.02998 1.8992,-1.57251 -0.1001,-0.5907 -0.1984,-1.24699 -0.2744,-1.77354 -2.3947,2.17467 -4.3051,4.23611 -5.2964,5.80895 -2.4864,3.94512 -2.2701,6.77664 -2.8256,6.74222 -0.4367,-0.0271 0.05,-4.64129 1.3394,-7.00009 2.8315,-5.89893 14.2368,-14.52754 21.5517,-18.19682 4.5229,-2.26877 12.003896,-6.89626 18.772996,-6.85901 0.4513,0.002 0.8992,0.0253 1.3431,0.0713 3.6662,0.38017 8.0065,2.32962 10.7047,4.88291 2.2481,2.12734 5.8713,9.33034 7.6497,12.41061 1.0427,1.80594 -0.8966,0.84129 -0.8966,0.84129 0,0 -2.2925,0.52676 -4.1796,-0.0987 -1.5351,-0.50879 -2.6024,-2.31211 -3.5651,-1.47381 -1.1529,1.00378 -2.5508,1.30552 -1.5844,-0.25528 1.1153,-1.80174 1.3539,-4.12827 1.1813,-4.42712 -0.6641,-1.1503 -1.7286,-1.13436 -2.0423,-0.32712 -0.427,1.099 -2.1613,3.18438 -3.5744,4.4602 -0.5489,0.49558 -1.2975,0.10179 -1.4754,-0.24081 2.9631,-2.65794 2.6903,-6.30087 2.4862,-6.31952 -0.044,-0.004 -0.091,0.0513 -0.1339,0.17415 -0.2664,0.7568 -0.6388,1.47906 -1.5451,2.05569 -2.0842,1.3263 -4.9481,-0.01 -6.8125,0.33435 -4.1678,0.76945 -16.903796,8.9747 -22.114896,15.63264 -0.4882,0.62377 1.1448,0.21145 3.6122,-0.77153 7.1634,-2.85443 19.105996,-9.51769 17.834996,-8.57622 -1.5016,1.11231 -16.330996,12.12567 -22.191396,13.38471 0,9.9e-4 -0.014,0.002 -0.014,0.003 -3.1049,1.16085 -7.474,1.03077 -6.9216,1.98747 0.4184,0.72471 1.9846,1.43339 3.6592,2.25878 l 6e-4,-5.2e-4 c 0,3.7e-4 -5e-4,6.9e-4 0,10e-4 0.1521,0.075 0.3036,0.15188 0.4568,0.22893 5.0534,1.51601 30.642896,-15.04607 29.123796,-13.24673 -1.4321,1.69626 -25.648896,16.38551 -28.965196,15.57269 -5.2694,-1.29155 -2.6727,0.46086 1.1343,2.64531 5.3912,2.52451 31.296396,-14.59371 30.390896,-13.87047 -1.9202,1.53371 -20.187696,15.23213 -28.120696,16.58401 -2.5224,0.42984 -2.5889,0.1413 -2.7926,0 -2.7141,-1.88307 0.6614,3.90098 4.8333,5.01881 1.0224,0.27393 2.3782,2.2347 3.7966,4.90255 11.615796,-1.19858 26.721796,-16.35637 40.188296,-24.95766 0,0 -12.537,9.30934 -13.6354,11.77861 -0.6104,1.37206 -2.0208,2.1417 -6.3071,5.97277 -1.7897,1.59964 9.5973,-5.18187 10.4872,-5.84926 0.6088,-0.45657 -12.866,10.14977 -20.5491,18.1715 -0.7446,0.77746 -2.613896,3.74638 -3.549096,5.2772 -1.1584,1.89617 -0.7359,4.05312 -0.1302,5.60121 1.5201,-2.84654 3.070596,-5.53838 4.451896,-7.49877 4.8766,-6.92138 2.8898,-8.26245 15.4745,-7.94783 12.5848,0.31462 20.748,1.49516 24.3246,-0.70384 6.2812,-3.86182 25.956,-5.50612 25.956,-5.50612 -13.0701,1.33477 -23.4335,10.84731 -31.8161,11.52333 -7.3149,0.58988 -22.7312,-3.93282 -26.3886,0.15709 -0.7583,0.84798 -3.5818,5.82759 -6.7675,11.62617 -7.641396,6.51198 -10.856096,16.83881 -8.261496,26.5374 2.8002,10.42604 11.746096,18.04183 22.485396,19.14198 l 11.4334,9.9658 v 16.14539 c 0,3.12722 2.5174,5.64462 5.6446,5.64462 h 1.3323 l 1.3658,11.81943 c 0.8613,7.45245 6.0398,13.54233 13.5423,13.54233 H 8.7474156 c 7.5025004,0 12.6810004,-6.08988 13.5423004,-13.54233 l 1.3658,-11.81943 h 1.3322 c 3.1272,0 5.6446,-2.5174 5.6446,-5.64462 v -12.35428 l 9.3442,-6.55877 c 6.1864,0.171 12.1789,-2.54705 16.1241,-7.46983 4.3946,-5.48348 5.5657,-12.85019 3.1486,-19.39417 l 33.11174,-57.35051 c 4.7675,-8.25712 1.3362,-19.4447 -7.61974,-27.29084 l 1.1725,-2.03088 c 0.5238,-0.90721 0.2153,-2.05951 -0.6919,-2.58331 l -0.096,-0.0553 c 1.2592,-1.89017 1.8859,-3.85073 1.7518,-5.7428 -0.1371,-1.934 -1.0643,-3.6638 -2.3807,-5.04878 -2.0753,-2.18331 -5.1001,-3.72338 -8.6248,-4.85449 -2.3612,-2.11258 -5.8288,-3.04088 -9.6692,-3.57342 -2.0151,-0.27935 -4.1319,-0.43255 -6.2508,-0.47439 -0.3972,-0.008 -0.7976,-0.0118 -1.1942,-0.0119 -5.95,-10e-4 -11.7663,0.86118 -15.2193,2.27531 -6.5942,2.70037 -12.261,5.51696 -17.0992,8.22896 2.3986,-1.66413 3.9646,-4.43677 3.9646,-7.58972 v -11.23446 c 0,-5.11456 -4.1177,-9.23251 -9.2325,-9.23251 h -1.4014 c -0.5845,-2.18293 -2.5689,-3.7822 -4.9413,-3.7822 h -28.5849 v -1.07487 c 0,-1.31482 -1.0611,-2.3735 -2.376,-2.3735 z m 1.3322,1.63918 h 2.9027 c 0,0.76244 -0.6367,0.92878 -0.8568,1.03766 -0.3462,0.17128 -0.7971,0.39638 -0.8191,0.77153 h -3.2287 c 0,-1.45359 0.5853,-1.80919 2.0019,-1.80919 z m -31.087,3.7822 H 2.9141156 c -1.2458,1.24575 -4.9853,1.80919 -9.3167,1.80919 H -57.099184 c 0,-0.82794 1.545,-1.80919 2.3915,-1.80919 z m -8.4191,3.90312 h 53.9367996 c -3.0399996,1.75507 -7.7758996,1.80919 -15.2310996,1.80919 h -41.0973 c 0.6594,-1.14206 2.3916,-1.80919 2.3916,-1.80919 z m -3.499,4.11758 h 1.8914 v 14.8456 c -0.3185,9e-4 -0.6212,0.004 -0.9457,0.004 h -0.9457 z m 8.3023,0 h 2.6696 v 14.67714 c -0.8599,0.0314 -1.7511,0.0585 -2.6696,0.0816 z m 8.3096,0 h 3.4504 v 14.13143 c -1.0789,0.0956 -2.234,0.18261 -3.4504,0.26252 z m 8.3003,0 h 4.2302 v 12.94494 c -1.2469,0.22811 -2.6448,0.45093 -4.2302,0.65888 z m 8.3101,0 h 5.01 v 10.7089 c -1.3503,0.3411 -2.8839,0.83129 -5.01,1.35961 z m 8.3101,0 h 5.78 v 10.84171 c -2.2048,-0.34218 -4.2481,-0.60461 -5.78,-0.60461 z m 8.5167,0 h 5.7801 v 12.17651 c -1.8026,-0.22995 -3.7969,-0.56196 -5.7801,-0.89193 z m 9.0800996,0 h 5.01 v 10.08982 c -0.7506,0.55166 -1.3937,1.14035 -1.9172,1.72031 -0.465,0.51521 -1.585,0.6862 -3.0928,0.65216 z m 9.0899,0 h 4.2297 v 7.42487 c -1.5553,0 -2.9653,0.23467 -4.2297,0.62063 z m 9.0801004,0 h 3.4499 v 6.0172 c -1.0496,0.54261 -2.2138,0.8771 -3.4499,1.08572 z m -110.744696,17.01136 c 5.276596,0.0153 10.252396,0.73338 13.457096,2.13631 10.0218,4.38797 17.967,8.54331 23.9365,11.98014 -2.7216,2.34595 -4.6589,5.07918 -5.5625,8.05016 l -5.9836,-10.36423 c -3.3728,-5.84162 -10.0666,-8.86472 -17.6862,-8.77621 -5.2134,0.0606 -10.860496,1.57804 -16.173196,4.6452 l -2.1813,1.25935 -0.9519,-1.64899 c -0.5238,-0.9072 -1.6761,-1.21622 -2.5833,-0.69247 l -0.095,0.0548 c -0.032,-0.0465 -0.053,-0.0778 -0.085,-0.12505 -0.9854,-1.44393 -1.2913,-2.51796 -1.2929,-3.22461 0,-0.54909 0.1259,-0.94926 0.4542,-1.3715 0.5686,-0.1708 1.153,-0.33185 1.7544,-0.48007 3.816,-0.94062 8.2331,-1.41818 12.4809,-1.44229 0.1708,-9.7e-4 0.3414,-10e-4 0.5116,-5.2e-4 z m 159.060096,0 c 0.1702,-4.9e-4 0.3408,-4.5e-4 0.5116,5.2e-4 h 5e-4 c 4.2506,0.0242 8.6661,0.5017 12.4803,1.44229 0.6013,0.14821 1.1859,0.30926 1.7545,0.48007 0.3283,0.42224 0.4542,0.82241 0.4542,1.37149 0,0.70666 -0.3075,1.78068 -1.2929,3.22461 -0.032,0.0472 -0.053,0.0786 -0.085,0.12506 l -0.095,-0.0548 c -0.9072,-0.52375 -2.0595,-0.21474 -2.5833,0.69246 l -0.9513,1.649 c -6.34111,-2.86986 -12.63324,-5.81203 -18.3545,-5.90455 -7.61902,-0.1232 -14.314,2.93458 -17.6868,8.77621 l -5.9836,10.36422 c -0.9036,-2.97097 -2.8403,-5.7042 -5.5619,-8.05015 5.9696,-3.43683 13.9132,-7.59217 23.9365,-11.98015 3.2045,-1.40287 8.1801,-2.12095 13.4566,-2.1363 z m -125.2616,0.26717 h 22.7624 c 1.2599,2.10909 2.2,2.35742 3.5031,2.87269 l -21.6906,0.11111 c -0.9769,0 -4.5749,-1.20386 -4.5749,-2.9838 z m -52.989596,3.38222 c 0.083,1.63208 0.7521,3.28774 1.8976,4.99815 l -0.096,0.0553 c -0.9072,0.5238 -1.2158,1.67612 -0.692,2.5833 l 0.9519,1.649 -2.0335,1.17408 -0.8314,-1.4397 c -0.5238,-0.90719 -1.6755,-1.21622 -2.5828,-0.69247 l -0.094,0.0543 c -0.032,-0.0467 -0.053,-0.0781 -0.085,-0.12557 -0.9493,-1.3912 -1.2061,-2.45604 -1.1441,-3.33003 0.062,-0.87398 0.4439,-1.68939 1.2867,-2.57607 0.7755,-0.81581 1.9546,-1.61729 3.4225,-2.35024 z m 197.441696,0 h 5e-4 c 1.4679,0.73296 2.6472,1.53444 3.4226,2.35025 0.8429,0.88668 1.2247,1.70209 1.2867,2.57607 0.062,0.87398 -0.1948,1.93882 -1.1441,3.33003 -0.032,0.0474 -0.053,0.0788 -0.085,0.12557 l -0.094,-0.0543 c -0.9073,-0.52375 -2.059,-0.21472 -2.5828,0.69246 l -0.8315,1.43971 -2.0334,-1.17409 0.9518,-1.649 c 0.5238,-0.90718 0.2153,-2.0595 -0.6919,-2.5833 l -0.096,-0.0553 c 1.1455,-1.71041 1.814,-3.36607 1.897,-4.99814 z m -144.17,2.04225 c 1.1416,0.50335 2.4047,0.78497 3.7367,0.78497 h 17.6548 c -4.9794,0.77223 -9.4928,2.27507 -13.2364,4.32325 -2.3487,-1.5999 -5.0661,-3.32498 -8.1551,-5.10822 z m 90.8916,0.004 c -3.0891,1.78198 -5.8016,3.50576 -8.1488,5.1046 -3.7436,-2.04818 -8.2570004,-3.55102 -13.2364004,-4.32325 H 21.171916 c 1.3289,0 2.5894,-0.28017 3.729,-0.78135 z m 24.8409,0.15038 v 0 h 0.01 c 6.7691,-0.0373 14.2509,4.59023 18.7735,6.85902 7.3149,3.6693 18.7192,12.29784 21.55074,18.19682 0,0 -1.1132,0.90306 -1.4857,0.25786 -0.99134,-1.57285 -2.90124,-3.63426 -5.29584,-5.80894 -0.076,0.52655 -0.1744,1.18282 -0.2745,1.77353 0.6932,0.54253 1.3335,1.07023 1.8986,1.57251 3.70854,3.29636 2.5763,4.60209 1.4118,6.97942 -0.6973,1.42344 -1.9154,3.63722 -4.5516,3.45974 -1.0475,-0.0705 -4.2231,-0.59841 -6.7138,-1.52962 0,-9.9e-4 -0.01,-0.002 -0.014,-0.003 -4.0997,-0.88077 -12.5161,-6.49172 -17.7606,-10.19059 -0.3496,-0.4695 -0.6187,-0.95187 -0.8351,-1.44126 3.8277,1.9781 9.7998,5.05467 14.2394,6.82336 2.4674,0.98298 4.1004,1.39531 3.6122,0.77153 -5.0182,-6.4116 -17.1563,-13.74463 -21.5951,-15.49673 -1.9056,-0.75219 -4.3979,-1.9266 -9.0113,-2.7001 -1.6445,-0.27573 -1.5236,-0.97996 -0.8405,-2.41142 0.8678,-1.81837 4.0898,-1.72852 5.8514,-1.75481 1.5617,-0.0233 7.6239,1.89848 9.8936,2.62679 l 1.4542,-1.99109 c -2.7771,-0.83871 -7.9218,-2.326 -9.9767,-2.32957 -2.5519,-0.005 -5.3037,0.35716 -7.0879,1.07383 0.3721,-0.7652 0.5174,-1.55629 0.031,-1.99884 -1.7378,-1.58099 3.29,-2.4509 5.379,-2.66754 0.4424,-0.0459 0.8877,-0.0687 1.3374,-0.0713 z m -93.2837,1.90738 h 11.1037 c 5.1685,0 7.7695,1.37769 7.7695,1.80868 h -26.3586 c 1.6848,-0.97275 6.2856,-1.80868 7.4854,-1.80868 z m -70.932696,1.02164 c -0.357,0.34773 0.6806,1.99471 0.6806,1.99471 l -1.7446,1.13378 -0.4563,-1.00252 c -0.3062,-0.67264 -0.388,-1.24822 1.5203,-2.12597 z m 21.084496,1.86759 c -2.0549,0.004 -4.5304,0.35812 -7.307496,1.19683 l 1.453596,1.99109 c 2.2697,-0.72831 4.2857,-1.14779 5.8477,-1.12448 1.7616,0.0263 3.9097,0.67814 6.1614,1.65209 0.9041,-1.99551 -1.5845,-3.72343 -6.1552,-3.71553 z m 59.3949,1.0728 h 8.7782 c 5.1685,0 7.7701,1.37764 7.7701,1.80868 h -28.7414 c 0.6594,-1.14206 7.177,-1.80868 12.1931,-1.80868 z m -70.765696,1.32757 c -0.9094,0.27011 -1.8928,0.65074 -2.926,1.12138 l 1.1845,2.59932 -0.01,0.007 c 1.1343,-0.53572 2.254,-1.03377 3.3461,-1.48621 z m 168.896596,0 -1.5947,2.24121 c 1.0921,0.45244 2.2117,0.95048 3.346,1.48621 l -0.01,-0.007 1.1845,-2.59932 c -1.033,-0.47056 -2.0162,-0.85128 -2.9255,-1.12138 z m -187.832396,1.33067 c -0.3073,0.36551 0.9472,1.9606 0.9472,1.9606 l -1.5782,1.22112 -0.5901,-0.98031 c -0.3956,-0.65738 -0.5549,-1.22863 1.2211,-2.20141 z m 91.127196,1.3131 v 0 c 8.8321,10e-4 17.6046,0.0346 17.6046,0.0346 0,0 10.4215996,0.73561 10.4215996,2.16317 -7.0011996,0.114 -23.0067996,0.0622 -33.4837996,0.0253 -6e-4,3.3e-4 -9e-4,10e-4 0,10e-4 -4.062,2.22415 -5.3371,17.76533 -5.3371,17.76533 0,0 -2.4459,-13.34559 0.9415,-15.11071 -2.0761,-0.007 -1.6897,-0.03 -2.6608,-0.015 -5.3874,0.0832 -8.964,5.5972 -19.4324,7.20524 4.4022,-6.92129 9.3617,-11.95575 19.2701,-12.0344 2.4772,-0.0197 5.6083,-0.0294 8.9111,-0.0331 1.2387,-10e-4 2.5018,-0.002 3.7636,-0.002 z m -66.397,0.10748 c -0.074,-0.001 -0.1961,0.0252 -0.3731,0.0842 -2.831596,0.94383 -16.833196,9.12423 -22.731396,13.60744 -3.6968,2.20228 11.1691,-4.79803 12.8209,-6.05648 1.5484,-1.17979 11.392196,-7.6133 10.283596,-7.63519 z m 157.3078,0 c -1.1086,0.0219 8.7346,6.4554 10.283,7.6352 1.6518,1.25845 16.5178,8.25877 12.821,6.05647 -5.8987,-4.48324 -19.8993,-12.6636 -22.7309,-13.60743 -0.177,-0.059 -0.2992,-0.0857 -0.3731,-0.0842 z m -169.572596,0.21239 c -0.9546,0.55034 -1.9262,1.14876 -2.8996,1.78336 l 0.9994,2.42362 c 1.0025,-0.56836 2.0204,-1.12181 3.0407,-1.65726 z m 181.837396,0 -1.1405,2.54972 c 1.0203,0.53546 2.0377,1.0889 3.0402,1.65726 l 0.9999,-2.42362 c -0.9734,-0.63461 -1.945,-1.23302 -2.8996,-1.78336 z m -70.02050044,4.02095 c 3.53810004,0.002 1.54940004,6.98046 1.53320004,6.87141 -0.09,-0.60194 -0.9697,-4.76602 -1.99830004,-6.79597 0.1662,-0.0511 0.3211,-0.0755 0.4651,-0.0755 z m -118.00519556,0.0382 c -0.8541,0.62239 -1.6947,1.26015 -2.513,1.90531 l 0.3405,2.22157 c 0.9343,-0.62597 1.9156,-1.25643 2.9285,-1.88309 l -0.04,0.0238 -0.7203,-2.24534 0.01,-0.0222 z m 194.208796,0 0.01,0.0222 -0.7208,2.24534 -0.04,-0.0238 c 1.0129,0.62666 1.9942,1.25711 2.9285,1.88309 l 0.3405,-2.22157 c -0.8183,-0.64517 -1.6589,-1.28292 -2.513,-1.90531 z m -103.3404,4.38629 h 12.0163 c 1.3558,0 2.0041,1.1657 2.4474,2.44688 0.2867,0.82868 0.821,3.48746 -1.5741,1.57613 -1.3603,-1.08562 -4.4904,0.48947 -7.413,0.81132 -3.6558,0.40259 -5.6061,4.14212 -10.1709,9.87382 -1.2319,1.63455 -2.3117,1.04932 -1.8686,-0.24443 l 4.116,-12.01684 c 0.4393,-1.28256 1.0912,-2.44688 2.4469,-2.44688 z m -27.8051,4.3832 c 1.597,1.6e-4 2.8917,1.29481 2.8919,2.89181 1e-4,1.59716 -1.2947,2.89217 -2.8919,2.89233 -1.5974,1.1e-4 -2.8924,-1.29497 -2.8923,-2.89233 2e-4,-1.59719 1.2951,-2.89192 2.8923,-2.89181 z m 67.8527,0 c 1.5972,-1.1e-4 2.8922,1.29462 2.8924,2.89181 10e-5,1.59736 -1.295,2.89244 -2.8924,2.89233 -1.5972,-1.6e-4 -2.8919,-1.29517 -2.8918,-2.89233 2e-4,-1.597 1.2948,-2.89165 2.8918,-2.89181 z m 45.5228,5.49217 c 7.2528,4.02298 19.0991,9.30619 21.8612,8.47752 0.1532,-0.077 0.3053,-0.15393 0.4574,-0.22893 1.2805,1.47226 -0.6155,2.55488 -0.6155,2.55488 -1.5937,0.39063 -11.0086,-3.52733 -17.4077,-7.13444 -1.2021,-1.20947 -3.1555,-2.57645 -4.2954,-3.66903 z m -30.7211,0.40307 c 13.4664,8.60135 31.4804,26.10184 36.5968,31.37381 0.4419,1.14246 -1.2344,5.4195 -2.5529,8.46511 0.3536,-1.38154 0.4103,-3.01377 -0.4904,-4.4881 -0.9352,-1.53082 -2.804,-4.49973 -3.5486,-5.27719 -7.683,-8.02179 -21.1579,-18.62808 -20.5491,-18.17151 0.8899,0.6674 12.2769,7.44891 10.4872,5.84926 -4.2863,-3.83109 -5.6967,-4.60069 -6.3071,-5.97277 -1.0984,-2.46928 -13.6359,-11.77861 -13.6359,-11.77861 z m -115.4131,4.06022 c 1.1978,1.5e-4 2.1688,0.97114 2.1689,2.16886 2e-4,1.19793 -0.9709,2.16923 -2.1689,2.16938 -1.198,-10e-5 -2.169,-0.97141 -2.1688,-2.16938 1e-4,-1.19776 0.971,-2.16876 2.1688,-2.16886 z m 133.1469,0 c 1.1978,1.5e-4 2.1688,0.97114 2.1689,2.16886 2e-4,1.19793 -0.9709,2.16923 -2.1689,2.16938 -1.198,-10e-5 -2.169,-0.97141 -2.1688,-2.16938 1e-4,-1.19776 0.971,-2.16876 2.1688,-2.16886 z m -139.376,4.17132 c 1.1978,1.5e-4 2.1688,0.97114 2.1689,2.16886 2e-4,1.19793 -0.9709,2.16923 -2.1689,2.16938 -1.1982,1.8e-4 -2.1695,-0.97121 -2.1693,-2.16938 1e-4,-1.19796 0.9713,-2.16904 2.1693,-2.16886 z m 145.6051,0 c 1.198,-1.8e-4 2.1693,0.9709 2.1694,2.16886 2e-4,1.19817 -0.9712,2.16956 -2.1694,2.16938 -1.1972,-1.5e-4 -2.1691,-0.97145 -2.1689,-2.16938 1e-4,-1.19772 0.9719,-2.16871 2.1689,-2.16886 z m 10.8939,0.003 c 5.7457,2.9146 14.2579,5.82964 16.4331,4.81108 0.8475,1.03457 0.6316,1.74666 -2.2701,2.71353 -1.8395,-0.31347 -7.2386,-2.03066 -9.8568,-3.3662 -1.8491,-1.79615 -3.6681,-3.55743 -4.1972,-4.04575 -0.041,-0.0381 -0.077,-0.0754 -0.109,-0.11266 z m -162.8391,3.89021 c 1.1978,9e-5 2.1687,0.97109 2.1688,2.16886 -1e-4,1.19776 -0.971,2.16876 -2.1688,2.16886 -1.197996,1.8e-4 -2.169296,-0.9709 -2.169396,-2.16886 10e-5,-1.19796 0.9714,-2.16905 2.169396,-2.16886 z m 158.2854,0 c 1.198,-1.9e-4 2.1693,0.9709 2.1694,2.16886 -10e-5,1.19796 -0.9714,2.16904 -2.1694,2.16886 -1.1978,-1.5e-4 -2.1688,-0.97114 -2.1689,-2.16886 1e-4,-1.19773 0.9711,-2.16871 2.1689,-2.16886 z m -107.8379,4.96869 c 3.1957,0 0.5517,0.59359 -0.138,0.60927 -1.7304,0.0393 -7.0591,4.22794 -13.0762,5.17177 -6.0171,0.94383 -19.8997,0.98305 -21.3155,0.86506 -1.4158,-0.11798 -1.105,-0.9834 0.5902,-0.9834 11.2044,0 13.5333,-1.05411 18.1689,-1.65158 4.4243,-0.57023 13.5275,-4.01112 15.7706,-4.01112 z m 57.3820996,0 c 2.2420004,0 11.3463004,3.44089 15.7706004,4.01112 4.6355,0.59747 6.9645,1.65158 18.1689,1.65158 1.6952,0 -3.5503,0.63391 -4.9661,0.75189 -1.4158,0.11799 -9.213,0.19194 -15.2301,-0.75189 -6.0171,-0.94382 -11.875,-5.0141 -13.6054004,-5.05343 -0.6897,-0.0157 -3.3336,-0.60927 -0.1379,-0.60927 z m -10.7777,1.70532 c 6.3005,-0.0453 12.8353004,3.23041 15.9133004,8.56175 -4.2288004,-3.20108 -9.6786004,-5.35417 -16.3040004,-5.04568 -10.0714996,0.46894 -15.4854996,9.83213 -15.4894996,18.81384 0,6.33779 3.3258,12.21157 8.7555996,15.4807 -2.7090996,-1.0586 -5.0772996,-2.68392 -7.0067996,-4.69945 -0.5957,-0.0853 -1.3047,-0.18965 -1.8242,-0.18965 -7.1267,0 -12.3537,1.47289 -17.0682,3.01583 -7.0453,2.30577 -19.5218,2.22714 -22.3837,-0.78703 h 8.4832 c 4.0043,0 7.8293,-1.43981 12.6603,-3.01584 4.5708,-1.49112 10.0014,-3.03558 17.0842,-3.19773 -1.5338,-2.81381 -2.3967,-6.01277 -2.3968,-9.35964 0,-4.17085 1.3418,-8.23157 3.8158,-11.58947 l -52.9332,14.63115 c -1.9221,-1.11665 -3.9966,-1.94099 -6.1552,-2.4474 l 67.0461,-18.53375 c 2.4611996,-1.07533 5.1172996,-1.61832 7.8030996,-1.63763 z m 19.9058004,6.00274 c 6.1958,5.00528 10.8148,2.5398 23.3985,2.22518 12.5847,-0.31461 10.4409,0.62873 14.4824,6.1619 l 2.2541,3.08612 c 0,0 -7.128,-4.45094 -7.8863,-5.2989 -3.6574,-4.08992 -19.0737,0.43278 -26.3886,-0.1571 -2.349,-1.1905 -3.5352,-3.19069 -5.8601,-6.0172 z m -19.9058004,4.14341 c 2.22779996,1.9e-4 4.3836,0.78906 6.0854,2.22674 -3.53890004,-2.53008 -8.0161,-0.94514 -10.8773,1.44022 -3.1902996,2.65971 -5.9020996,8.70583 -1.5736,12.71964 -1.9523996,-1.7858 -3.0644996,-4.30979 -3.0653996,-6.95565 -10e-5,-5.20847 4.2221996,-9.43105 9.4308996,-9.43095 z m 19.8014004,1.67122 30.0302,29.59044 c -0.1467,-0.0633 -0.2942,-0.12484 -0.4429,-0.18397 -0.1032,-0.0411 -0.2061,-0.0763 -0.3085,-0.10645 2.713,1.01386 5.1153,2.71644 6.9707,4.94026 -2.9223,-2.26049 -6.5122,-3.48717 -10.2067,-3.48764 -9.2148,-10e-6 -16.6853,7.47029 -16.6852,16.68529 0,3.90251 1.375,7.68033 3.8757,10.67635 -4.0931,-3.1571 -6.4918,-8.03308 -6.4947,-13.2023 0.02,-9.03166 7.223,-16.40777 16.2517,-16.64239 l -17.2961,-17.04392 z m -8.1401004,0.75758 c 1.2699004,2.1148 1.9410004,4.53537 1.9410004,7.00215 1e-4,7.51213 -6.0900004,13.60232 -13.6023004,13.60227 -3.117,-0.001 -6.139,-1.07314 -8.5601996,-3.03599 1.8738996,0.82481 3.8996996,1.25255 5.9458996,1.25625 8.1883,1.8e-4 14.8262,-6.63797 14.826,-14.82596 -3e-4,-1.35173 -0.1856,-2.6972 -0.5504,-3.99872 z m 38.9186004,1.42885 c 1.5972,1.6e-4 2.8919,1.29516 2.8918,2.89233 -2e-4,1.59696 -1.2948,2.89165 -2.8918,2.89181 -1.5972,1.1e-4 -2.8922,-1.29465 -2.8924,-2.89181 -1e-4,-1.59736 1.295,-2.89244 2.8924,-2.89233 z m -50.5799004,0.41186 c 2.85049996,-7e-5 5.1616,2.31096 5.1615,5.16144 10e-5,2.85053 -2.31100004,5.16152 -5.1615,5.16144 -2.8506,1.8e-4 -5.1615,-2.31084 -5.1614,-5.16144 -10e-5,-2.85055 2.3108,-5.16162 5.1614,-5.16144 z m -30.4435996,1.22525 c 0.9863,2e-5 1.7859,0.79962 1.7859,1.78593 0,0.98632 -0.7996,1.78592 -1.7859,1.78594 -0.9863,-2e-5 -1.7859,-0.79962 -1.7859,-1.78594 0,-0.98631 0.7996,-1.78591 1.7859,-1.78593 z m 30.4435996,1.25522 c -1.4807,-10e-5 -2.6811,1.20033 -2.681,2.68097 -1e-4,1.48068 1.2003,2.68107 2.681,2.68098 1.4806,3e-5 2.68109996,-1.20034 2.68099996,-2.68098 1e-4,-1.4806 -1.20039996,-2.68101 -2.68099996,-2.68097 z m -77.8639996,4.23798 c 5.1808,7.6e-4 10.2024,1.79189 14.2142,5.06998 -3.0748,-1.50534 -6.4546,-2.2882 -9.8764,-2.28875 -12.4093,2.6e-4 -22.469,10.06037 -22.469,22.46943 0,6.74923 3.0402,13.13988 8.2714,17.40462 -7.7143,-3.76712 -12.607796,-11.60103 -12.609596,-20.18585 0,-12.40931 10.059796,-22.4695 22.469396,-22.46943 z m 127.3912,3.14245 c 2.6262,4e-5 4.7553,2.12914 4.7553,4.75526 0,2.62616 -2.1291,4.75523 -4.7553,4.75527 -2.6263,1e-5 -4.7552,-2.12907 -4.7552,-4.75527 0,-2.62616 2.1289,-4.75528 4.7552,-4.75526 z m 1.7405,2.97966 c -0.822,0.0157 -1.7789,0.44753 -2.5838,1.4025 -1.2923,1.53317 -2.7875,-1.63205 -2.7875,0.3731 0,2.00518 1.6256,3.6308 3.6308,3.63079 2.0052,-3e-5 3.6308,-1.62564 3.6308,-3.63079 0,-1.12788 -0.8335,-1.79573 -1.8903,-1.7756 z m -101.6331,1.13585 c 0.9864,-4e-5 1.786,0.79958 1.786,1.78593 0,0.98636 -0.7996,1.78598 -1.786,1.78594 -0.9863,-2e-5 -1.7859,-0.79962 -1.7859,-1.78594 0,-0.98631 0.7996,-1.78591 1.7859,-1.78593 z m 7.4414,0 c 0.9864,-4e-5 1.786,0.79958 1.786,1.78593 0,0.98636 -0.7996,1.78598 -1.786,1.78594 -0.9863,-2e-5 -1.7859,-0.79962 -1.7859,-1.78594 0,-0.98631 0.7996,-1.78591 1.7859,-1.78593 z m 63.8995,0 c 0.9863,2e-5 1.7859,0.79961 1.7859,1.78593 0,0.98633 -0.7996,1.78592 -1.7859,1.78594 -0.9864,4e-5 -1.786,-0.79957 -1.786,-1.78594 0,-0.98636 0.7996,-1.78597 1.786,-1.78593 z m -86.448,0.37723 c 4.3965,3.67231 6.9378,9.10582 6.9381,14.83424 2e-4,10.67534 -8.654,19.32996 -19.3296,19.33009 -5.9859,-0.004 -11.6324,-2.78013 -15.29,-7.51841 3.4751,2.9124 7.8639,4.51061 12.3977,4.51497 10.6754,-7e-5 19.3295,-8.65437 19.3296,-19.32957 -5e-4,-4.28299 -1.4237,-8.44475 -4.0458,-11.83132 z m -12.3915,1.73375 c 3.5149,3.4e-4 6.8823,1.41314 9.3452,3.92069 -2.1678,-1.46744 -4.7254,-2.25189 -7.3432,-2.25206 -7.2352,5e-5 -13.1004,5.86546 -13.1005,13.10049 0,3.44262 1.3632,6.74581 3.7811,9.19479 -3.6129,-2.4338 -5.7825,-6.50585 -5.7836,-10.86342 1e-4,-7.23523 5.8656,-13.10071 13.101,-13.10049 z m 0,7.30601 c 3.2002,5e-5 5.7944,2.59436 5.7945,5.79448 2e-4,3.20031 -2.5941,5.79495 -5.7945,5.795 -3.2006,2.3e-4 -5.7952,-2.5945 -5.795,-5.795 1e-4,-3.20032 2.5946,-5.79471 5.795,-5.79448 z m 60.355,0.34417 c 10.9713996,10e-4 21.3252996,5.07748 28.0452996,13.75006 -6.6236,-6.44158 -15.4986,-10.04566 -24.7379996,-10.0459 -19.597,1.1e-4 -35.4835,15.88671 -35.4836,35.48363 0.01,7.84752 2.613,15.47181 7.4135,21.67981 -1.6461,-1.61313 -3.131,-3.3828 -4.4339,-5.28392 0.077,0.12243 0.1553,0.24439 0.2341,0.36587 l -33.323,-28.11766 c 1.8168,0.15422 3.6457,0.0867 5.4462,-0.20102 l 23.3841,19.61637 c 0.023,0.0583 0.047,0.11651 0.071,0.17467 -1.3792,-3.82956 -2.0893,-7.86794 -2.0991,-11.93829 1e-4,-19.59692 15.8866,-35.48351 35.4836,-35.48362 z m -60.355,2.25206 c -1.7662,1.5e-4 -3.1979,1.43206 -3.1977,3.19825 1e-4,1.76598 1.4317,3.19759 3.1977,3.19774 1.766,-10e-5 3.1977,-1.43172 3.1978,-3.19774 2e-4,-1.76622 -1.4316,-3.19816 -3.1978,-3.19825 z m 121.0893,4.83071 c 2.9567,3.1e-4 5.7995,1.14003 7.9375,3.18223 -1.8211,-1.13201 -3.9225,-1.73202 -6.0668,-1.73219 -6.3476,4e-5 -11.4933,5.14577 -11.4934,11.49336 0,3.1342 1.2838,6.13168 3.5486,8.2982 -3.3679,-2.09634 -5.4166,-5.78125 -5.4198,-9.74825 10e-5,-6.34777 5.1461,-11.49359 11.4939,-11.49335 z m -61.2971,0.67128 c 5.7209,5.6e-4 11.2906996,1.8402 15.8863996,5.24722 -3.6908,-1.83541 -7.7568996,-2.79035 -11.8787996,-2.79053 -14.7342,9e-5 -26.6784,11.94436 -26.6785,26.67848 0.011,8.46369 4.0301,16.4219 10.8412,21.44623 -9.0907,-4.49733 -14.8449,-13.76022 -14.8487,-23.90241 10e-5,-14.73412 11.9448,-26.67891 26.6784,-26.67899 z m 69.8971,0.53175 c 3.0489,2.54803 4.8109,6.31689 4.811,10.29032 0,7.40668 -6.0043,13.41101 -13.411,13.41107 -4.181,-0.003 -8.1214,-1.95538 -10.6562,-5.2803 2.4106,2.01862 5.4538,3.12612 8.5979,3.12901 7.4067,-10e-6 13.4111,-6.00435 13.4111,-13.41106 -2e-4,-2.94149 -0.9675,-5.80134 -2.7528,-8.13904 z m -49.59130044,2.80654 c 7.36130004,5.95774 11.63870044,14.92115 11.63960044,24.39128 2e-4,17.3322 -14.0503004,31.383 -31.3826,31.38309 -9.0639,-0.008 -17.6822,-3.93487 -23.6352,-10.76937 5.5732,4.48503 12.5124,6.93111 19.6665,6.93291 2.917,-2e-5 5.7377,-0.40613 8.4175,-1.15083 -6.6189,0.5587 -10.5655,-0.51237 -8.3576,-0.72709 6.1249,-0.59564 11.7494,-3.07962 16.3849996,-6.80371 -2.7201996,0.9075 -4.4436996,0.4575 -3.6622996,0.11989 5.4649996,-2.36106 11.01109956,-9.60206 11.92389956,-15.4435 0.08,-0.51192 0.95070004,1.454 0.3627,4.98987 3.08900004,-5.67243 4.58270004,-12.228 3.85300004,-18.85053 -0.018,-0.15971 -0.01,-0.23997 0.023,-0.24443 0.248,-0.0359 1.8745,4.83895 1.8577,12.72894 0.3765,-1.94331 0.5799,-3.94837 0.5798,-6.0017 -7e-4,-7.5513 -2.7242,-14.84926 -7.67080004,-20.55482 z m 40.99130044,1.84485 c 3.1141,2.3e-4 5.6385,2.52483 5.6384,5.63893 10e-5,3.11411 -2.5243,5.63871 -5.6384,5.63894 -3.1143,10e-5 -5.6391,-2.52459 -5.639,-5.63894 -1e-4,-3.11434 2.5247,-5.63903 5.639,-5.63893 z m 0,2.31511 c -1.8357,-5e-5 -3.3239,1.48811 -3.3238,3.32382 -1e-4,1.83572 1.4881,3.32388 3.3238,3.32383 1.8355,-2.3e-4 3.3234,-1.48831 3.3233,-3.32383 10e-5,-1.83551 -1.4878,-3.32359 -3.3233,-3.32382 z m -60.7343,10.43399 c 5.4109,0 9.7973,4.38644 9.7973,9.79733 0,5.41089 -4.3864,9.79733 -9.7973,9.79733 -5.4109,0 -9.7973,-4.38644 -9.7973,-9.79733 0,-5.41089 4.3864,-9.79733 9.7973,-9.79733 z m 0,2.96674 c -3.7724,-5e-5 -6.8304,3.05822 -6.8306,6.83059 0,3.77254 3.058,6.83064 6.8306,6.83059 3.7726,5e-5 6.8306,-3.05805 6.8306,-6.83059 -2e-4,-3.77237 -3.0582,-6.83064 -6.8306,-6.83059 z m -42.8609,3.03651 c 0.9863,2e-5 1.7859,0.79961 1.7859,1.78593 0,0.98633 -0.7996,1.78592 -1.7859,1.78594 -0.9864,4e-5 -1.786,-0.79957 -1.786,-1.78594 0,-0.98636 0.7996,-1.78597 1.786,-1.78593 z m 84.9173,0 c 0.9863,2e-5 1.7859,0.79961 1.7859,1.78593 0,0.98633 -0.7996,1.78592 -1.7859,1.78594 -0.9864,4e-5 -1.786,-0.79957 -1.786,-1.78594 0,-0.98636 0.7996,-1.78597 1.786,-1.78593 z m 12.9713,2.56625 c 1.6875,0.61463 3.4447,0.9452 5.2033,0.99787 l -33.6621004,23.74842 c 2.2959,-2.59349 4.1997004,-5.50918 5.6508004,-8.65425 z m -85.8279,18.79265 c 0.1031,0.17366 0.2077,0.34644 0.3137,0.51831 -0.106,-0.17187 -0.2106,-0.34465 -0.3137,-0.51831 z m -8.91,10.03711 h 1.805 l 2.2981,13.81802 c 0.015,0.21117 0.6883,1.07474 0.6883,-0.8413 l 0.4878,-10.99622 c 0.01,-0.23103 0.2697,-0.57912 0.416,-0.47594 0.2677,0.1888 0.7382,1.71228 1.2749,0.90123 0.7231,-1.09292 2.341,-2.40605 4.3987,-2.40605 h 0.7405 c 0,0 4.1837,6.04997 14.2978,10.77402 l 17.2026,8.03363 h -26.9374 c -5.6711,0 -14.5977,2.30348 -15.3401,-5.25137 z m 142.71407,-140.22397 c -0.47048,-0.16436 -1.48152,1.49906 -1.48152,1.49906 l -1.79305,-1.05548 0.69363,-0.85566 c 0.4654,-0.57411 0.94398,-0.90414 2.58094,0.41208 z m -9.12505,-5.75546 c -0.46422,-0.11195 -1.33204,1.72244 -1.33204,1.72244 l -1.79697,-0.8676 0.61405,-0.96549 c 0.41182,-0.64734 0.85199,-1.04478 2.51496,0.11065 z" sodipodi:nodetypes="sscscssscssssscsscsscccccccssccsscssssscsssssscscssscsccsccccsscsscsccssssscssscssccccsscsssscssccscccsscsscsscscssscscsssscsccsscscsccscccccscccccccccccccccccccccccccccccccccccsccccccccccccsccccsscssccccsscscsscsscscccsccsscccccccssccssccssccsscccsscccscccsccscccssscssscccsssccccssssssccscsssssccscccsccccscsssccsccccccccccccccccsccscccsccscssssscsssccssccccccccccsccccccccccccsccccccsssssccssssssssssscccccccccccsssscssssssssssssssssssscccccscssssssssssssssssssscssssscccccssccscsccccscsscsccscsccsccscccsccscccscccccsssssssssssssssssssscccssccsssssssssssssssssssssssssccccccccscssccssscsscccccccccccccssssssccsccsccccccccscccsccccsccscssscccccsssssssssssssssssssssssssscssscccccccccccscssscccsscccssscccssscccscccccc"/>
    </g>
  </g>
  <metadata id="metadata93629">
    <rdf:RDF>
      <cc:Work rdf:about="">
        <dc:creator>
          <cc:Agent>
            <dc:title>m1981</dc:title>
          </cc:Agent>
        </dc:creator>
        <dc:rights>
          <cc:Agent>
            <dc:title>Public domain</dc:title>
          </cc:Agent>
        </dc:rights>
        <dc:publisher>
          <cc:Agent>
            <dc:title>Inkscape</dc:title>
          </cc:Agent>
        </dc:publisher>
        <dc:title>Old car engine</dc:title>
        <dc:date>2022-07-25</dc:date>
        <dc:subject>
          <rdf:Bag>
            <rdf:li>mechanic</rdf:li>
            <rdf:li>car</rdf:li>
            <rdf:li>engine</rdf:li>
            <rdf:li>motor</rdf:li>
            <rdf:li>vintage</rdf:li>
          </rdf:Bag>
        </dc:subject>
        <dc:description>An old car engine.</dc:description>
      </cc:Work>
    </rdf:RDF>
  </metadata>
</svg>