<?xml version="1.0" encoding="UTF-8" standalone="no"?>
<!-- Created with Inkscape (http://www.inkscape.org/) -->
<svg xmlns:dc="http://purl.org/dc/elements/1.1/" xmlns:cc="http://creativecommons.org/ns#" xmlns:rdf="http://www.w3.org/1999/02/22-rdf-syntax-ns#" xmlns:svg="http://www.w3.org/2000/svg" xmlns="http://www.w3.org/2000/svg" xmlns:xlink="http://www.w3.org/1999/xlink" xmlns:sodipodi="http://sodipodi.sourceforge.net/DTD/sodipodi-0.dtd" xmlns:inkscape="http://www.inkscape.org/namespaces/inkscape" width="31.359222mm" height="18.685635mm" viewBox="0 0 111.11535 66.20894" id="svg2" version="1.1" inkscape:version="0.91 r13725" sodipodi:docname="Schlitten.svg">
  <title id="title4149">sled - coloured</title>
  <defs id="defs4">
    <pattern inkscape:collect="always" xlink:href="#Polkadots-large" id="pattern6618" patternTransform="matrix(0.22499998,0,0,0.33749998,33.941125,972.97893)"/>
    <pattern inkscape:collect="always" xlink:href="#Polkadots-large" id="pattern6524" patternTransform="matrix(0.48941384,0,0,0.45405844,48.083261,972.97893)"/>
    <pattern inkscape:collect="always" xlink:href="#Polkadots-large" id="pattern6430" patternTransform="matrix(0.31153321,0,0,0.3147186,32.909271,982.54022)"/>
    <pattern inkscape:collect="always" xlink:href="#Polkadots-large" id="pattern6336" patternTransform="matrix(0.3007468,0,0,0.3600613,48.083261,958.83679)"/>
    <pattern inkscape:collect="always" xlink:href="#Polkadots-large" id="pattern6242" patternTransform="matrix(0.34137446,0,0,0.3222565,56.568542,950.35151)"/>
    <pattern inkscape:collect="always" xlink:href="#Polkadots-large" id="pattern6148" patternTransform="matrix(0.32222717,0,0,0.30732232,44.005127,974.71581)"/>
    <pattern inkscape:collect="always" xlink:href="#Polkadots-large" id="pattern5964" patternTransform="matrix(0.32499998,0,0,0.37499998,55.507882,969.08982)"/>
    <pattern inkscape:stockid="Polka dots, large" id="Polkadots-large" patternTransform="translate(0,0) scale(10,10)" height="10" width="10" patternUnits="userSpaceOnUse" inkscape:collect="always">
      <circle id="circle5654" r="0.45" cy="0.810" cx="2.567" style="fill:black;stroke:none"/>
      <circle id="circle5656" r="0.45" cy="2.33" cx="3.048" style="fill:black;stroke:none"/>
      <circle id="circle5658" r="0.45" cy="2.415" cx="4.418" style="fill:black;stroke:none"/>
      <circle id="circle5660" r="0.45" cy="3.029" cx="1.844" style="fill:black;stroke:none"/>
      <circle id="circle5662" r="0.45" cy="1.363" cx="6.08" style="fill:black;stroke:none"/>
      <circle id="circle5664" r="0.45" cy="4.413" cx="5.819" style="fill:black;stroke:none"/>
      <circle id="circle5666" r="0.45" cy="4.048" cx="4.305" style="fill:black;stroke:none"/>
      <circle id="circle5668" r="0.45" cy="3.045" cx="5.541" style="fill:black;stroke:none"/>
      <circle id="circle5670" r="0.45" cy="5.527" cx="4.785" style="fill:black;stroke:none"/>
      <circle id="circle5672" r="0.45" cy="5.184" cx="2.667" style="fill:black;stroke:none"/>
      <circle id="circle5674" r="0.45" cy="1.448" cx="7.965" style="fill:black;stroke:none"/>
      <circle id="circle5676" r="0.45" cy="5.049" cx="7.047" style="fill:black;stroke:none"/>
      <circle id="circle5678" r="0.45" cy="0.895" cx="4.340" style="fill:black;stroke:none"/>
      <circle id="circle5680" r="0.45" cy="0.340" cx="7.125" style="fill:black;stroke:none"/>
      <circle id="circle5682" r="0.45" cy="1.049" cx="9.553" style="fill:black;stroke:none"/>
      <circle id="circle5684" r="0.45" cy="2.689" cx="7.006" style="fill:black;stroke:none"/>
      <circle id="circle5686" r="0.45" cy="2.689" cx="8.909" style="fill:black;stroke:none"/>
      <circle id="circle5688" r="0.45" cy="4.407" cx="9.315" style="fill:black;stroke:none"/>
      <circle id="circle5690" r="0.45" cy="3.870" cx="7.820" style="fill:black;stroke:none"/>
      <circle id="circle5692" r="0.45" cy="5.948" cx="8.270" style="fill:black;stroke:none"/>
      <circle id="circle5694" r="0.45" cy="7.428" cx="7.973" style="fill:black;stroke:none"/>
      <circle id="circle5696" r="0.45" cy="8.072" cx="9.342" style="fill:black;stroke:none"/>
      <circle id="circle5698" r="0.45" cy="9.315" cx="8.206" style="fill:black;stroke:none"/>
      <circle id="circle5700" r="0.45" cy="9.475" cx="9.682" style="fill:black;stroke:none"/>
      <circle id="circle5702" r="0.45" cy="6.186" cx="9.688" style="fill:black;stroke:none"/>
      <circle id="circle5704" r="0.45" cy="6.296" cx="3.379" style="fill:black;stroke:none"/>
      <circle id="circle5706" r="0.45" cy="8.204" cx="2.871" style="fill:black;stroke:none"/>
      <circle id="circle5708" r="0.45" cy="8.719" cx="4.59" style="fill:black;stroke:none"/>
      <circle id="circle5710" r="0.45" cy="9.671" cx="3.181" style="fill:black;stroke:none"/>
      <circle id="circle5712" r="0.45" cy="7.315" cx="5.734" style="fill:black;stroke:none"/>
      <circle id="circle5714" r="0.45" cy="6.513" cx="6.707" style="fill:black;stroke:none"/>
      <circle id="circle5716" r="0.45" cy="9.670" cx="5.730" style="fill:black;stroke:none"/>
      <circle id="circle5718" r="0.45" cy="8.373" cx="6.535" style="fill:black;stroke:none"/>
      <circle id="circle5720" r="0.45" cy="7.154" cx="4.37" style="fill:black;stroke:none"/>
      <circle id="circle5722" r="0.45" cy="7.25" cx="0.622" style="fill:black;stroke:none"/>
      <circle id="circle5724" r="0.45" cy="5.679" cx="0.831" style="fill:black;stroke:none"/>
      <circle id="circle5726" r="0.45" cy="8.519" cx="1.257" style="fill:black;stroke:none"/>
      <circle id="circle5728" r="0.45" cy="6.877" cx="1.989" style="fill:black;stroke:none"/>
      <circle id="circle5730" r="0.45" cy="3.181" cx="0.374" style="fill:black;stroke:none"/>
      <circle id="circle5732" r="0.45" cy="1.664" cx="1.166" style="fill:black;stroke:none"/>
      <circle id="circle5734" r="0.45" cy="0.093" cx="1.151" style="fill:black;stroke:none"/>
      <circle id="circle5736" r="0.45" cy="10.093" cx="1.151" style="fill:black;stroke:none"/>
      <circle id="circle5738" r="0.45" cy="4.451" cx="1.302" style="fill:black;stroke:none"/>
      <circle id="circle5740" r="0.45" cy="3.763" cx="3.047" style="fill:black;stroke:none"/>
    </pattern>
    <pattern inkscape:collect="always" xlink:href="#Polkadots-large-9" id="pattern6618-6" patternTransform="matrix(0.22499998,0,0,0.33749998,58.269384,966.24571)"/>
    <pattern inkscape:stockid="Polka dots, large" id="Polkadots-large-9" patternTransform="translate(0,0) scale(10,10)" height="10" width="10" patternUnits="userSpaceOnUse" inkscape:collect="always">
      <circle id="circle5654-6" r="0.45" cy="0.810" cx="2.567" style="fill:black;stroke:none"/>
      <circle id="circle5656-5" r="0.45" cy="2.33" cx="3.048" style="fill:black;stroke:none"/>
      <circle id="circle5658-8" r="0.45" cy="2.415" cx="4.418" style="fill:black;stroke:none"/>
      <circle id="circle5660-5" r="0.45" cy="3.029" cx="1.844" style="fill:black;stroke:none"/>
      <circle id="circle5662-6" r="0.45" cy="1.363" cx="6.08" style="fill:black;stroke:none"/>
      <circle id="circle5664-7" r="0.45" cy="4.413" cx="5.819" style="fill:black;stroke:none"/>
      <circle id="circle5666-1" r="0.45" cy="4.048" cx="4.305" style="fill:black;stroke:none"/>
      <circle id="circle5668-1" r="0.45" cy="3.045" cx="5.541" style="fill:black;stroke:none"/>
      <circle id="circle5670-3" r="0.45" cy="5.527" cx="4.785" style="fill:black;stroke:none"/>
      <circle id="circle5672-0" r="0.45" cy="5.184" cx="2.667" style="fill:black;stroke:none"/>
      <circle id="circle5674-2" r="0.45" cy="1.448" cx="7.965" style="fill:black;stroke:none"/>
      <circle id="circle5676-4" r="0.45" cy="5.049" cx="7.047" style="fill:black;stroke:none"/>
      <circle id="circle5678-1" r="0.45" cy="0.895" cx="4.340" style="fill:black;stroke:none"/>
      <circle id="circle5680-4" r="0.45" cy="0.340" cx="7.125" style="fill:black;stroke:none"/>
      <circle id="circle5682-5" r="0.45" cy="1.049" cx="9.553" style="fill:black;stroke:none"/>
      <circle id="circle5684-1" r="0.45" cy="2.689" cx="7.006" style="fill:black;stroke:none"/>
      <circle id="circle5686-6" r="0.45" cy="2.689" cx="8.909" style="fill:black;stroke:none"/>
      <circle id="circle5688-1" r="0.45" cy="4.407" cx="9.315" style="fill:black;stroke:none"/>
      <circle id="circle5690-5" r="0.45" cy="3.870" cx="7.820" style="fill:black;stroke:none"/>
      <circle id="circle5692-3" r="0.45" cy="5.948" cx="8.270" style="fill:black;stroke:none"/>
      <circle id="circle5694-7" r="0.45" cy="7.428" cx="7.973" style="fill:black;stroke:none"/>
      <circle id="circle5696-6" r="0.45" cy="8.072" cx="9.342" style="fill:black;stroke:none"/>
      <circle id="circle5698-3" r="0.45" cy="9.315" cx="8.206" style="fill:black;stroke:none"/>
      <circle id="circle5700-7" r="0.45" cy="9.475" cx="9.682" style="fill:black;stroke:none"/>
      <circle id="circle5702-8" r="0.45" cy="6.186" cx="9.688" style="fill:black;stroke:none"/>
      <circle id="circle5704-1" r="0.45" cy="6.296" cx="3.379" style="fill:black;stroke:none"/>
      <circle id="circle5706-3" r="0.45" cy="8.204" cx="2.871" style="fill:black;stroke:none"/>
      <circle id="circle5708-8" r="0.45" cy="8.719" cx="4.59" style="fill:black;stroke:none"/>
      <circle id="circle5710-7" r="0.45" cy="9.671" cx="3.181" style="fill:black;stroke:none"/>
      <circle id="circle5712-9" r="0.45" cy="7.315" cx="5.734" style="fill:black;stroke:none"/>
      <circle id="circle5714-7" r="0.45" cy="6.513" cx="6.707" style="fill:black;stroke:none"/>
      <circle id="circle5716-3" r="0.45" cy="9.670" cx="5.730" style="fill:black;stroke:none"/>
      <circle id="circle5718-7" r="0.45" cy="8.373" cx="6.535" style="fill:black;stroke:none"/>
      <circle id="circle5720-7" r="0.45" cy="7.154" cx="4.37" style="fill:black;stroke:none"/>
      <circle id="circle5722-1" r="0.45" cy="7.25" cx="0.622" style="fill:black;stroke:none"/>
      <circle id="circle5724-5" r="0.45" cy="5.679" cx="0.831" style="fill:black;stroke:none"/>
      <circle id="circle5726-6" r="0.45" cy="8.519" cx="1.257" style="fill:black;stroke:none"/>
      <circle id="circle5728-4" r="0.45" cy="6.877" cx="1.989" style="fill:black;stroke:none"/>
      <circle id="circle5730-6" r="0.45" cy="3.181" cx="0.374" style="fill:black;stroke:none"/>
      <circle id="circle5732-9" r="0.45" cy="1.664" cx="1.166" style="fill:black;stroke:none"/>
      <circle id="circle5734-6" r="0.45" cy="0.093" cx="1.151" style="fill:black;stroke:none"/>
      <circle id="circle5736-0" r="0.45" cy="10.093" cx="1.151" style="fill:black;stroke:none"/>
      <circle id="circle5738-5" r="0.45" cy="4.451" cx="1.302" style="fill:black;stroke:none"/>
      <circle id="circle5740-7" r="0.45" cy="3.763" cx="3.047" style="fill:black;stroke:none"/>
    </pattern>
    <pattern inkscape:collect="always" xlink:href="#Polkadots-large-0" id="pattern6618-0" patternTransform="matrix(0.22499998,0,0,0.33749998,79.519384,960.30821)"/>
    <pattern inkscape:stockid="Polka dots, large" id="Polkadots-large-0" patternTransform="translate(0,0) scale(10,10)" height="10" width="10" patternUnits="userSpaceOnUse" inkscape:collect="always">
      <circle id="circle5654-0" r="0.45" cy="0.810" cx="2.567" style="fill:black;stroke:none"/>
      <circle id="circle5656-2" r="0.45" cy="2.33" cx="3.048" style="fill:black;stroke:none"/>
      <circle id="circle5658-7" r="0.45" cy="2.415" cx="4.418" style="fill:black;stroke:none"/>
      <circle id="circle5660-6" r="0.45" cy="3.029" cx="1.844" style="fill:black;stroke:none"/>
      <circle id="circle5662-1" r="0.45" cy="1.363" cx="6.08" style="fill:black;stroke:none"/>
      <circle id="circle5664-3" r="0.45" cy="4.413" cx="5.819" style="fill:black;stroke:none"/>
      <circle id="circle5666-18" r="0.45" cy="4.048" cx="4.305" style="fill:black;stroke:none"/>
      <circle id="circle5668-3" r="0.45" cy="3.045" cx="5.541" style="fill:black;stroke:none"/>
      <circle id="circle5670-5" r="0.45" cy="5.527" cx="4.785" style="fill:black;stroke:none"/>
      <circle id="circle5672-4" r="0.45" cy="5.184" cx="2.667" style="fill:black;stroke:none"/>
      <circle id="circle5674-1" r="0.45" cy="1.448" cx="7.965" style="fill:black;stroke:none"/>
      <circle id="circle5676-2" r="0.45" cy="5.049" cx="7.047" style="fill:black;stroke:none"/>
      <circle id="circle5678-5" r="0.45" cy="0.895" cx="4.340" style="fill:black;stroke:none"/>
      <circle id="circle5680-0" r="0.45" cy="0.340" cx="7.125" style="fill:black;stroke:none"/>
      <circle id="circle5682-8" r="0.45" cy="1.049" cx="9.553" style="fill:black;stroke:none"/>
      <circle id="circle5684-2" r="0.45" cy="2.689" cx="7.006" style="fill:black;stroke:none"/>
      <circle id="circle5686-7" r="0.45" cy="2.689" cx="8.909" style="fill:black;stroke:none"/>
      <circle id="circle5688-19" r="0.45" cy="4.407" cx="9.315" style="fill:black;stroke:none"/>
      <circle id="circle5690-4" r="0.45" cy="3.870" cx="7.820" style="fill:black;stroke:none"/>
      <circle id="circle5692-5" r="0.45" cy="5.948" cx="8.270" style="fill:black;stroke:none"/>
      <circle id="circle5694-73" r="0.45" cy="7.428" cx="7.973" style="fill:black;stroke:none"/>
      <circle id="circle5696-4" r="0.45" cy="8.072" cx="9.342" style="fill:black;stroke:none"/>
      <circle id="circle5698-8" r="0.45" cy="9.315" cx="8.206" style="fill:black;stroke:none"/>
      <circle id="circle5700-9" r="0.45" cy="9.475" cx="9.682" style="fill:black;stroke:none"/>
      <circle id="circle5702-1" r="0.45" cy="6.186" cx="9.688" style="fill:black;stroke:none"/>
      <circle id="circle5704-2" r="0.45" cy="6.296" cx="3.379" style="fill:black;stroke:none"/>
      <circle id="circle5706-9" r="0.45" cy="8.204" cx="2.871" style="fill:black;stroke:none"/>
      <circle id="circle5708-4" r="0.45" cy="8.719" cx="4.59" style="fill:black;stroke:none"/>
      <circle id="circle5710-5" r="0.45" cy="9.671" cx="3.181" style="fill:black;stroke:none"/>
      <circle id="circle5712-3" r="0.45" cy="7.315" cx="5.734" style="fill:black;stroke:none"/>
      <circle id="circle5714-1" r="0.45" cy="6.513" cx="6.707" style="fill:black;stroke:none"/>
      <circle id="circle5716-1" r="0.45" cy="9.670" cx="5.730" style="fill:black;stroke:none"/>
      <circle id="circle5718-4" r="0.45" cy="8.373" cx="6.535" style="fill:black;stroke:none"/>
      <circle id="circle5720-72" r="0.45" cy="7.154" cx="4.37" style="fill:black;stroke:none"/>
      <circle id="circle5722-5" r="0.45" cy="7.25" cx="0.622" style="fill:black;stroke:none"/>
      <circle id="circle5724-0" r="0.45" cy="5.679" cx="0.831" style="fill:black;stroke:none"/>
      <circle id="circle5726-9" r="0.45" cy="8.519" cx="1.257" style="fill:black;stroke:none"/>
      <circle id="circle5728-1" r="0.45" cy="6.877" cx="1.989" style="fill:black;stroke:none"/>
      <circle id="circle5730-2" r="0.45" cy="3.181" cx="0.374" style="fill:black;stroke:none"/>
      <circle id="circle5732-4" r="0.45" cy="1.664" cx="1.166" style="fill:black;stroke:none"/>
      <circle id="circle5734-62" r="0.45" cy="0.093" cx="1.151" style="fill:black;stroke:none"/>
      <circle id="circle5736-4" r="0.45" cy="10.093" cx="1.151" style="fill:black;stroke:none"/>
      <circle id="circle5738-1" r="0.45" cy="4.451" cx="1.302" style="fill:black;stroke:none"/>
      <circle id="circle5740-0" r="0.45" cy="3.763" cx="3.047" style="fill:black;stroke:none"/>
    </pattern>
  </defs>
  <sodipodi:namedview id="base" pagecolor="#ffffff" bordercolor="#666666" borderopacity="1.0" inkscape:pageopacity="0.0" inkscape:pageshadow="2" inkscape:zoom="2" inkscape:cx="10.949244" inkscape:cy="63.424886" inkscape:document-units="mm" inkscape:current-layer="layer1" showgrid="false" inkscape:window-width="1728" inkscape:window-height="1094" inkscape:window-x="709" inkscape:window-y="71" inkscape:window-maximized="0" inkscape:snap-global="false" fit-margin-top="1" fit-margin-right="1" fit-margin-bottom="1" fit-margin-left="1"/>
  <metadata id="metadata7">
    <rdf:RDF>
      <cc:Work rdf:about="">
        <dc:format>image/svg+xml</dc:format>
        <dc:type rdf:resource="http://purl.org/dc/dcmitype/StillImage"/>
        <dc:title>sled - coloured</dc:title>
        <cc:license rdf:resource="http://creativecommons.org/publicdomain/zero/1.0/"/>
        <dc:subject>
          <rdf:Bag>
            <rdf:li>Sled</rdf:li>
            <rdf:li>toys</rdf:li>
            <rdf:li>sports</rdf:li>
            <rdf:li>winter</rdf:li>
            <rdf:li>Schlitten</rdf:li>
            <rdf:li>Spielzeug</rdf:li>
            <rdf:li>Sport</rdf:li>
            <rdf:li>Winter</rdf:li>
            <rdf:li>outline</rdf:li>
            <rdf:li>line art</rdf:li>
            <rdf:li/>
          </rdf:Bag>
        </dc:subject>
        <dc:description>coloured line art sled</dc:description>
        <dc:date>2015-02-15</dc:date>
        <dc:creator>
          <cc:Agent>
            <dc:title>Frank Tremmel</dc:title>
          </cc:Agent>
        </dc:creator>
      </cc:Work>
      <cc:License rdf:about="http://creativecommons.org/publicdomain/zero/1.0/">
        <cc:permits rdf:resource="http://creativecommons.org/ns#Reproduction"/>
        <cc:permits rdf:resource="http://creativecommons.org/ns#Distribution"/>
        <cc:permits rdf:resource="http://creativecommons.org/ns#DerivativeWorks"/>
      </cc:License>
    </rdf:RDF>
  </metadata>
  <g inkscape:label="Ebene 1" inkscape:groupmode="layer" id="layer1" transform="translate(2.3410683,-977.63832)">
    <path style="fill:#db9044;fill-opacity:1;fill-rule:evenodd;stroke:#ffcc00;stroke-width:0.35433072;stroke-linecap:butt;stroke-linejoin:miter;stroke-miterlimit:4;stroke-dasharray:none;stroke-opacity:1" d="m 84.625,35.423828 -71.3125,16.9375 -5.9375,1.375 -0.5625,-2.875 c 0,0 -1.8887235,-2.07456 -3,-1.75 -1.6635526,0.48587 -2.6792796,2.83819 -2.1875,4.5 0.8136266,2.7494 2.0023186,5.367 3.375,7.75 1.2608308,2.1888 4.25,6.0625 4.25,6.0625 2.466375,1.5595 4.641695,2.9156 8.375,4 1.060499,0.9925 4.228759,6.1112 7.5,8.625 3.547638,2.0243 6.802366,3.6726 12.3125,4.25 5.611594,-0.027 11.03524,-1.2979 16.8125,-3.3125 l 21.875,-7 c 8.750383,-3.436 17.661836,-6.2277 26.25,-10.3125 0.90493,-0.461 1.81927,-0.9031 2.5625,-1.6875 0.0288,-1.3317 -0.34225,-2.3968 -1.3125,-3.0625 -1.24348,-0.2929 -2.28944,0.01 -3.375,0.1875 l -0.0625,-11.3125 1.3125,-0.375 0,-2.5 -1.875,-1.375 3.6875,-1.125 c -0.23462,-0.48392 0.4389,-1.04352 -1.625,-1.375 l -2.4375,0.625 c -0.241587,-0.75421 0.185882,-1.84294 -2.25,-1.5 l -1.8125,0.4375 c -0.236452,-0.91014 -0.24868,-1.96296 -2.25,-1.75 l -2.1875,0.625 c 0.657032,-1.43308 0.79129,-2.62656 -2.5,-2.25 l -1.6875,0.625 c 0.462951,-1.0589 1.879397,-2.32968 -1.9375,-2.4375 z m 7.4375,10.1875 2.6875,1.1875 0.625,14.1875 -15.5625,5.75 -0.5,-10.1875 4.75,-1.625 c 0.405015,-0.3259 0.638907,-1e-4 1.375,-2.1875 -0.184001,-0.5625 -0.263554,-1.25 -0.9375,-1.8125 -0.150683,-0.16667 -0.475785,-0.23958 -1.1875,-0.40625 l -1.5625,0.21875 -0.0625,-2.1875 z m -57.4375,4.8125 c -0.869617,0.254837 -1.160879,1.270587 -1.125,1.875 0.841426,1.071634 1.550083,0.762165 2.358263,0.530613 -0.149853,2.778017 -0.09687,2.960688 -0.307049,5.839254 L 20,62.798828 l -1.8125,-5 c -0.685279,-1.0483 -1.674767,-1.184 -2.6875,-1.25 -2.114204,0.9453 -1.914912,2.0835 -2.125,3.1875 0.02865,2.4961 1.064106,4.4888 1.6875,6.6875 -1.208333,-0.6832 -2.416667,-0.9237 -3.625,-2.6875 -1.235051,-1.5953 -2.4774265,-3.1797 -3.0625,-5.75 L 8,56.361328 Z m 36.3125,1.15625 2.5625,1.15625 0.0625,0.5625 -11.625,3.3125 0.03125,-2.53125 c 0.34375,0 8.96875,-2.5 8.96875,-2.5 z m -12.53125,3.59375 -0.0625,2.5 -2.03125,0.59375 -0.03125,-0.5625 c -0.190449,-0.5644 -1.674783,-0.899 -2.46875,-1.3125 z m 15.71875,2.9375 1.03125,10.25 -18.5625,6.03125 -1.21875,-10.59375 z m -27.25,0.4375 2.84375,1.1875 0.03125,0.5 -10.375,3 0.28125,-2.90625 z m -11.5,3.125 0,2.5625 -8.9375,2 c -2.799762,0.4205 -3.253784,0.4217 -4.9375,0.4375 l -0.75,-1.5625 c 1.75,-0.6506 3.5,-1.1504 5.25,-0.8125 z m 14.9375,3.625 1.3125,10.625 -10.125,2.6875 c -2.933684,0.2462 -6.033155,0.6582 -8.5,0.4375 -3.275098,-1.4524 -7.153798,-4.0348 -9.0625,-7.375 L 29,71.111328 Z" transform="translate(0,946.06299)" id="path4453" inkscape:connector-curvature="0" sodipodi:nodetypes="ccccssscccccccccccccccccccccccccccccccccccccccccccccccccccccccccccccccccccccccccccccccccccccc"/>
    <path style="opacity:1;fill:#616161;fill-opacity:0.99215686;fill-rule:evenodd;stroke:#ff6600;stroke-width:0.35433072;stroke-linecap:butt;stroke-linejoin:miter;stroke-miterlimit:4;stroke-dasharray:none;stroke-opacity:1" d="m 5.7208908,996.2492 c 0.3905493,-1.01809 -1.4641252,-1.68693 -3.5,-0.375 -0.85291,1.5206 -0.81924,2.8935 -0.6875,4.25 3.6035765,9.1776 4.0455498,8.8334 5.5,10.4376 -1.7577417,-2.2726 -2.3116534,-5.3478 -3.125,-8.25 l -0.5625,-3.1876 c 0.140701,-1.4635 1.422621,-2.2232 2.375,-2.875 z" id="path6432-6-1" inkscape:connector-curvature="0" sodipodi:nodetypes="ccccccc"/>
    <path style="opacity:0.52700016;fill:url(#pattern6618-0);fill-opacity:1;fill-rule:evenodd;stroke:none;stroke-width:0.35433072;stroke-linecap:butt;stroke-linejoin:miter;stroke-miterlimit:4;stroke-dasharray:none;stroke-opacity:1" d="m 97.015759,990.69148 c -0.08897,1.0739 -0.495265,2.0843 0.1875,3.3125 -1.718092,-0.75217 -4.203308,-1.67481 -4.5625,-2.125 z" id="path6526-5" inkscape:connector-curvature="0" sodipodi:nodetypes="cccc"/>
    <path style="opacity:0.52700016;fill:url(#pattern6618-6);fill-opacity:1;fill-rule:evenodd;stroke:none;stroke-width:0.35433072;stroke-linecap:butt;stroke-linejoin:miter;stroke-miterlimit:4;stroke-dasharray:none;stroke-opacity:1" d="m 75.765759,996.62898 c -0.08897,1.0739 -0.495265,2.0843 0.1875,3.31252 -1.523869,-0.7053 -3.189735,-1.26861 -4.5625,-2.12502 z" id="path6526-4" inkscape:connector-curvature="0" sodipodi:nodetypes="cccc"/>
    <path style="opacity:0.52700016;fill:url(#pattern6618);fill-opacity:1;fill-rule:evenodd;stroke:none;stroke-width:0.35433072;stroke-linecap:butt;stroke-linejoin:miter;stroke-miterlimit:4;stroke-dasharray:none;stroke-opacity:1" d="m 51.4375,1003.3622 c -0.08897,1.0739 -0.495265,2.0843 0.1875,3.3125 l -4.5625,-2.125 z" id="path6526" inkscape:connector-curvature="0" sodipodi:nodetypes="cccc"/>
    <path style="opacity:1;fill:#616161;fill-opacity:0.99215686;fill-rule:evenodd;stroke:#ff6600;stroke-width:0.35433072;stroke-linecap:butt;stroke-linejoin:miter;stroke-miterlimit:4;stroke-dasharray:none;stroke-opacity:1" d="m 17.116706,1003.2988 c -0.759414,-0.5581 -1.287455,-1.1326 -2.875,0 -0.85291,1.5206 -0.81924,2.8935 -0.6875,4.25 2.783061,9.1775 3.979157,8.8333 5.5,10.4375 l -3.125,-8.25 -0.875,-3.6875 c 0.140701,-1.4635 1.110121,-2.0982 2.0625,-2.75 z" id="path6432-6" inkscape:connector-curvature="0" sodipodi:nodetypes="ccccccc"/>
    <path style="opacity:0.52700016;fill:url(#pattern6524);fill-opacity:1;fill-rule:evenodd;stroke:#ff6600;stroke-width:0.35433072;stroke-linecap:butt;stroke-linejoin:miter;stroke-miterlimit:4;stroke-dasharray:none;stroke-opacity:1" d="m 17.0625,1003.2997 c -0.759414,-0.5581 -1.287455,-1.1326 -2.875,0 -0.85291,1.5206 -0.81924,2.8935 -0.6875,4.25 2.783061,9.1775 3.979157,8.8333 5.5,10.4375 l -3.125,-8.25 -0.875,-3.6875 c 0.140701,-1.4635 1.110121,-2.0982 2.0625,-2.75 z" id="path6432" inkscape:connector-curvature="0" sodipodi:nodetypes="ccccccc"/>
    <path style="opacity:0.42600002;fill:url(#pattern6430);fill-opacity:1;fill-rule:evenodd;stroke:#ff6600;stroke-width:0.35433072;stroke-linecap:butt;stroke-linejoin:miter;stroke-miterlimit:4;stroke-dasharray:none;stroke-opacity:1" d="m 79.625,995.1122 0.125,1.375 c 0.166667,0.0833 0.481168,0.31372 0.411612,0.51517 l -0.0846,2.38193 -0.889515,0.2904 0.125,2.875 4.6875,-1.5 c 0.367417,-0.2403 1,-0.566 1.5,-2.0625 -0.06288,-0.69159 -0.545586,-1.16663 -0.875,-1.80492 -0.366557,-0.35094 -0.998454,-0.70249 -1.382583,-0.58459 l -1.422334,0.22411 -0.0076,-1.9596 z" id="path6338" inkscape:connector-curvature="0" sodipodi:nodetypes="ccccccccccccc"/>
    <path style="opacity:0.42600002;fill:url(#pattern6336);fill-opacity:1;fill-rule:evenodd;stroke:#ff6600;stroke-width:0.35433072;stroke-linecap:butt;stroke-linejoin:miter;stroke-miterlimit:4;stroke-dasharray:none;stroke-opacity:1" d="m 56.408471,1004.2372 1.966529,-0.625 0,-2.5 3.5,-0.625 0,2.125 11.8125,-3.5625 0.5,5.1875 -18.8125,5.6875 -0.3125,-3.0625 1.3125,-0.5625 c -0.08797,-0.6864 -0.023,-1.4155 0.03347,-2.0625 z" id="path6244" inkscape:connector-curvature="0" sodipodi:nodetypes="ccccccccccc"/>
    <path style="opacity:0.42600002;fill:url(#pattern6242);fill-opacity:1;fill-rule:evenodd;stroke:#ff6600;stroke-width:0.35433072;stroke-linecap:butt;stroke-linejoin:miter;stroke-miterlimit:4;stroke-dasharray:none;stroke-opacity:1" d="m 35.885669,998.84306 -0.22097,5.87784 4.286834,-1.1491 0.08839,-3.0052 -1.856156,0.3536 -0.795495,-0.8839 -0.353553,-1.32583 z" id="path6150" inkscape:connector-curvature="0" sodipodi:nodetypes="cccccccc"/>
    <path style="opacity:0.42600002;fill:url(#pattern6148);fill-opacity:1;fill-rule:evenodd;stroke:#ff8e00;stroke-width:0.35433072;stroke-linecap:butt;stroke-linejoin:miter;stroke-miterlimit:4;stroke-dasharray:none;stroke-opacity:1" d="m 21.375,1012.7372 3.75,-0.375 10.125,-2.25 0.125,-2.375 4.125,-1.25 0,2.75 10.125,-2.875 0.625,5.125 -18.875,5.25 -7.375,0.875 z" id="path5966" inkscape:connector-curvature="0"/>
    <path style="opacity:0.42600002;fill:url(#pattern5964);fill-opacity:1;fill-rule:evenodd;stroke:#d45500;stroke-width:0.35433072;stroke-linecap:butt;stroke-linejoin:miter;stroke-miterlimit:4;stroke-dasharray:none;stroke-opacity:1" d="m 5.4375,995.5497 c -0.8438785,-0.34375 -2.0780098,-0.42791 -2.75,0.1875 -0.9729212,0.891 -1.1574773,2.49666 -1.0625,3.8125 0.1967548,2.7259 2.0032806,5.101 3.3125,7.5 1.1597968,2.1252 2.2483104,4.3912 4,6.0625 1.858673,1.7733 5.8125,3.6875 7.25,4 l 0.1875,-2.125 -1.25,-2.5 c 0,0 -2.481283,-1.1882 -3.375,-2.1875 -2.0496331,-2.2918 -3.1169727,-5.3453 -4.125,-8.25 -0.571999,-1.6482 -0.3689602,-3.52411 -1.0625,-5.125 -0.2734215,-0.63113 -0.4880055,-1.11552 -1.125,-1.375 z" id="path4483" inkscape:connector-curvature="0" sodipodi:nodetypes="ssssscccssss"/>
    <path style="color:#000000;font-style:normal;font-variant:normal;font-weight:normal;font-stretch:normal;font-size:medium;line-height:normal;font-family:sans-serif;text-indent:0;text-align:start;text-decoration:none;text-decoration-line:none;text-decoration-style:solid;text-decoration-color:#000000;letter-spacing:normal;word-spacing:normal;text-transform:none;direction:ltr;block-progression:tb;writing-mode:lr-tb;baseline-shift:baseline;text-anchor:start;white-space:normal;clip-rule:nonzero;display:inline;overflow:visible;visibility:visible;opacity:1;isolation:auto;mix-blend-mode:normal;color-interpolation:sRGB;color-interpolation-filters:linearRGB;solid-color:#000000;solid-opacity:1;fill:#949494;fill-opacity:1;fill-rule:evenodd;stroke:#797979;stroke-width:0.70866144;stroke-linecap:butt;stroke-linejoin:round;stroke-miterlimit:4;stroke-dasharray:none;stroke-dashoffset:0;stroke-opacity:1;color-rendering:auto;image-rendering:auto;shape-rendering:auto;text-rendering:auto;enable-background:accumulate" d="m 10.429688,1002.1191 -1.3281255,0.3927 0.15625,1.2499 c -0.00884,0.4568 0.3019391,0.991 0.6035156,1.2735 l 3.7812499,3.375 -0.316406,-2.0332 -2.802734,-2.3984 z" id="path4425" inkscape:connector-curvature="0" sodipodi:nodetypes="cccccccc"/>
    <path style="color:#000000;font-style:normal;font-variant:normal;font-weight:normal;font-stretch:normal;font-size:medium;line-height:normal;font-family:sans-serif;text-indent:0;text-align:start;text-decoration:none;text-decoration-line:none;text-decoration-style:solid;text-decoration-color:#000000;letter-spacing:normal;word-spacing:normal;text-transform:none;direction:ltr;block-progression:tb;writing-mode:lr-tb;baseline-shift:baseline;text-anchor:start;white-space:normal;clip-rule:nonzero;display:inline;overflow:visible;visibility:visible;opacity:1;isolation:auto;mix-blend-mode:normal;color-interpolation:sRGB;color-interpolation-filters:linearRGB;solid-color:#000000;solid-opacity:1;fill:#4f2500;fill-opacity:1;fill-rule:evenodd;stroke:none;stroke-width:0.70866144;stroke-linecap:butt;stroke-linejoin:bevel;stroke-miterlimit:4;stroke-dasharray:none;stroke-dashoffset:0;stroke-opacity:1;color-rendering:auto;image-rendering:auto;shape-rendering:auto;text-rendering:auto;enable-background:accumulate" d="m 84.949219,35.125 c -0.198294,0.01192 -0.348872,0.04042 -0.423828,0.07227 L 7.7128906,53.476562 C 7.6560078,53.200077 7.5925118,52.919499 7.5390625,52.646484 7.4622645,51.860334 7.2696055,50.4758 6.1113281,49.53125 5.6085136,49.08156 5.233138,48.678048 3.4589844,48.986328 0.04333325,49.673398 1.1779268,54.483622 2.5,57.294922 c 1.0689719,2.2731 2.5612626,4.94549 3.7011719,6.83789 2.4874837,4.129562 6.8120561,6.965678 11.5019531,7.851563 0.741728,1.110699 1.543222,2.185675 2.414063,3.212891 1.602229,1.9935 3.668597,4.5239 6.15625,5.9375 6.012438,4.143 13.781964,4.281071 20.591796,2.513672 11.418142,-2.7773 22.624581,-6.675179 33.650391,-10.767579 5.724117,-2.1246 11.399566,-4.106381 17.03125,-6.425781 2.803805,-1.1547 7.741885,-3.364515 7.683595,-4.978516 -0.10103,-2.797175 -2.41743,-3.421767 -4.63086,-2.726562 l 0,-10.820312 c 0.18192,-0.0961 0.79011,-0.304379 1.01562,-0.392579 0.0283,-0.76224 0.13285,-1.754371 0.15235,-2.607421 -0.4627,-0.376963 -0.92777,-0.747796 -1.60352,-1.058594 l 2.73633,-0.771485 c 0.76171,-0.15678 1.29724,-0.505749 0.72656,-1.505859 C 103.05628,40.59364 101.21583,40.87069 100.91016,41 l -1.386722,0.367188 c 0.09598,-0.273823 0.11263,-0.626965 -0.15625,-0.976563 -0.492346,-0.64014 -1.495269,-0.710074 -2.425782,-0.552734 -0.01964,7.05e-4 -1.409272,0.366166 -1.65039,0.425781 0.02229,-0.01775 0.05609,-0.0345 0.07422,-0.05273 0.121035,-0.12177 0.139955,-0.63749 -0.138672,-1.16211 -0.278627,-0.52462 -1.017704,-0.531929 -1.455078,-0.537109 -0.232642,-0.0027 -0.767735,0.08672 -2.386718,0.458984 0.01608,-0.0172 0.03498,-0.03033 0.05078,-0.05078 0.06461,-0.14372 0.499192,-1.162955 -0.128906,-1.615234 -0.722799,-0.704831 -1.705956,-0.434627 -2.246094,-0.441407 l -1.712891,0.431641 c 0.435535,-0.47098 0.22038,-1.205217 -0.177734,-1.56836 C 86.557979,35.192907 85.544099,35.08924 84.949219,35.125 Z m 0.597656,0.701172 c 1.035835,-0.04301 1.683117,0.74969 0.802734,1.083984 -24.687464,6.0681 -49.212593,12.459909 -74.111328,18.105469 -0.952135,0.2159 -2.781164,0.596031 -3.9589841,0.144531 L 8.078125,54.214844 85.083984,35.900391 c 0.160541,-0.04404 0.314915,-0.06808 0.462891,-0.07422 z m 3.939453,1.6875 c 0.371015,-0.03947 0.712597,-0.0091 0.892578,0.191406 0.437357,0.48735 -0.248153,0.687268 -0.43164,0.798828 L 35.75,52.019531 c -0.06108,0.0226 -1.226885,0.08431 -1.539062,-0.332031 -0.309517,-0.41276 0.396706,-0.590738 0.880859,-0.710938 L 88.421875,37.736328 c 0.29313,-0.07446 0.693438,-0.183187 1.064453,-0.222656 z m 3.94336,1.595703 c 0.247168,-0.02519 0.505541,-0.0043 0.642578,0.15625 0.212963,0.24952 0.358028,0.495079 -0.253907,0.662109 L 39.353516,54.019531 c -0.0093,0 -1.149185,0.283236 -1.632813,-0.464843 -0.230613,-0.356691 0.198258,-0.498824 0.294922,-0.572266 0.151913,-0.0404 1.434985,-0.379746 1.710937,-0.453125 3.14586,-0.80229 53.126954,-13.302735 53.126954,-13.302735 0.09316,-0.0217 0.329003,-0.092 0.576172,-0.117187 z m 4.125,1.265625 c 0.293981,-0.0057 0.560045,0.04607 0.673828,0.167969 0.378645,0.40565 0.09638,0.660036 -0.251954,0.753906 -18.436352,4.96758 -54.001628,14.377944 -55.376953,14.652344 -0.525961,0.1049 -1.729356,0.28235 -1.978515,-0.15625 -0.210545,-0.3707 0.139579,-0.538316 0.267578,-0.666016 L 96.710938,40.552734 c 0.227142,-0.108985 0.549768,-0.172007 0.84375,-0.177734 z m 4.478512,1.082031 c 0.2051,0.0075 0.40545,0.09868 0.62891,0.335938 0.55761,0.59209 -0.89773,0.720618 -1.00977,0.792969 L 25.351562,63.521484 c -1.705483,-0.2029 -2.718585,0.246985 -4.089843,0.833985 l -0.552735,-1.269531 c 26.707653,-7.0889 54.520886,-14.657186 80.123046,-21.265626 0.50437,-0.155887 0.85934,-0.375862 1.20117,-0.363281 z m -1.96484,2.873047 0.85156,0.533203 c -0.85603,0.25301 -1.528258,0.472251 -2.20117,0.712891 -0.277514,-0.0885 -0.772129,-0.399715 -1.150391,-0.552734 z m 1.11133,1.025391 -0.0215,1.769531 c -0.59915,0.21833 -1.667233,0.698854 -2.298825,0.802734 l -0.02148,-1.849609 z m -4.173831,0.142578 1.035157,0.376953 -0.08594,1.771484 c -0.471646,-0.14461 -0.862477,-0.300298 -1.322266,-0.486328 -0.623491,-0.22679 -1.256514,-0.499554 -1.871093,-0.677734 -0.265643,-0.11123 -0.821464,-0.236901 -0.189453,-0.300781 0.812941,-0.22046 1.623978,-0.451254 2.433595,-0.683594 z m -4.892578,0.640625 c 0.672696,0.27771 1.430874,0.592326 1.746094,0.757812 0.230288,0.10437 0.54135,0.104605 0.453125,0.427735 l 0.615234,13.412109 c -4.934541,1.753254 -9.864447,3.525316 -14.804687,5.267578 -0.153466,-2.988968 -0.310883,-6.077442 -0.466797,-9.173828 1.333503,-0.437063 2.666714,-0.875478 3.998047,-1.318359 1.253381,-0.4169 2.738552,-1.952247 1.994141,-3.535157 -0.801897,-1.705151 -2.110803,-1.936519 -3.517579,-1.705078 l 0.04102,-1.333984 z m 2.966797,1.429687 1.785156,0.798829 0.324219,12.943359 c -0.650532,-0.145 -1.13173,-0.389225 -1.388672,-0.453125 z m 4.677734,0.882813 0.15625,12.11914 c -0.401967,0.179201 -1.490195,0.580472 -1.880859,0.638672 l -0.3125,-12.517578 c 0.583092,0.30443 1.489243,-0.02767 2.037109,-0.240234 z m -18.304687,0.830078 -0.103516,3.248047 -0.978515,0.296875 0.09961,-1.876953 c -0.03832,-0.20138 0.0045,-0.383048 -0.339844,-0.580078 -0.02684,-0.01222 -0.08658,-0.03227 -0.115234,-0.04492 l 0.0098,-0.664063 z M 5.2363281,49.480469 c 0.1502983,0.90208 -2.240106,1.385937 -2.21875,3.841797 0.2630566,1.34619 0.6491423,3.761518 1.515625,6.511718 -0.7638545,-1.2714 -2.1536389,-5.686445 -2.2734375,-7.634765 -0.082939,-1.34886 0.799544,-2.81371 2.9765625,-2.71875 z m 74.0800779,0.261719 -0.0039,0.314453 c -0.16272,-0.06153 -0.281401,-0.112796 -0.474609,-0.179688 z m -0.701172,0.52539 c 0.317105,0.14174 0.919008,0.338721 1.017578,0.457031 -0.399782,0.0948 -1.796948,0.622108 -2.195312,0.673829 -0.439058,-0.1894 -0.761133,-0.444397 -1.019531,-0.529297 z m 4.621094,0.576172 c 0.764194,-0.09669 1.212521,0.654514 0.822266,0.898438 -0.376832,0.23553 -1.190314,0.55112 -2,0.83789 l 0.04102,-1.341797 c 0.262884,-0.104508 0.52353,-0.224895 0.792969,-0.296875 0.120609,-0.05237 0.23458,-0.08384 0.343745,-0.09766 z M 5.1953125,50.92383 c 2.2553885,1.07716 1.2017346,4.582616 2.5234375,6.728516 1.2679652,3.830191 3.540549,7.55824 7.269531,9.36914 0.547442,1.266398 1.180823,2.490219 1.892578,3.671875 -0.991928,-0.237587 -1.964824,-0.554531 -2.904297,-0.986328 -4.0583427,-1.8446 -7.3656073,-5.348478 -8.4687495,-9.705078 -0.655719,-2.5896 -3.1348211,-6.983305 -0.3125,-9.078125 z m 74.6699215,0.171875 -0.02539,1.892578 -0.330078,0.09961 0.0039,0.01367 -1.929688,0.628907 0.01563,-1.941407 z m -4.167968,0.175781 1.15039,0.535157 -0.0918,1.83789 -3.916015,-1.566406 c 0.929992,-0.24555 1.933036,-0.540901 2.857425,-0.806641 z M 33.34375,51.40625 c -0.213143,0.567587 -0.342546,1.38544 0.142578,1.880859 0.486639,0.496992 1.465819,0.415566 2.078125,0.310547 l -0.277344,4.722656 -14.90625,3.933594 c -0.775248,-2.44953 -1.315263,-5.146863 -3.933593,-6.046875 l -0.748047,-0.0625 c -3.462543,0.6279 -2.722301,4.773025 -1.970703,7.390625 0.212993,0.741812 0.466325,1.466604 0.736328,2.183594 -3.227262,-1.88091 -4.8821222,-5.24252 -5.9140628,-8.794922 l 0.1875,-0.002 c 1.5877768,-0.461 3.0767118,-0.668356 3.9785158,-0.535156 6.957536,-1.605805 13.817387,-3.276016 20.626953,-4.980469 z m 37.726562,0.660156 1.78125,0.798828 c -3.526018,1.01771 -7.043244,2.067081 -10.560546,3.121094 -0.05244,-0.557171 0.03238,-1.222704 0.03675,-1.451384 -0.807629,0.168947 8.74255,-2.468538 8.742546,-2.468538 z m 13.628907,0.08789 c 0.810891,0.38126 -0.08209,1.706799 -0.431641,1.974609 -1.251498,0.8543 -3.257771,1.352947 -3.855469,1.560547 -0.267666,0.082 -0.535102,0.164094 -0.802734,0.246094 C 79.576899,55.286821 79.543005,54.63476 79.511719,54 c -0.01181,-0.01319 -0.0253,-0.02325 -0.04492,-0.04102 1.737817,-0.557714 3.611737,-1.294501 5.23242,-1.804684 z m -47.861328,1.142578 c -0.02584,0.112136 -0.03227,0.234352 -0.04297,0.355469 -0.127615,-0.08072 -0.255197,-0.161473 -0.382813,-0.242188 z m 37.205078,0.107422 c 0.404297,0.20026 1.550781,0.68489 1.955078,0.837891 l 0.912109,14.394531 c -0.254646,-0.1624 -1.262111,-0.565525 -1.460937,-0.765625 z m -0.625,0.412109 c 0.03108,0.483681 0.07169,0.970633 0.109375,1.457032 -3.801578,1.197335 -7.569804,2.359474 -11.324219,3.503906 l 0.05273,-1.664063 c 3.717157,-1.110344 7.435514,-2.219772 11.162114,-3.296875 z m -37.175781,0.324219 c 0.205949,0.130534 0.411238,0.26207 0.617187,0.392578 0.006,0.01996 0.009,0.04086 0.01563,0.06055 0.09887,0.294162 0.303219,0.474592 0.548828,0.591797 l -0.210937,2.626953 -1.203125,0.318359 z m 42.671874,0.05273 c -0.03801,0.400343 0.601378,13.777383 0.601563,13.78125 -0.417969,0.1621 -1.466797,0.419932 -1.884766,0.582032 L 76.611328,54.449219 c 0.289769,0.1479 0.6769,0.190037 1.169922,0.08594 0.428188,-0.091 0.975478,-0.319997 1.132812,-0.341805 z m -39.294921,1.00586 c -0.151264,0.273053 -0.171675,0.607723 -0.02734,0.970703 0.0096,0.02409 0.02727,0.04508 0.03906,0.06836 l -0.08398,0.958985 -1.511719,0.398437 0.160156,-2.240234 c 0.296019,0.01955 0.586537,0.01563 0.806641,0.0039 0.01302,-0.002 0.572006,-0.149561 0.617182,-0.160151 z m 21.978515,0.04343 -0.103515,3.513212 -1.375,0.416016 c 0.0071,-0.5066 0.0077,-1.014431 0.05078,-1.519531 l 0.113281,-2.06204 z m -3.57889,0.457797 c 0.0014,0.611908 0.02648,0.980321 -0.0012,1.563228 -0.469213,0.14033 -0.938893,0.279957 -1.408203,0.419922 0.0031,-0.101551 -0.02482,-0.212241 -0.271484,-0.449219 -0.276768,-0.265931 -0.879678,-0.467297 -1.314453,-0.648437 z m 15.555453,0.197994 c 0.05047,0.611727 0.09986,1.223225 0.158203,1.83789 -6.011774,1.840695 -12.022574,3.670894 -18.046875,5.447266 l -0.183594,-1.738282 c 5.210218,-1.591445 10.411989,-3.215781 15.628906,-4.779296 0.797094,-0.252854 1.617075,-0.510494 2.44336,-0.767578 z M 59.503178,55.660841 c -0.0146,0.7461 -0.06098,1.890229 -0.08325,2.636029 l -0.04297,0.671875 -0.708984,-0.451172 0.149663,-2.65556 c 0.228515,-0.067 0.457031,-0.134172 0.685545,-0.201172 z m -19.212162,1.147748 c 0.09109,0.04395 0.186607,0.08054 0.289062,0.115234 l -0.30664,0.08008 z m 14.316406,0.228515 c 0.117217,0.1561 1.028552,0.402235 1.232422,0.552735 -0.634323,0.1655 -1.758255,0.488897 -2.392578,0.654297 -0.16038,-0.097 -0.900377,-0.276304 -1.244141,-0.470703 0.764552,-0.2143 1.639744,-0.521929 2.404297,-0.736329 z m -38.789063,0.16211 c 0.554135,0.2096 -0.546212,0.782653 -0.972656,1.626953 -0.35618,0.7052 -0.247445,1.880403 0.02539,2.845703 0.75047,2.6553 1.755634,5.463328 2.71875,8.048828 -0.364212,0.2652 -4.355694,-7.054512 -3.619141,-10.882812 0.137552,-0.7149 0.991061,-1.761672 1.847657,-1.638672 z m 40.173829,0.849609 0.06445,2.017578 -2.447266,0.847656 0.03125,-2.193359 c 0.69171,-0.1626 1.662826,-0.497175 2.351566,-0.671875 z m -4.667969,0.02344 1.658203,0.65625 -0.05859,2.177734 c -1.302321,-0.5397 -3.264112,-1.52356 -4.557904,-2.05396 0.890625,-0.2377 2.067677,-0.542424 2.958291,-0.780024 z m -34.160157,0.207031 c 0.912277,-0.06307 1.022236,0.858112 1.291016,1.476562 0.93955,2.1616 1.550138,5.396475 2.646484,7.671875 2.439435,6.5957 8.389741,11.808719 15.244141,13.324219 7.572325,0.9519 14.858193,-2.127969 22.039063,-4.042969 15.077078,-4.6126 29.812538,-10.246434 44.511714,-15.927734 1.07998,-0.4351 1.51398,0.290966 1.60547,0.572266 0.37326,1.1477 -4.32928,2.809618 -5.515622,3.261718 -6.216195,2.3687 -12.447924,4.771685 -18.722656,7.083985 -10.730187,3.9542 -21.581708,7.643753 -32.671875,10.439453 -6.657527,1.7667 -14.287996,2.325447 -20.310547,-1.626953 -4.253985,-2.3658 -6.937328,-6.61421 -8.519531,-11.09961 -1.325098,-3.0349 -2.523082,-5.709784 -3.042969,-8.958984 -0.106747,-0.6671 -0.02832,-1.753731 1.001953,-2.082031 0.165845,-0.05285 0.313034,-0.08279 0.443359,-0.0918 z m 40.800782,0.111328 -0.01367,0.298828 c 0.06557,0.1069 0.104613,0.239178 0.1875,0.330078 0.350186,0.223187 0.700595,0.444855 1.050781,0.667969 -0.891558,0.269417 -1.786072,0.543743 -2.675781,0.810547 0.127889,-0.207057 0.100226,-0.497362 0.09375,-0.732422 l 0,-0.970703 c 0.452884,-0.134438 0.90464,-0.269524 1.35742,-0.404297 z m -11.057445,0.515893 c 0.926189,0.34349 1.577611,0.641719 2.31721,0.948951 -3.135561,0.905299 -6.277821,1.78359 -9.43164,2.617187 L 39.9375,60.835938 Z m 26.922679,-0.187771 c 0.30526,3.046851 0.671996,6.110953 0.994141,9.136719 -5.973839,2.069595 -11.96972,4.068774 -18.013672,5.914062 l -1.009766,-9.511713 c 6.032683,-1.769772 12.042357,-3.621863 18.029297,-5.539068 z m 28.458982,0.513672 c 0.30423,0.0046 0.53693,0.0825 0.68164,0.255859 0.3135,0.375543 -1.13162,0.976216 -2.50586,1.462891 0.19659,-0.404006 0.15021,-0.885366 0.13868,-1.34961 0.67192,-0.223307 1.2582,-0.375646 1.68554,-0.36914 z m -52.060544,1.43164 1.763672,0.767579 c 0.520739,4.855 1.145957,10.167743 1.623046,15.027343 -0.227791,-0.1451 -1.215721,-0.503709 -1.591796,-0.662109 -0.527166,-4.662867 -1.300094,-10.058787 -1.904297,-15.101563 0.03643,-0.01053 0.07295,-0.02072 0.109375,-0.03125 z m -0.931641,0.265626 0.21875,1.65039 c -3.153014,0.926991 -6.300024,1.841763 -9.443359,2.742188 -0.178205,0.05105 -0.363984,0.104652 -0.542969,0.15625 l 0.166015,-1.884766 c 3.211129,-0.848716 6.409983,-1.746104 9.601563,-2.664062 z m -10.087891,0.111328 -0.396484,4.505859 -1.363281,0.330078 0.314453,-4.427734 z m 15.539063,0.248046 c 0.08136,0.658801 0.122677,1.023379 0.289062,2.517579 0.256192,2.3006 0.961724,7.374956 1.449219,12.035156 -0.809373,0.278 -1.561176,0.571472 -2.175781,0.763672 -0.522292,-4.8098 -1.200617,-10.175735 -1.677735,-14.990235 0.232766,0.1337 0.302667,0.112791 0.669922,0.212891 0.211604,-0.063 1.147652,-0.451362 1.445313,-0.539063 z m 40.728515,0.25586 c 0.532553,0.225533 1.157352,0.38886 1.691407,0.564453 -13.322999,5.085534 -26.722252,10.22412 -40.427735,14.242187 0.144691,-0.237064 0.371855,-0.454645 0.263672,-0.75 l -0.08789,-0.824218 c 6.34591,-1.991378 12.664299,-4.096331 18.488281,-6.091797 0.01131,0.0041 0.01946,0.01205 0.03125,0.01563 l 1.810547,0.769531 c 0.862595,-0.2999 2.027572,-0.65285 3,-1.03125 -0.02226,-0.436538 -0.04733,-0.95173 -0.07031,-1.400391 5.943034,-2.070358 11.447651,-4.112335 15.300778,-5.494145 z m -58.578124,0.146484 -0.306641,3.753906 -0.9375,-1.240234 0.128906,-2.199219 z M 35.0625,62.208984 c -0.03009,0.498491 -0.05699,0.996252 -0.08203,1.494141 -3.445755,0.850387 -6.906387,1.637752 -10.392578,2.328125 -0.931406,0.163002 -1.869144,0.216987 -2.808594,0.232422 -0.09745,-0.275099 -0.195011,-0.549572 -0.28125,-0.828125 l 0.123047,-0.05664 c 1.271265,-0.5279 2.55123,-0.716353 3.955078,-0.501953 l 1.222656,-0.339844 z m 14.539062,1.015625 0.220704,1.664063 c -7.020167,2.020302 -14.066932,3.953183 -21.169922,5.722656 -1.443574,0.233357 -2.93323,0.415584 -4.429688,0.525391 -0.432296,-0.64627 -0.830076,-1.314882 -1.191406,-2.003907 3.397098,0.08685 6.880891,-0.585893 10.113281,-1.380859 2.034614,-0.500415 4.060041,-1.030945 6.082031,-1.576172 l 0.002,-0.002 c 3.471061,-0.93596 6.926938,-1.924739 10.373,-2.949172 z M 35.15625,64.728516 c 0.108652,0.143222 0.23318,0.277543 0.328125,0.427734 0.306622,0.404857 0.6133,0.809906 0.919922,1.214844 -4.450967,1.25653 -9.068982,2.374765 -13.658203,2.201172 -0.205154,-0.419941 -0.394339,-0.8474 -0.572266,-1.279297 4.400503,-0.188801 8.695909,-1.519713 12.982422,-2.564453 z m 14.806641,1.21289 1.259765,9.484375 c -2.839583,0.813957 -5.692081,1.590534 -8.558594,2.316407 -3.146838,0.8253 -6.434617,1.064578 -9.46289,0.830078 -3.303738,-1.315393 -6.111773,-3.591925 -8.240234,-6.400391 6.424707,-0.499477 12.594275,-2.812272 18.787109,-4.5 2.074664,-0.565387 4.145799,-1.143796 6.214844,-1.730469 z m 1.615234,10.464844 c 0.106528,0.106499 0.230144,0.191615 0.394531,0.222656 0.495965,0.2054 0.992316,0.409935 1.488282,0.615235 0.04312,-0.0077 0.08713,0.01039 0.130859,0.02539 -2.356939,0.657428 -4.722278,1.284336 -7.099609,1.863281 -3.351831,0.7781 -7.16423,1.27141 -10.394532,0.34961 5.328562,0 10.42383,-1.529699 15.480469,-3.076172 z" id="path4298-8-8" inkscape:connector-curvature="0" sodipodi:nodetypes="scccccssccccscsccccccsccscccscccccccsscccccssccccscsssccccccssscccccssccccccsccccccccccccccccccccccccsccccccccccccccccccccccccsccccccccccsscccscccccsccccccccccccccccccccscccccccccccccccccccccccccccccccccccccccccccccccccccccccccccccccccccccccccccccccccccccccccscccccccscccscccccccscccccsccccccccccccccscccscccsccccccccsccccccccccccccccccccccccccccccccccccccccccccccccccccccccccccsccccccccc" transform="translate(0,946.06299)"/>
    <path style="fill:#380000;fill-opacity:1;fill-rule:evenodd;stroke:none;stroke-width:0.70866144;stroke-linecap:butt;stroke-linejoin:miter;stroke-miterlimit:4;stroke-dasharray:none;stroke-opacity:1" d="m 7.125,66.798828 c -0.375,0.25 -2.4375,1.8125 -2.4375,1.8125 l 6.875,15.0625 c 1.227426,2.6892 2.848307,4.1874 4.4375,5.1875 0,0 4.780671,3.3791 7.5,4.25 2.047053,0.6556 4.292595,0.515 6.4375,0.375 2.772518,-0.181 6.9555,1.467044 9.513325,0.382044 1.0323,-0.4379 1.665329,-1.6531 2.75,-1.9375 3.258414,-0.8543 6.663381,-2.417 9.9375,-4 1.236488,-0.5978 2.510366,-1.1258 3.8125,-1.5625 2.165524,-0.7263 4.388578,-1.2859 6.625,-1.75 2.847421,-0.591 5.716921,-1.3228 8.625,-1.3125 2.911286,0.01 5.818625,0.6004 8.625,1.375 1.730357,0.4776 3.278001,1.4931 5,2 3.664757,1.0788 7.443738,2.5139 11.25,2.1875 1.110265,-0.095 2.462596,-0.2914 3.125,-1.1875 0.757052,-1.0241 0.870215,-2.7002 0.25,-3.8125 -0.930418,-1.6687 -3.253325,-2.0734 -5.0625,-2.6875 -2.620556,-0.8894 -5.435707,-1.0816 -8.1875,-1.375 -3.152162,-0.336 -6.332023,-0.5514 -9.5,-0.4375 -3.186736,0.1145 -6.37063,0.5123 -9.5,1.125 -2.078272,0.4069 -4.096784,1.0783 -6.125,1.6875 -2.706879,0.8131 -5.396043,1.6878 -8.0625,2.625 -2.836414,0.9969 -5.659419,2.038 -8.4375,3.1875 -1.499192,0.6203 -0.300036,1.0388 -4.4375,2 -4.11704,0.9565 -8.062247,-0.170344 -12.575825,-0.757044 -2.674122,-0.3476 -3.571454,-0.9617 -4.4375,-1.875 -1.139331,-1.2015 -2.650565,-2.7059 -2.25,-4.3125 0.04647,-0.1864 0.40176,-0.1863 0.4375,-0.375 0.215037,-1.1355 -1.6875,-2.75 -1.625,-3.0625 0.0625,-0.3125 -0.125,-2.6875 -0.125,-2.6875 -0.337498,-1.2417 -0.438432,-0.5908 -0.625,-0.625 l -2.5625,1.625 c 0,0 0.295536,1.8696 0.625,2.75 0.787289,2.1038 1.669579,4.2816 3.1875,5.9375 0.925393,1.0095 2.072372,1.801 3.25,2.5 1.138129,0.6756 3.6875,1.625 3.6875,1.625 0,0 -3.488277,-0.093 -5.125,-0.625 -1.427929,-0.4641 -2.59946,-1.5063 -3.9375,-2.1875 -1.14629,-0.5836 -2.076524,-0.8614 -3.0625,-1.6875 -0.97466,-0.8166 -1.823075,-1.9795 -2.375,-3.125 -0.414899,-0.8611 -0.745435,-1.7858 -1.0625,-2.6875 -0.455582,-1.2957 -1.175247,-2.4948 -1.5625,-3.8125 -0.5495775,-1.87 -0.4842891,-3.8886 -1.0625,-5.75 -0.4398863,-1.4161 -1.8125,-4.0625 -1.8125,-4.0625 z m 74.011372,14.73556 c 1.776418,-0.05855 6.448409,0.332134 8.939453,1.146484 1.166667,0.3563 2.333333,0.6732 3.5,1.1875 1.55489,0.5076 5.048995,1.201 4.4375,1.75 -1.375,0.6695 -2.75,0.7037 -4.125,0.375 -2.139788,-0.07 -6.855552,-1.2725 -7.6875,-1.25 -1.030857,0.028 -5.841117,-2.9232 -5.6875,-3 -0.239261,-0.120425 0.03091,-0.189467 0.623047,-0.208984 z" transform="translate(0,946.06299)" id="path4429" inkscape:connector-curvature="0" sodipodi:nodetypes="ccscscscccccssccccccsccccssccscccssccccsscsscsccccccs"/>
    <path style="fill:#595959;fill-opacity:1;fill-rule:evenodd;stroke:#000000;stroke-width:0.70866144;stroke-linecap:butt;stroke-linejoin:miter;stroke-miterlimit:4;stroke-dasharray:none;stroke-opacity:1" d="m 4.25,1006.2997 c -0.1903722,2.8279 -0.1288757,5.3543 1,7.6874 0,0 1.1845307,-0.5729 1.0625,-0.7187 -0.9196932,-1.0984 -1.0263373,-5.8069 -1.125,-5.5625 z" id="path4436" inkscape:connector-curvature="0" sodipodi:nodetypes="ccscc"/>
    <path style="fill:#7e7e7e;fill-opacity:1;fill-rule:evenodd;stroke:#000000;stroke-width:0.70866144;stroke-linecap:butt;stroke-linejoin:miter;stroke-miterlimit:4;stroke-dasharray:none;stroke-opacity:1" d="m 16.225475,1015.7826 c -0.190372,2.8279 -0.128875,5.3543 1,7.6874 0,0 1.184531,-0.5729 1.0625,-0.7187 -0.919693,-1.0984 -1.026337,-5.8069 -1.125,-5.5625 z" id="path4436-4" inkscape:connector-curvature="0" sodipodi:nodetypes="ccscc"/>
    <path style="fill:none;fill-rule:evenodd;stroke:#9a5126;stroke-width:0.35433072;stroke-linecap:butt;stroke-linejoin:miter;stroke-miterlimit:4;stroke-dasharray:none;stroke-opacity:1" d="m 77.428193,1026.376 c 0.08839,-0.3535 4.008893,-0.2831 6.010407,-0.1768 3.266299,0.1735 6.585902,0.399 9.722719,1.3259 2.060286,0.6088 4.894444,0.8078 5.833631,2.74 0.343685,0.7071 0.229055,2.0947 -0.530331,2.2981 -1.637064,0.4385 -3.275497,0.2971 -4.684582,0.1768 -2.770212,-0.2366 -5.122349,-0.7684 -7.778175,-1.591 -1.888996,-0.5851 -3.651023,-1.5365 -5.391689,-2.4749 -0.733975,-0.3957 -1.335615,-1.0466 -2.12132,-1.3258 -2.014396,-0.7159 -4.228282,-0.8914 -6.363961,-0.7955 -4.849419,0.2177 -9.603841,1.6245 -14.230524,3.0936 -4.139707,1.3144 -7.61839,2.6796 -12.816311,4.5962 -0.76459,0.2819 -1.222888,1.0781 -1.856155,1.591 -0.979982,0.7937 -1.890921,1.7076 -3.005204,2.2981 -0.90557,0.4799 -1.894439,0.9009 -2.916815,0.9722 -1.942726,0.1354 -3.828612,-0.7156 -5.745243,-1.0606 -1.678055,-0.3021 -3.350746,-0.6393 -5.038136,-0.8839 -1.79031,-0.2595 -3.716128,0.063 -5.391689,-0.6187 -1.069856,-0.4354 -1.351583,-0.929 -2.298097,-1.591 -1.540619,-1.0776 -3.879736,-1.8631 -5.126524,-3.2703 -1.555735,-1.7559 -2.145809,-4.4832 -3.093592,-6.6292 -0.437673,-0.991 -0.983216,-1.9521 -1.2374371,-3.0052 -0.3330148,-1.3795 -0.00552,-2.8668 -0.3535534,-4.2426 -0.3785754,-1.4965 -1.8561553,-4.2427 -1.8561553,-4.2427" id="path6871" inkscape:connector-curvature="0" sodipodi:nodetypes="cssssssssssssssssssssssc"/>
    <path style="fill:none;fill-rule:evenodd;stroke:#ae6e48;stroke-width:0.35433072;stroke-linecap:butt;stroke-linejoin:miter;stroke-miterlimit:4;stroke-dasharray:none;stroke-opacity:1" d="m 19.091883,1023.194 c 0,0 -0.300904,1.8206 0,2.6517 0.313344,0.8655 1.552879,1.2263 1.767767,2.1213 0.155189,0.6464 -0.525325,1.2851 -0.441942,1.9446 0.145456,1.1504 0.867313,2.1876 1.590991,3.0936 0.743936,0.9314 1.659464,1.7947 2.740038,2.298 2.006645,0.9346 4.344077,0.8755 6.540738,1.1491 2.374672,0.2958 4.781829,0.8013 7.159456,0.5303 1.777732,-0.2026 5.126524,-1.591 5.126524,-1.591" id="path6873" inkscape:connector-curvature="0" sodipodi:nodetypes="csssssssc"/>
  </g>
</svg>