<?xml version="1.0" encoding="UTF-8" standalone="no"?>
<!-- Created with Inkscape (http://www.inkscape.org/) -->
<svg xmlns:dc="http://purl.org/dc/elements/1.1/" xmlns:cc="http://creativecommons.org/ns#" xmlns:rdf="http://www.w3.org/1999/02/22-rdf-syntax-ns#" xmlns:svg="http://www.w3.org/2000/svg" xmlns="http://www.w3.org/2000/svg" xmlns:sodipodi="http://sodipodi.sourceforge.net/DTD/sodipodi-0.dtd" xmlns:inkscape="http://www.inkscape.org/namespaces/inkscape" id="svg2" xml:space="preserve" viewBox="0 0 495.14453 475.46568" version="1.1" inkscape:version="0.91 r13725" sodipodi:docname="tools-shovel-fixed.svg" width="495.14453" height="475.46567"><defs id="defs305221"/><sodipodi:namedview pagecolor="#ffffff" bordercolor="#666666" borderopacity="1" objecttolerance="10" gridtolerance="10" guidetolerance="10" inkscape:pageopacity="0" inkscape:pageshadow="2" inkscape:window-width="1436" inkscape:window-height="919" id="namedview305219" showgrid="false" fit-margin-top="0" fit-margin-left="0" fit-margin-right="0" fit-margin-bottom="0" inkscape:zoom="0.82526557" inkscape:cx="327.45644" inkscape:cy="274.16037" inkscape:window-x="0" inkscape:window-y="0" inkscape:window-maximized="0" inkscape:current-layer="g12"/><g id="g10" transform="matrix(11.25,0,0,-11.25,181.64691,391.26743)"><g id="g12"><g id="g305775" transform="matrix(0.87021713,-0.49266839,0.49266839,0.87021713,-5.6680098,4.5452305)"><path inkscape:connector-curvature="0" id="path305773" d="M 18.134507,14.122629 15.494569,12.50634 14.417044,11.859825 12.639126,12.129206 11.184467,11.64432 10.753457,10.459042 11.29222,9.5970213 11.72323,9.1660111 9.460426,6.3105682 8.9216633,5.2869189 9.2449211,4.6942798 10.430199,4.3710221 l 3.017072,-0.5387627 7.38105,-0.9158968 2.909319,-0.1616288 1.508536,0.1616288 3.394206,0.4310102 2.370556,0.7003916 1.023649,0.4848866 1.508536,0.7542679 1.023649,1.0236493 -0.05388,0.5387629 -2.262804,1.939546 -4.094597,2.3166799 -6.141896,1.777917 z" style="fill:#737475;fill-opacity:1;fill-rule:evenodd;stroke:none;stroke-width:0.08888889px;stroke-linecap:butt;stroke-linejoin:miter;stroke-opacity:1"/><path inkscape:connector-curvature="0" id="path305771" d="m -8.1571173,20.48003 c -0.2693814,0 -11.2601427,2.855442 -11.2601427,2.855442 l -1.724041,-0.592638 -1.72404,-1.616289 c 0,0 -0.16163,-1.131402 -0.107753,-1.454659 0.05388,-0.323258 0.969773,-1.185279 0.969773,-1.185279 l 6.411277,-0.538762 14.2233374,-4.417855 3.0170721,-1.346907 1.7240409,-0.862021 2.0472987,-0.377134 5.2259989,-1.2391542 0.215505,0.5387632 0.700392,1.670164 c 0,0 1.131402,-0.215505 0.915897,-0.107752 -0.215506,0.107752 -1.993422,1.077525 -1.993422,1.077525 L 0.03207745,16.547061 -7.5106018,19.779638 Z" style="fill:#7d581e;fill-opacity:1;fill-rule:evenodd;stroke:none;stroke-width:0.08888889px;stroke-linecap:butt;stroke-linejoin:miter;stroke-opacity:1"/><g transform="matrix(-1.2130852,0.47983781,-0.6199052,-0.93898899,47.279758,0.63007413)" id="g305763"><path id="path28" style="fill:#583e15;fill-rule:evenodd" d="m 25.641,4.441 c 0.238,0.133 0.531,0.145 0.879,0.039 l 0.039,0 c 0.109,-0.027 0.242,-0.082 0.402,-0.16 0.184,-0.105 0.332,-0.266 0.437,-0.48 0.055,-0.161 0.067,-0.36 0.043,-0.598 -0.027,-0.11 -0.027,-0.227 0,-0.36 0.239,0.079 0.481,0.157 0.719,0.239 1.039,0.508 1.813,0.801 2.32,0.879 -0.269,-0.453 -0.535,-0.785 -0.8,-1 0.215,-0.024 0.48,-0.039 0.8,-0.039 0.079,0 0.188,0.015 0.321,0.039 l 0.238,0 c 0.242,0.054 0.441,0.093 0.602,0.121 l 0.117,0 c 0.347,0.054 0.613,0.105 0.801,0.16 1.175,0.238 2.039,0.332 2.601,0.281 0.238,0 0.652,-0.094 1.238,-0.281 0.11,0 0.227,-0.027 0.36,-0.082 C 36.785,3.175 36.828,3.16 36.879,3.16 37.465,3 37.945,2.945 38.32,3 c 0.239,0.027 0.625,0.093 1.16,0.199 0.532,0.16 0.907,0.242 1.118,0.242 0.214,0.027 0.547,-0.027 1,-0.16 0.402,-0.082 0.722,-0.082 0.961,0 0.879,0.215 1.535,0.293 1.961,0.238 0.292,-0.023 0.691,-0.16 1.199,-0.398 0.535,-0.239 0.933,-0.387 1.199,-0.442 0.879,-0.238 2.176,-0.066 3.879,0.52 0.082,0 0.601,0.242 1.562,0.723 0.266,0.105 0.547,0.238 0.84,0.398 0.133,0.187 0.188,0.387 0.16,0.602 0,0.21 -0.093,0.371 -0.281,0.476 l -0.238,0 c -0.11,0 -0.281,-0.012 -0.52,-0.039 L 52.238,5.32 51.359,5.199 C 50.934,5.148 50.309,5 49.48,4.761 L 48.801,4.679 c 1.652,0.719 2.824,1.215 3.519,1.481 0.348,0.027 0.614,0.082 0.801,0.16 0.133,0 0.25,0.027 0.359,0.078 0.454,0.188 0.747,0.484 0.879,0.883 0.082,-0.16 0.149,-0.332 0.2,-0.52 -0.426,-0.132 -0.934,-0.336 -1.52,-0.601 -0.293,-0.133 -0.625,-0.305 -1,-0.52 l 0.762,0.239 c 0.054,0.027 0.121,0.043 0.199,0.043 0.48,0.132 1.055,0.132 1.719,0 C 54.746,5.761 54.734,5.558 54.68,5.32 54.652,5.16 54.598,4.988 54.52,4.8 53.961,4.187 53.188,3.707 52.199,3.359 L 52.16,3.398 C 51.629,3.215 50.785,2.988 49.641,2.718 48.066,2.187 45.812,2.105 42.879,2.48 42.215,2.531 40.973,2.668 39.16,2.879 37.453,2.988 35.906,2.933 34.52,2.718 33.32,2.558 32.105,2.441 30.879,2.359 29.762,2.254 28.922,2.16 28.359,2.082 27.988,2.027 25.053219,1.3582181 24.814219,1.3582181 c -0.027,-0.16 -0.066,-0.305 -0.121,-0.44200004 l -0.121,-0.117 c -0.054,-0.027 -0.105,-0.082 -0.16,-0.16 l -0.039,-0.039 c -0.027,-0.027 -0.055,-0.043 -0.078,-0.043 -0.027,0 -0.043,-0.012 -0.043,-0.039 -0.106,-0.051 -0.254,-0.106 -0.438,-0.16 C 23.654219,0.33021806 26.078,0.949 25.84,0.922 25.145,0.84 24.773,0.773 24.719,0.718 24.559,0.668 24.387,0.625 24.199,0.601 l -0.039,0 c -0.055,0 -0.094,0.016 -0.121,0.039 L 24,0.64 c 0.055,0.16 0.145,0.309 0.281,0.442 0.078,0 0.16,0.011 0.239,0.039 0.082,0.054 0.16,0.078 0.242,0.078 C 25,1.175 25.348,1.242 25.801,1.402 L 23.932219,0.95921806 C 24.041219,1.1192181 26.773,1.961 26.879,2.199 l 0,0.043 C 26.934,2.425 27,2.574 27.078,2.679 l 0,0.321 C 26.84,3.668 26.586,4.039 26.32,4.121 25.973,4.199 25.68,4.105 25.441,3.84 25.305,3.652 25.133,3.425 24.922,3.16 24.867,3.05 24.762,2.851 24.602,2.558 24.547,2.48 24.48,2.441 24.398,2.441 24.348,2.441 24.254,2.425 24.121,2.398 23.855,2.32 23.414,2.238 22.801,2.16 L 22.359,1.918 c -0.078,0 -0.171,-0.024 -0.281,-0.078 l -0.039,0 c 0.055,0.027 0.094,0.05 0.121,0.078 l -0.601,0.281 -0.039,0 c 0.054,0.027 0.132,0.039 0.242,0.039 l -0.043,0.121 c 0.054,-0.051 0.109,-0.094 0.16,-0.121 0,0.027 0.016,0.043 0.043,0.043 0.105,0.027 0.211,0.051 0.316,0.078 0.028,0 0.067,-0.012 0.121,-0.039 0.082,0.027 0.133,0.039 0.161,0.039 l 0.039,0 0.242,0.082 0.039,0 c 0.055,0.027 0.133,0.051 0.238,0.078 0.348,0.082 0.641,0.149 0.883,0.203 0.371,0.133 0.586,0.278 0.641,0.438 l 0.039,0.039 C 25.176777,4.471536 24.922,3.16 25.039,4 c 0.16,0.215 0.359,0.359 0.602,0.441 z m 20.519,0.438 -0.238,0 L 46,5.039 Z M 38.48,4 c 0.961,-0.133 1.747,0.054 2.36,0.558 l 5.082,0.321 C 45.547,4.398 44.668,4.054 43.281,3.84 42.559,3.757 41.695,3.718 40.68,3.718 38.785,3.558 37.293,3.668 36.199,4.039 36.574,4.148 37.332,4.132 38.48,4 Z m 16.282,1.961 -0.043,-0.039 0,0.117 L 54.762,6 Z" inkscape:connector-curvature="0" sodipodi:nodetypes="ccccccccccsccccccccccccccccccccccscccccccccccccccccccccccccccccsscccccscccccccccccccccsccccccccccccccsccccccccccccccccccccccccc"/><path id="path30" style="fill:#7d581e;fill-rule:evenodd" d="m 53.641,3.242 c 0.214,0.316 0.414,0.64 0.597,0.957 0.11,0.187 0.203,0.387 0.282,0.601 0.082,0.188 0.132,0.36 0.16,0.52 0.054,0.238 0.066,0.441 0.039,0.602 l 0.043,0.039 C 54.812,5.132 54.441,4.226 53.641,3.242 Z M 27.398,3.84 c 0.243,0.082 0.668,0.226 1.282,0.441 0.613,0.187 1.093,0.305 1.441,0.359 L 30,4.441 c 1.148,0.531 2.215,0.918 3.199,1.16 l 0.043,0.039 0.36,0 c 0.933,-0.242 1.597,-0.386 2,-0.441 0.16,-0.051 0.32,-0.078 0.48,-0.078 0.106,-0.028 0.227,-0.039 0.359,-0.039 0.852,-0.055 1.731,-0.071 2.641,-0.043 0.613,0.109 1.184,0.16 1.719,0.16 0.105,0.055 0.199,0.082 0.281,0.082 l 0.719,0 c 0.054,0.027 0.094,0.027 0.121,0 0.105,0.027 0.238,0.039 0.398,0.039 0.266,0 0.508,-0.012 0.719,-0.039 1.172,-0.055 2.332,-0.043 3.481,0.039 0.242,-0.027 0.546,0.039 0.921,0.199 0.454,0.188 0.747,0.293 0.879,0.321 C 48.105,5.519 47.906,5.265 47.719,5.082 48.094,5.054 48.855,5.32 50,5.879 51.199,6.414 51.961,6.894 52.281,7.32 52.84,7.398 53.254,7.519 53.52,7.679 53.602,7.734 53.68,7.773 53.762,7.8 53.973,7.718 54.176,7.547 54.359,7.281 54.227,6.879 53.934,6.586 53.48,6.398 53.375,6.347 53.254,6.32 53.121,6.32 52.934,6.238 52.668,6.187 52.32,6.16 51.629,5.894 50.453,5.398 48.801,4.679 L 49.48,4.757 C 50.309,5 50.934,5.144 51.363,5.199 l 0.879,0.121 0.078,0.039 c 0.239,0.027 0.414,0.039 0.52,0.039 l 0.238,0 C 53.266,5.293 53.359,5.132 53.359,4.922 53.387,4.707 53.332,4.507 53.199,4.32 52.906,4.16 52.629,4.027 52.359,3.922 51.398,3.441 50.879,3.199 50.801,3.199 49.094,2.613 47.801,2.441 46.922,2.679 46.652,2.734 46.254,2.882 45.719,3.121 45.211,3.359 44.812,3.496 44.52,3.519 44.094,3.574 43.441,3.496 42.559,3.281 42.32,3.199 42,3.199 41.602,3.281 c -0.454,0.133 -0.79,0.187 -1,0.16 -0.215,0 -0.59,-0.082 -1.122,-0.242 C 38.945,3.093 38.562,3.027 38.32,3 37.945,2.949 37.469,3 36.879,3.16 c -0.051,0 -0.09,0.015 -0.117,0.039 -0.133,0.055 -0.254,0.082 -0.36,0.082 -0.59,0.187 -1,0.281 -1.242,0.281 -0.558,0.051 -1.426,-0.043 -2.598,-0.281 -0.187,-0.055 -0.453,-0.106 -0.8,-0.16 l -0.121,0 C 31.48,3.093 31.281,3.054 31.043,3 L 30.801,3 C 30.668,2.976 30.562,2.961 30.48,2.961 c -0.32,0 -0.585,0.015 -0.8,0.039 0.269,0.215 0.535,0.547 0.8,1 C 29.973,3.922 29.199,3.629 28.16,3.121 27.922,3.039 27.68,2.961 27.441,2.882 c -0.027,0.133 -0.027,0.25 0,0.36 0.024,0.238 0.012,0.437 -0.043,0.598 z m 3.043,-0.122 c 0.985,-0.183 1.957,-0.117 2.918,0.204 0.536,0.21 1.161,0.359 1.879,0.437 0.75,0.055 1.348,0.121 1.801,0.199 L 34,4.718 C 33.785,4.906 33.266,4.828 32.441,4.48 31.266,4 30.602,3.746 30.441,3.718 Z M 38.48,4 c -1.148,0.132 -1.906,0.148 -2.281,0.039 1.094,-0.371 2.586,-0.481 4.481,-0.317 1.015,0 1.879,0.039 2.601,0.118 1.387,0.214 2.266,0.558 2.641,1.042 L 40.84,4.562 C 40.227,4.054 39.441,3.867 38.48,4 Z M 46.16,4.879 46,5.039 45.922,4.879 Z M 47.84,4.48 C 47.465,4.558 47.188,4.547 47,4.441 c 0.398,-0.453 1.012,-0.59 1.84,-0.402 0.531,0.082 1.305,0.347 2.32,0.801 -0.242,0.105 -0.586,0.054 -1.039,-0.161 -0.617,-0.214 -0.949,-0.332 -1,-0.359 -0.242,-0.055 -0.668,0 -1.281,0.16 z" inkscape:connector-curvature="0" sodipodi:nodetypes="cccccccccccccccccccsccsccccccccccccccccccsccccccccccccccccccccccsccccccccccccccccccccccccccccccc"/><path sodipodi:nodetypes="ccccccccccsccccscccccccccccccccscccccccccccccccccccccccccccsccccccccccccccccccccccccc" id="path32" style="fill:#37270d;fill-rule:evenodd" d="m 21.641,0.84 c 0.078,0 0.171,0.027 0.281,0.082 0.316,0.132 0.57,0.238 0.758,0.32 l 0.082,0.039 0.039,-0.039 c -0.028,0.051 -0.055,0.066 -0.082,0.039 l -0.039,0 -0.039,0.039 c -0.321,0.16 -0.547,0.281 -0.68,0.359 0,0.028 0.012,0.055 0.039,0.082 0,0.051 0.012,0.079 0.039,0.079 l 0.039,0 c 0.11,0.054 0.203,0.082 0.281,0.082 l 0.442,0.238 c 0.613,0.082 1.051,0.16 1.32,0.242 0.133,0.027 0.227,0.039 0.277,0.039 0.082,0 0.149,0.043 0.204,0.121 0.16,0.293 0.265,0.492 0.32,0.598 0.211,0.269 0.383,0.496 0.519,0.683 0.239,0.266 0.532,0.36 0.879,0.278 0.266,-0.078 0.52,-0.453 0.758,-1.117 l 0,-0.321 C 27,2.578 26.934,2.429 26.879,2.242 l 0,-0.039 C 26.773,1.961 26.288979,2.6109811 26.179979,2.4509811 L 25.801,1.402 C 25.348,1.242 25,1.175 24.762,1.203 24.68,1.203 24.602,1.175 24.52,1.121 24.441,1.097 24.359,1.082 24.281,1.082 24.145,0.949 24.055,0.8 24,0.64 l 0.039,0 C 24.066,0.617 24.105,0.601 24.16,0.601 l 0.039,0 c 0.188,0.028 0.36,0.067 0.52,0.121 0.054,0.051 0.426,0.118 1.121,0.2 0.238,0.027 0.06198,0.9039811 0.221979,0.9279811 0.184,0.054 0.332,0.109 0.438,0.16 l 0,-0.078 -0.078,0 0,-0.082 -0.039,0 C 26.085979,1.7989811 26.16,0.882 25.84,0.8 25.625,0.75 25.441,0.695 25.281,0.64 24.852,0.535 24.441,0.453 24.039,0.402 l 0.121,0.199 -0.16,0 0.078,-0.082 c -0.051,0 -0.211,0.016 -0.476,0.043 -0.11,0 -0.27,0.012 -0.481,0.039 -0.348,0.051 -0.84,0.133 -1.48,0.239 z M 54.52,4.8 C 54.441,4.586 54.348,4.386 54.238,4.199 54.055,3.882 53.855,3.558 53.641,3.242 L 53.52,3.16 49.879,2.199 C 47.027,1.586 44.398,1.425 42,1.718 39.359,2.066 37.094,2.215 35.199,2.16 33.945,2.132 33.692132,2.25596 31.985132,1.9629598 c -0.078,0 -1.159385,-0.037429 -1.608385,-0.170429 -0.34121,-0.058169 -0.361402,0.02988 -0.890197,0.00261 -0.216642,-0.011174 -0.701203,-0.1349918 -1.041814,-0.1498136 -0.187,-0.027 -1.678757,0.4586576 -1.784757,0.4856576 0.055,0.078 0.106,0.133 0.16,0.16 0.055,0.051 0.02184,0.296172 0.04884,0.323172 C 26.919821,2.7471531 27.414,1.84 27.438,2 c 0.242,0 1.073858,0.3661836 1.444858,0.4211836 0.559,0.078 1.208932,0.089169 2.329932,0.1941693 C 32.43879,2.6973529 33.32,2.558 34.52,2.718 c 1.386,0.215 2.933,0.27 4.64,0.161 1.813,-0.211 3.051,-0.348 3.719,-0.399 2.933,-0.375 5.187,-0.293 6.762,0.238 1.144,0.27 1.984,0.497 2.519,0.68 l 0.039,-0.039 c 0.989,0.348 1.762,0.828 2.321,1.441 z m 0.199,1.239 0,-0.117 c -0.664,0.132 -1.239,0.132 -1.719,0 -0.078,0 -0.145,-0.016 -0.199,-0.043 L 52.039,5.64 c 0.375,0.215 0.707,0.387 1,0.52 0.586,0.265 1.094,0.465 1.52,0.601 0.054,-0.109 0.082,-0.214 0.082,-0.32 0.027,-0.055 0.05,-0.121 0.078,-0.199 0,-0.055 0.015,-0.11 0.043,-0.16 z" inkscape:connector-curvature="0"/><path id="path34" style="fill:#4f3713;fill-rule:evenodd" d="M 22.039,1.84 C 22.012,1.84 22,1.812 22,1.761 21.973,1.734 21.961,1.707 21.961,1.679 22.094,1.597 22.32,1.48 22.641,1.32 l 0.039,-0.039 0.039,0 c 0.027,0.027 0.054,0.012 0.082,-0.043 L 22.762,1.281 22.68,1.238 C 22.492,1.16 22.238,1.054 21.922,0.922 21.812,0.867 21.719,0.84 21.641,0.84 c -0.243,0 -0.481,0.105 -0.719,0.32 0.426,-0.028 0.703,0.066 0.84,0.281 l -0.481,0.359 0.199,0.399 0.079,0 0.601,-0.281 C 22.133,1.894 22.094,1.867 22.039,1.84 Z" inkscape:connector-curvature="0"/><path id="path36" style="fill:#996f2a;fill-rule:evenodd" d="m 33.559,5.64 c 0.187,0.028 0.468,0.039 0.839,0.039 l 3.481,0.043 1.242,0 c 0.078,0 0.149,0.012 0.199,0.039 l 0.121,0 c 0.051,0 0.106,-0.015 0.161,-0.039 0.16,0 0.304,0.012 0.437,0.039 l 0.359,-0.039 c 0.27,0.024 0.524,0.051 0.762,0.078 l 4.442,0.442 C 47.414,6.64 49.16,7.043 50.84,7.441 L 52.723,8 c 0.132,0.027 0.25,0.043 0.359,0.043 0.184,0 0.371,-0.055 0.559,-0.161 0.054,0 0.105,-0.015 0.16,-0.042 L 53.762,7.8 C 53.68,7.773 53.602,7.734 53.52,7.683 53.254,7.523 52.84,7.402 52.281,7.32 51.961,6.894 51.199,6.414 50,5.882 48.852,5.32 48.094,5.054 47.719,5.082 47.906,5.269 48.105,5.523 48.32,5.84 48.188,5.816 47.895,5.707 47.438,5.523 47.066,5.363 46.758,5.297 46.52,5.32 45.371,5.242 44.211,5.226 43.039,5.281 42.824,5.308 42.586,5.32 42.32,5.32 c -0.16,0 -0.293,-0.012 -0.402,-0.039 -0.023,0.027 -0.066,0.027 -0.117,0 l -0.723,0 c -0.078,0 -0.172,-0.027 -0.277,-0.082 -0.535,0 -1.11,-0.051 -1.723,-0.156 -0.906,-0.028 -1.785,-0.016 -2.637,0.039 -0.136,0 -0.253,0.011 -0.363,0.039 -0.156,0 -0.316,0.027 -0.48,0.082 -0.399,0.051 -1.067,0.199 -2,0.437 l -0.039,0 z m -0.321,0 -0.039,-0.039 C 32.215,5.359 31.148,4.972 30,4.441 L 30.121,4.64 C 29.773,4.586 29.293,4.468 28.68,4.281 28.066,4.066 27.641,3.922 27.398,3.84 c -0.105,0.214 -0.253,0.375 -0.437,0.48 -0.16,0.082 -0.293,0.133 -0.402,0.16 0.082,0.055 0.203,0.067 0.363,0.039 l 2.199,0.442 c 0.238,0.078 0.481,0.132 0.719,0.16 l 0.359,0.039 c 0.106,0 0.227,0.015 0.36,0.039 l 0.16,0.043 c 0.16,0.051 0.32,0.09 0.48,0.117 l 0.039,0.039 0.043,-0.039 c 0.293,-0.051 0.504,-0.012 0.641,0.121 0.476,0.078 0.918,0.133 1.316,0.16 z M 30.441,3.718 c 0.157,0.028 0.825,0.282 2,0.762 0.825,0.348 1.344,0.426 1.559,0.238 l 3.039,-0.16 C 36.586,4.48 35.988,4.414 35.238,4.359 34.52,4.281 33.895,4.132 33.359,3.922 32.398,3.601 31.426,3.535 30.441,3.718 Z M 47.84,4.48 c 0.613,-0.16 1.039,-0.215 1.281,-0.16 0.051,0.027 0.387,0.148 1,0.359 0.453,0.215 0.801,0.266 1.039,0.161 C 50.145,4.386 49.375,4.121 48.84,4.039 48.012,3.851 47.398,3.988 47,4.441 c 0.188,0.106 0.469,0.117 0.84,0.039 z" inkscape:connector-curvature="0"/><path id="path44" style="fill:#37270d;fill-rule:evenodd" d="m 21.48,5.121 0,-0.039 -0.082,0.039 0.082,0 z" inkscape:connector-curvature="0"/></g><path inkscape:connector-curvature="0" d="M 8.922,5.558 8.84,5.601 9.641,6.718 C 9.668,6.668 9.68,6.625 9.68,6.601 9.625,6.386 9.613,6.226 9.641,6.121 c 0.078,-0.188 0.414,-0.375 1,-0.563 0.453,-0.133 1.453,-0.398 3,-0.797 0.132,0 0.293,-0.027 0.48,-0.082 0.106,-0.027 0.211,-0.054 0.32,-0.082 C 14.52,4.574 14.602,4.558 14.68,4.558 17.293,3.972 19.867,3.679 22.398,3.679 22.48,3.652 22.547,3.625 22.602,3.597 L 20.281,3.48 C 19.375,3.531 18.48,3.64 17.602,3.797 16.801,3.933 15.734,4.132 14.398,4.398 14.266,4.425 14.145,4.453 14.039,4.48 13.801,4.507 13.559,4.558 13.32,4.64 12.547,4.797 11.68,4.972 10.719,5.16 l -0.039,0 C 10.547,5.211 10.426,5.238 10.32,5.238 10.16,5.293 10,5.32 9.84,5.32 l -0.918,0.277 0,-0.039 z M 34.641,6.32 c 0,0.266 -0.27,0.613 -0.801,1.039 -0.16,0.109 -0.785,0.547 -1.879,1.32 -0.695,0.481 -1.602,1 -2.723,1.559 L 29,10.359 c -0.828,0.398 -1.602,0.719 -2.32,0.961 -0.399,0.187 -1.227,0.414 -2.481,0.68 -1.172,0.238 -1.918,0.441 -2.238,0.597 -1.496,0.535 -2.789,0.934 -3.883,1.203 -1.144,-0.75 -1.73,-1.121 -1.758,-1.121 l -1.84,-0.918 -0.8,0.161 C 13.305,12 12.988,12.027 12.719,12 c -0.184,0 -0.36,-0.012 -0.52,-0.039 -0.293,-0.082 -0.574,-0.254 -0.84,-0.52 -0.05,-0.055 -0.093,-0.109 -0.121,-0.16 -0.211,-0.215 -0.343,-0.481 -0.398,-0.801 -0.028,-0.082 -0.039,-0.187 -0.039,-0.32 -0.028,0.082 -0.055,0.176 -0.082,0.281 l -0.039,0.039 0.039,0 -0.039,0.078 0.039,0 c -0.024,0.028 -0.024,0.055 0,0.082 l -0.039,0.039 c 0.027,0.082 0.039,0.133 0.039,0.161 0,0.082 0.015,0.16 0.043,0.242 l 0.558,0.679 0.121,0.121 c 0.239,0.184 0.598,0.266 1.079,0.239 0,0.027 0.027,0.039 0.082,0.039 0.05,0 0.093,-0.012 0.117,-0.039 l 0.16,0 0.801,-0.16 c 0.613,0.105 1.16,0.293 1.64,0.558 l 0.758,0.563 c 0.027,0 0.055,0.027 0.082,0.078 0.188,0.133 0.36,0.242 0.52,0.32 0.242,0.16 0.425,0.281 0.558,0.36 l 0.762,0.48 0.121,0 c 0.133,0 0.277,-0.027 0.438,-0.082 0.32,-0.051 0.773,-0.172 1.363,-0.359 0.051,-0.028 0.117,-0.039 0.199,-0.039 0.559,-0.215 1.277,-0.454 2.16,-0.719 3.864,-1.227 6.332,-2.11 7.399,-2.641 1.199,-0.64 2.281,-1.308 3.242,-2 C 33,8.398 33.094,8.347 33.199,8.32 l 0.039,-0.078 c 0.16,-0.11 0.309,-0.203 0.442,-0.281 L 34.52,7.082 C 34.68,6.84 34.762,6.625 34.762,6.441 L 34.641,6.32 Z M 32.121,5.082 C 32.414,5.132 32.707,5.215 33,5.32 L 32.922,5.281 C 32.227,4.961 31.398,4.679 30.441,4.441 29.719,4.281 29.039,4.121 28.398,3.961 L 22.801,3.597 c 0,0.028 0.011,0.055 0.039,0.082 0.055,0 0.094,0.016 0.121,0.039 1.066,0 2.16,0.067 3.277,0.204 2.375,0.293 4.336,0.679 5.883,1.16 z M 14.559,10.961 14.602,11 14.441,10.961 14.238,11 l -0.277,0.121 -0.082,0 -0.52,0.277 c -0.078,0 -0.16,0.016 -0.238,0.043 -0.133,0 -0.293,0.012 -0.48,0.039 -0.375,0 -0.641,0.027 -0.801,0.082 l 0.64,0.278 c 0.079,0 0.188,0.015 0.321,0.042 0.051,0 0.105,0.012 0.16,0.04 0.184,0.027 0.359,0.027 0.519,0 l 0.559,-0.282 c 0.055,0 0.133,-0.066 0.242,-0.199 0.078,-0.055 0.227,-0.105 0.438,-0.16 0.215,-0.082 0.453,-0.199 0.722,-0.359 0.161,-0.055 0.414,-0.133 0.758,-0.239 0.293,-0.109 0.535,-0.187 0.723,-0.242 l 0.199,-0.121 -0.641,0.039 c -0.855,0.133 -1.386,0.242 -1.601,0.32 -0.078,0.106 -0.145,0.188 -0.199,0.243 l -0.121,0.039 z" style="fill:#8e8f90;fill-rule:evenodd" id="path14"/><path inkscape:connector-curvature="0" d="M 9.84,5.32 C 9.867,5.293 9.867,5.265 9.84,5.238 L 9.84,5.121 9.801,5.039 9.762,5 C 9.734,4.949 9.68,4.894 9.602,4.84 c 0.503,-0.293 1.343,-0.465 2.519,-0.52 0.16,0.027 0.305,0.039 0.438,0.039 0.109,0 0.23,-0.039 0.363,-0.117 C 13.078,4.16 13.188,4.109 13.238,4.082 13.695,4 14.465,3.867 15.559,3.683 16.414,3.496 17.508,3.347 18.84,3.242 c 2.027,-0.188 3.105,-0.293 3.238,-0.32 1.602,-0.188 3.336,-0.082 5.203,0.32 0.133,0.027 0.305,0.051 0.52,0.078 l 0.039,0.039 c 0.293,0.082 0.601,0.148 0.922,0.199 L 32.52,4.601 32.441,4.558 c -0.296,-0.16 -0.629,-0.316 -1,-0.476 l -0.043,0 L 31.238,4 C 31.055,3.922 30.855,3.851 30.641,3.8 29.652,3.48 28.574,3.226 27.398,3.039 L 25.641,2.84 C 23.535,2.625 20.988,2.695 18,3.039 16.426,3.199 14.668,3.441 12.719,3.761 11.707,3.894 10.812,4.066 10.039,4.281 9.215,4.492 8.801,4.668 8.801,4.8 8.719,4.961 8.734,5.187 8.84,5.48 8.895,5.507 8.922,5.531 8.922,5.558 l 0,0.043 L 9.84,5.32 Z" style="fill:#3e3d40;fill-rule:evenodd" id="path16"/><path inkscape:connector-curvature="0" d="M 32.121,5.082 C 30.574,4.597 28.613,4.215 26.238,3.922 25.121,3.785 24.027,3.718 22.961,3.718 22.934,3.695 22.895,3.679 22.84,3.679 22.812,3.652 22.801,3.625 22.801,3.597 l -0.199,0 c -0.055,0.028 -0.122,0.055 -0.204,0.082 -2.531,0 -5.105,0.293 -7.718,0.879 -0.078,0 -0.16,0.016 -0.239,0.043 -0.109,0.024 -0.214,0.051 -0.32,0.078 -0.187,0.055 -0.348,0.082 -0.48,0.082 -1.547,0.399 -2.547,0.664 -3,0.801 -0.586,0.184 -0.922,0.371 -1,0.559 -0.028,0.105 -0.016,0.265 0.039,0.48 0,0.028 -0.012,0.067 -0.039,0.121 L 9.68,6.8 11.441,9.16 c -0.269,0.265 -0.48,0.562 -0.64,0.883 -0.055,0.132 -0.082,0.265 -0.082,0.398 0.027,-0.105 0.054,-0.199 0.082,-0.281 0,0.133 0.011,0.242 0.039,0.32 0.055,0.32 0.187,0.586 0.398,0.801 0.028,0.051 0.067,0.105 0.121,0.16 0.266,0.266 0.547,0.441 0.84,0.52 0.16,0.027 0.336,0.039 0.52,0.039 0.269,0.027 0.586,0 0.961,-0.078 l 0.8,-0.161 1.84,0.918 c 0.028,0 0.614,0.375 1.758,1.121 1.094,-0.269 2.387,-0.668 3.883,-1.203 0.32,-0.156 1.066,-0.359 2.238,-0.597 1.254,-0.266 2.082,-0.493 2.481,-0.68 0.718,-0.242 1.492,-0.563 2.32,-0.961 0.055,-0.027 0.133,-0.066 0.238,-0.121 C 30.359,9.679 31.266,9.16 31.961,8.679 33.055,7.906 33.68,7.465 33.84,7.359 34.371,6.933 34.641,6.586 34.641,6.32 34.266,5.945 33.691,5.601 32.922,5.281 L 33,5.32 c 0.801,0.32 1.227,0.719 1.281,1.199 L 34,6.761 C 33.895,6.84 33.734,6.988 33.52,7.199 33.332,7.441 33.172,7.586 33.039,7.64 L 33.238,7.32 32.84,7.562 c -0.266,0.371 -0.535,0.692 -0.801,0.957 l 0.16,-0.398 c -0.16,0.054 -0.453,0.187 -0.879,0.398 l 0.118,-0.238 c -0.106,0.078 -0.52,0.332 -1.239,0.758 l 0.242,-0.321 c -0.242,0 -0.574,0.122 -1,0.364 -0.429,0.211 -0.734,0.316 -0.921,0.316 0.214,-0.133 0.625,-0.359 1.242,-0.68 L 29.121,8.84 c 0.293,-0.188 0.465,-0.348 0.52,-0.481 -0.563,0.266 -1.133,0.492 -1.719,0.68 0.133,-0.078 0.316,-0.199 0.558,-0.36 0.239,-0.183 0.387,-0.347 0.442,-0.48 l -0.641,0.043 c 0.852,-0.375 1.348,-0.707 1.481,-1 0,-0.16 -0.016,-0.27 -0.043,-0.32 L 29.602,6.84 29.68,6.879 29.602,6.8 29.238,6.679 l -0.039,0 -0.121,-0.039 -0.437,0.039 0.679,0.082 c -0.265,0 -0.601,0.051 -1,0.161 -0.613,0.132 -1.015,0.199 -1.199,0.199 -0.348,0 -0.828,-0.028 -1.441,-0.082 -0.266,0 -0.668,0.082 -1.2,0.242 C 24.238,7.308 23.895,7.32 23.441,7.32 23.012,7.293 22.668,7.32 22.398,7.398 22.078,7.425 21.68,7.547 21.199,7.761 20.48,8 20.094,8.132 20.039,8.16 19.773,8.265 19.52,8.375 19.281,8.48 c -0.215,0.078 -0.402,0.145 -0.562,0.199 -0.586,0.215 -1,0.282 -1.239,0.2 -0.32,0.293 -0.628,0.441 -0.921,0.441 l 0,0.359 L 16.32,9.558 16.281,9.601 C 16.199,9.785 16.16,9.933 16.16,10.039 L 15.559,9.8 l -0.079,0.239 -0.281,0 c -0.105,0.32 -0.347,0.386 -0.719,0.203 -0.054,0.105 -0.066,0.226 -0.039,0.359 0.079,0.16 0.118,0.281 0.118,0.36 l 0.121,-0.039 c 0.054,-0.055 0.121,-0.137 0.199,-0.243 0.215,-0.082 0.746,-0.187 1.601,-0.32 l 0.641,-0.039 -0.199,0.121 c -0.188,0.051 -0.43,0.133 -0.723,0.238 -0.347,0.106 -0.597,0.188 -0.758,0.243 -0.269,0.16 -0.507,0.277 -0.722,0.359 -0.211,0.051 -0.36,0.105 -0.438,0.16 -0.109,0.133 -0.187,0.199 -0.242,0.199 l -0.559,0.282 c -0.16,0.023 -0.335,0.023 -0.519,0 -0.055,-0.028 -0.106,-0.043 -0.16,-0.043 C 12.668,11.851 12.559,11.84 12.48,11.84 l -0.64,-0.282 c 0.16,-0.051 0.426,-0.078 0.801,-0.078 0.187,-0.027 0.347,-0.043 0.48,-0.043 0.078,-0.023 0.16,-0.039 0.238,-0.039 L 13.879,11.117 13.398,11 13.32,10.957 l 0,0.16 c 0.028,0.082 0.078,0.148 0.16,0.203 L 12.32,11 c -0.082,0.132 -0.105,0.226 -0.082,0.281 -0.05,-0.027 -0.16,-0.082 -0.316,-0.16 -0.137,0.187 -0.188,0.332 -0.16,0.441 -0.137,-0.109 -0.227,-0.226 -0.282,-0.363 -0.082,-0.184 -0.105,-0.399 -0.082,-0.637 0.028,-0.215 0.137,-0.586 0.321,-1.121 -0.266,0.082 -0.453,0.16 -0.559,0.242 0.133,-0.215 0.348,-0.414 0.641,-0.601 l 0,-0.121 L 11.52,8.679 C 11.652,8.465 11.613,8.199 11.398,7.879 11.266,7.718 11.066,7.48 10.801,7.16 c -0.028,-0.106 -0.028,-0.215 0,-0.32 -0.028,-0.215 0.027,-0.442 0.16,-0.68 0.184,-0.375 0.398,-0.309 0.641,0.199 l 0.117,-0.16 c 0.508,0.293 0.894,0.535 1.16,0.723 -0.133,-0.348 -0.133,-0.59 0,-0.723 0.082,0.055 0.242,0.16 0.48,0.32 0.133,0.106 0.282,0.176 0.442,0.199 0.16,-0.425 0.277,-0.679 0.359,-0.757 0.215,0.453 0.586,0.734 1.121,0.839 0.051,-0.105 0.117,-0.281 0.199,-0.519 0.079,-0.242 0.172,-0.426 0.282,-0.559 0.238,0.239 0.426,0.426 0.558,0.559 0.215,0.187 0.453,0.293 0.719,0.32 0.027,-0.082 0.082,-0.254 0.16,-0.519 0.082,-0.215 0.149,-0.375 0.199,-0.481 0.43,0.426 0.723,0.707 0.883,0.84 0.133,-0.375 0.25,-0.629 0.36,-0.762 0.32,0.27 0.574,0.453 0.757,0.563 0.348,0.183 0.614,0.066 0.801,-0.36 0.188,0.133 0.321,0.239 0.403,0.317 0.16,0.082 0.32,0 0.476,-0.238 0.188,0.214 0.375,0.304 0.563,0.281 0.16,-0.027 0.386,-0.149 0.679,-0.36 0.078,0.133 0.2,0.2 0.36,0.2 0.105,0 0.199,-0.082 0.281,-0.242 0.453,0.425 0.773,0.425 0.961,0 L 24.559,6 c 0.16,-0.266 0.347,-0.348 0.562,-0.239 0.106,0.024 0.277,0.145 0.52,0.36 l 0.718,0 c 0.563,-0.028 0.895,-0.055 1,-0.082 l 0.039,-0.16 c 0,-0.051 -0.039,-0.106 -0.117,-0.161 l 0.438,0.043 c 0,-0.293 -0.504,-0.64 -1.52,-1.043 0.668,0.243 1.188,0.387 1.563,0.442 C 27.707,4.894 27.387,4.707 26.801,4.601 26.055,4.414 25.641,4.281 25.559,4.199 l 0.48,0 -1.437,-0.238 c 0.636,-0.028 1.32,0.027 2.039,0.16 0.214,0.027 0.851,0.16 1.918,0.398 l 0.64,0.121 c 0.613,0.133 1.094,0.2 1.442,0.2 0.48,0.027 0.972,0.105 1.48,0.242 z m -14.723,5.316 c 0.934,-0.316 1.696,-0.41 2.282,-0.277 l -0.078,0.078 C 20.215,10.121 21.145,9.906 22.398,9.558 22.961,9.453 23.492,9.386 24,9.359 24.266,9.332 24.547,9.32 24.84,9.32 24.762,9.398 24.668,9.453 24.559,9.48 L 24.52,9.519 c -0.239,0.055 -0.375,0.082 -0.399,0.082 -0.16,0.051 -0.441,0.172 -0.84,0.36 -0.375,0.238 -0.668,0.398 -0.883,0.48 -0.343,0.16 -0.625,0.227 -0.839,0.199 -0.051,0.106 -0.184,0.242 -0.399,0.399 -0.187,0.16 -0.305,0.293 -0.359,0.402 -0.055,-0.027 -0.176,-0.055 -0.36,-0.082 -0.48,0.481 -0.773,0.75 -0.882,0.801 -0.399,0.426 -0.704,0.668 -0.918,0.719 -0.055,0.16 -0.094,0.281 -0.121,0.359 -0.055,0.137 -0.133,0.242 -0.239,0.32 C 18.199,13.238 17.773,12.867 17,12.441 16.68,12.308 16.348,12.172 16,12.039 15.707,11.933 15.414,11.851 15.121,11.8 l 0.117,-0.441 c 0.215,-0.051 0.496,-0.184 0.84,-0.398 0.43,-0.215 0.723,-0.36 0.883,-0.442 l 0.078,-0.039 0.359,-0.082 z M 12.199,8.961 c 0.426,-0.11 1.106,-0.2 2.039,-0.282 C 15.281,8.414 16.094,8.238 16.68,8.16 L 17.719,8.082 17.602,8.121 C 17.066,8.308 16.668,8.425 16.398,8.48 15.652,8.558 15.066,8.679 14.641,8.84 14.293,8.972 14.039,9.082 13.879,9.16 l 0,-0.039 C 13.586,9.226 13.32,9.265 13.078,9.238 L 12.801,9.281 C 12.773,9.226 12.559,9.238 12.16,9.32 c -0.082,0.348 -0.082,0.574 0,0.68 l 0.32,-0.282 -0.121,0.442 0.403,-0.481 c 0.105,0.028 0.172,0.055 0.199,0.082 0.078,0.051 0.105,0.145 0.078,0.278 l 0.402,-0.438 c 0.211,0.133 0.332,0.227 0.36,0.281 0.133,-0.296 0.293,-0.523 0.48,-0.683 0.051,0 0.094,-0.012 0.117,-0.039 0.243,0.082 0.387,0.133 0.442,0.16 0.055,-0.105 0.199,-0.281 0.441,-0.52 0.024,0.051 0.106,0.106 0.239,0.161 0.105,0.05 0.187,0.093 0.242,0.121 C 16.027,8.625 16.348,8.48 16.719,8.64 16.855,8.398 17.199,8.238 17.762,8.16 18.078,8.105 18.508,8.05 19.039,8 19.547,7.918 20.387,7.652 21.559,7.199 L 23.199,6.8 C 23.039,6.8 22.52,6.812 21.641,6.84 20.84,6.894 20.398,7 20.32,7.16 L 19.238,7.48 C 19.215,7.453 19.121,7.492 18.961,7.597 18.828,7.652 18.695,7.679 18.559,7.679 18.426,7.707 18.238,7.707 18,7.679 17.734,7.652 17.535,7.64 17.398,7.64 L 17.199,7.879 15.801,7.519 16,7.679 c -0.055,0 -0.266,0.016 -0.641,0.039 l -0.16,0.243 c -0.238,0.027 -0.613,0.027 -1.121,0 -0.051,0.132 -0.09,0.238 -0.117,0.32 L 13.078,8.082 13.199,8.519 C 13.145,8.492 12.934,8.468 12.559,8.441 12.746,8.652 12.84,8.773 12.84,8.8 12.762,8.718 12.492,8.679 12.039,8.679 c 0.133,0.106 0.188,0.2 0.16,0.282 z m 2.36,2 -0.118,0 c -0.242,-0.082 -0.453,-0.11 -0.64,-0.082 l 0.16,0.242 L 14.238,11 14.441,10.961 14.602,11 14.559,10.961 Z" style="fill:#7c7d80;fill-rule:evenodd" id="path18"/><path inkscape:connector-curvature="0" d="m 19.602,10.199 c -0.11,0.109 -0.227,0.148 -0.364,0.121 -0.16,0 -0.316,0.012 -0.476,0.039 l -0.684,0.481 c -0.078,0.027 -0.133,0.093 -0.156,0.199 -0.027,0.136 -0.067,0.215 -0.121,0.242 -0.055,0.027 -0.149,0.039 -0.281,0.039 -0.106,0 -0.188,0.016 -0.239,0.039 L 16.719,11.8 16.762,12.082 15.68,11.8 15.52,11.558 c 0.347,-0.343 0.828,-0.664 1.441,-0.957 0.133,-0.054 0.277,-0.121 0.437,-0.203 l -0.359,0.082 -0.961,0.481 c -0.344,0.214 -0.625,0.347 -0.84,0.398 L 15.121,11.8 c 0.293,0.051 0.586,0.133 0.879,0.239 0.348,0.136 0.68,0.269 1,0.402 0.773,0.426 1.199,0.801 1.281,1.117 0.106,-0.078 0.184,-0.183 0.239,-0.316 0.027,-0.082 0.066,-0.203 0.121,-0.36 0.214,-0.054 0.519,-0.296 0.918,-0.722 0.109,-0.051 0.402,-0.32 0.882,-0.801 0.184,0.027 0.305,0.055 0.36,0.082 0.051,-0.105 0.172,-0.242 0.359,-0.398 0.215,-0.161 0.348,-0.293 0.399,-0.403 0.214,0.028 0.496,-0.039 0.839,-0.199 0.215,-0.082 0.508,-0.242 0.883,-0.48 0.399,-0.188 0.68,-0.309 0.84,-0.36 0.024,0 0.16,-0.027 0.399,-0.082 L 24.559,9.48 c 0.109,-0.027 0.203,-0.082 0.281,-0.16 -0.293,0 -0.574,0.016 -0.84,0.039 -0.508,0.027 -1.039,0.094 -1.602,0.203 -1.253,0.344 -2.183,0.559 -2.796,0.637 z M 33,5.32 C 32.707,5.215 32.414,5.132 32.121,5.082 c -0.508,-0.137 -1,-0.215 -1.48,-0.242 -0.348,0 -0.829,-0.067 -1.442,-0.2 L 28.559,4.519 C 27.492,4.281 26.852,4.148 26.641,4.121 25.918,3.988 25.238,3.933 24.598,3.961 l 1.441,0.238 -0.48,0 c 0.082,0.082 0.496,0.215 1.242,0.402 0.586,0.106 0.906,0.293 0.957,0.559 -0.371,-0.051 -0.891,-0.199 -1.559,-0.442 1.012,0.403 1.52,0.75 1.52,1.043 L 27.277,5.718 c 0.082,0.055 0.121,0.11 0.121,0.161 l -0.039,0.16 c -0.105,0.027 -0.437,0.054 -1,0.082 l -0.718,0 C 25.398,5.906 25.227,5.789 25.121,5.761 24.906,5.652 24.719,5.734 24.559,6 L 23.922,5.84 c -0.188,0.429 -0.508,0.429 -0.961,0 -0.082,0.16 -0.172,0.242 -0.281,0.242 -0.16,0 -0.282,-0.067 -0.36,-0.2 -0.293,0.211 -0.519,0.333 -0.679,0.36 C 21.453,6.269 21.266,6.175 21.078,5.961 20.922,6.199 20.762,6.281 20.602,6.199 20.52,6.121 20.387,6.015 20.199,5.882 20.012,6.308 19.746,6.429 19.398,6.242 19.215,6.132 18.961,5.949 18.641,5.683 18.535,5.816 18.414,6.066 18.281,6.441 18.121,6.308 17.828,6.027 17.398,5.601 17.348,5.707 17.281,5.867 17.199,6.082 17.121,6.347 17.066,6.523 17.039,6.601 16.773,6.574 16.535,6.468 16.32,6.281 L 15.762,5.722 C 15.652,5.855 15.559,6.043 15.48,6.281 15.398,6.523 15.332,6.695 15.281,6.8 14.746,6.695 14.375,6.414 14.16,5.961 14.078,6.043 13.961,6.293 13.801,6.722 13.641,6.695 13.492,6.629 13.359,6.519 c -0.238,-0.16 -0.398,-0.265 -0.48,-0.32 -0.133,0.137 -0.133,0.375 0,0.723 -0.266,-0.188 -0.652,-0.426 -1.16,-0.723 l -0.117,0.16 C 11.359,5.855 11.145,5.789 10.961,6.16 c -0.133,0.242 -0.188,0.469 -0.16,0.68 -0.028,0.109 -0.028,0.214 0,0.32 0.265,0.32 0.465,0.562 0.597,0.722 0.215,0.317 0.254,0.586 0.122,0.797 l 0.281,0.282 0,0.121 0.398,-0.121 c 0.028,-0.082 -0.027,-0.176 -0.16,-0.282 0.453,0 0.723,0.039 0.801,0.121 0,-0.027 -0.094,-0.148 -0.281,-0.359 0.375,0.024 0.586,0.051 0.64,0.078 l -0.121,-0.437 0.883,0.199 c 0.027,-0.082 0.066,-0.188 0.117,-0.32 0.508,0.027 0.883,0.027 1.121,0 l 0.16,-0.243 C 15.734,7.695 15.945,7.679 16,7.679 l -0.199,-0.16 1.398,0.36 0.199,-0.239 c 0.137,0 0.336,0.012 0.602,0.039 0.238,0.028 0.426,0.028 0.559,0 0.136,0 0.269,-0.027 0.402,-0.082 0.16,-0.105 0.254,-0.144 0.277,-0.117 L 20.32,7.16 C 20.398,7 20.84,6.894 21.641,6.84 22.52,6.812 23.039,6.8 23.199,6.8 l -1.64,0.399 C 20.387,7.652 19.547,7.922 19.039,8 18.508,8.054 18.078,8.109 17.762,8.16 17.199,8.242 16.855,8.398 16.719,8.64 16.348,8.48 16.027,8.625 15.762,9.082 15.707,9.054 15.625,9.015 15.52,8.961 15.387,8.91 15.305,8.855 15.281,8.8 15.039,9.043 14.895,9.215 14.84,9.32 14.789,9.293 14.641,9.242 14.398,9.16 14.375,9.187 14.332,9.199 14.281,9.199 14.094,9.359 13.934,9.586 13.801,9.882 13.773,9.828 13.652,9.734 13.441,9.601 l -0.402,0.442 C 13.066,9.91 13.039,9.816 12.961,9.761 12.934,9.734 12.867,9.707 12.762,9.679 L 12.359,10.16 12.48,9.722 12.16,10 c -0.082,-0.106 -0.082,-0.332 0,-0.68 l -0.441,0.121 c -0.184,0.531 -0.293,0.906 -0.321,1.117 -0.023,0.242 0,0.453 0.082,0.641 0.051,0.133 0.145,0.254 0.282,0.359 -0.028,-0.105 0.027,-0.25 0.16,-0.437 0.156,0.078 0.266,0.133 0.316,0.16 -0.023,-0.055 0,-0.149 0.082,-0.281 l 1.16,0.32 c -0.082,-0.055 -0.132,-0.121 -0.16,-0.199 l 0,-0.16 0.078,0.039 0.481,0.121 0.082,0 -0.16,-0.242 c 0.187,-0.028 0.398,0 0.64,0.082 l 0.118,0 c 0,-0.082 -0.039,-0.204 -0.118,-0.364 -0.027,-0.132 -0.015,-0.25 0.039,-0.359 0.372,0.187 0.614,0.121 0.719,-0.199 l 0.281,0 0.079,-0.239 0.601,0.239 c 0,-0.106 0.039,-0.254 0.121,-0.442 l 0.039,-0.039 0.239,0.121 0,-0.359 c 0.296,0 0.601,-0.148 0.921,-0.441 0.239,0.082 0.653,0.015 1.239,-0.2 C 18.879,8.625 19.066,8.558 19.281,8.48 19.52,8.375 19.773,8.265 20.039,8.16 20.094,8.132 20.48,8 21.199,7.761 21.68,7.547 22.078,7.425 22.398,7.398 22.668,7.32 23.012,7.293 23.441,7.32 c 0.454,0 0.797,-0.012 1.039,-0.039 0.532,-0.16 0.934,-0.242 1.2,-0.242 0.613,0.054 1.093,0.082 1.441,0.082 0.184,0 0.586,-0.067 1.199,-0.199 0.399,-0.11 0.735,-0.161 1,-0.161 l -0.679,-0.082 0.437,-0.039 0.121,0.039 0.043,0 0.36,0.121 0.078,0.079 -0.078,-0.039 0.117,0.082 c 0.027,0.05 0.043,0.16 0.043,0.32 -0.133,0.293 -0.629,0.625 -1.481,1 l 0.641,-0.043 c -0.055,0.133 -0.203,0.293 -0.442,0.48 -0.242,0.161 -0.425,0.282 -0.558,0.36 0.586,-0.184 1.156,-0.414 1.719,-0.68 -0.055,0.133 -0.227,0.293 -0.52,0.481 l 0.641,-0.118 c -0.617,0.317 -1.028,0.547 -1.242,0.68 0.187,0 0.492,-0.109 0.921,-0.32 0.426,-0.242 0.758,-0.36 1,-0.36 l -0.242,0.317 c 0.723,-0.426 1.133,-0.68 1.242,-0.758 L 31.32,8.519 C 31.746,8.308 32.039,8.175 32.199,8.121 L 32.043,8.519 C 32.309,8.254 32.574,7.933 32.84,7.562 L 33.242,7.32 33.039,7.64 C 33.172,7.586 33.332,7.441 33.52,7.199 33.734,6.988 33.895,6.84 34,6.761 L 34.281,6.519 C 34.227,6.039 33.801,5.64 33,5.32 Z m -4.078,1.238 0.039,-0.039 0.078,0.082 -0.117,-0.043 z" style="fill:#737475;fill-rule:evenodd" id="path20"/><path inkscape:connector-curvature="0" d="m 17.398,10.398 c -0.16,0.082 -0.304,0.149 -0.437,0.203 -0.613,0.293 -1.094,0.614 -1.441,0.957 l 0.16,0.242 1.082,0.282 -0.043,-0.282 0.562,-0.441 c 0.051,-0.027 0.133,-0.039 0.239,-0.039 0.132,0 0.226,-0.012 0.281,-0.039 0.051,-0.027 0.094,-0.109 0.121,-0.242 0.023,-0.106 0.078,-0.172 0.156,-0.199 l 0.684,-0.481 c 0.16,-0.027 0.316,-0.039 0.476,-0.039 0.137,0.027 0.254,-0.016 0.364,-0.121 l 0.078,-0.078 c -0.586,-0.133 -1.348,-0.039 -2.282,0.277 z" style="fill:#666869;fill-rule:evenodd" id="path22"/><path inkscape:connector-curvature="0" d="M 12.199,8.961 11.801,9.082 C 11.508,9.265 11.293,9.465 11.16,9.679 11.266,9.597 11.453,9.519 11.719,9.441 L 12.16,9.32 c 0.399,-0.082 0.613,-0.094 0.641,-0.039 l 0.277,-0.043 c 0.242,0.027 0.508,-0.012 0.801,-0.117 l 0,0.039 c 0.16,-0.078 0.414,-0.188 0.762,-0.32 0.425,-0.161 1.011,-0.282 1.757,-0.36 0.27,-0.055 0.668,-0.172 1.204,-0.359 L 17.719,8.082 16.68,8.16 c -0.586,0.082 -1.399,0.254 -2.442,0.519 -0.933,0.082 -1.613,0.172 -2.039,0.282 z" style="fill:#505152;fill-rule:evenodd" id="path24"/><path inkscape:connector-curvature="0" d="m 22.801,3.601 5.597,0.36 c 0.641,0.16 1.321,0.32 2.043,0.48 0.957,0.238 1.786,0.52 2.481,0.84 0.773,0.32 1.344,0.668 1.719,1.039 L 34.598,6.121 C 34.359,5.906 34.121,5.695 33.879,5.48 33.426,5.132 33,4.855 32.598,4.64 32.574,4.613 32.547,4.601 32.52,4.601 L 28.758,3.558 C 28.438,3.507 28.133,3.441 27.84,3.359 L 27.801,3.32 C 27.586,3.293 27.414,3.265 27.277,3.238 25.414,2.84 23.68,2.734 22.078,2.922 21.945,2.945 20.867,3.054 18.84,3.238 17.504,3.347 16.414,3.492 15.559,3.679 14.465,3.867 13.691,4 13.238,4.082 13.188,4.105 13.078,4.16 12.918,4.238 12.785,4.32 12.664,4.359 12.559,4.359 12.426,4.359 12.277,4.347 12.121,4.32 10.945,4.371 10.105,4.547 9.598,4.84 9.68,4.89 9.734,4.945 9.758,5 l 0.043,0.039 0.039,0.082 0,0.117 c 0.027,0.027 0.027,0.055 0,0.082 0.16,0 0.32,-0.027 0.48,-0.082 0.106,0 0.227,-0.023 0.36,-0.078 l 0.039,0 C 11.68,4.972 12.547,4.8 13.32,4.64 13.559,4.558 13.801,4.507 14.039,4.48 14.145,4.453 14.266,4.425 14.398,4.398 15.734,4.132 16.801,3.933 17.602,3.8 18.48,3.64 19.375,3.531 20.281,3.48 l 2.321,0.117 0.199,0 0,0.004 z" style="fill:#504f52;fill-rule:evenodd" id="path26"/></g><path id="path42" style="fill:#7c7d80;fill-rule:evenodd" d="m 0,7.48 0.039,0 0,-0.039 L 0,7.48 Z M 46.039,6.199 C 47.188,6.707 47.879,6.972 48.121,7 L 46.922,6.558 C 46.68,6.453 46.387,6.332 46.039,6.199 Z" inkscape:connector-curvature="0"/></g></g><metadata id="metadata305217"><rdf:RDF><cc:Work><dc:format>image/svg+xml</dc:format><dc:type rdf:resource="http://purl.org/dc/dcmitype/StillImage"/><cc:license rdf:resource="http://creativecommons.org/publicdomain/zero/1.0/"/><dc:publisher><cc:Agent rdf:about="http://openclipart.org/"><dc:title/></cc:Agent></dc:publisher><dc:title/><dc:creator><cc:Agent><dc:title>j4p4n</dc:title></cc:Agent></dc:creator></cc:Work><cc:License rdf:about="http://creativecommons.org/publicdomain/zero/1.0/"><cc:permits rdf:resource="http://creativecommons.org/ns#Reproduction"/><cc:permits rdf:resource="http://creativecommons.org/ns#Distribution"/><cc:permits rdf:resource="http://creativecommons.org/ns#DerivativeWorks"/></cc:License></rdf:RDF></metadata></svg>